g BunnyTail
v -0.175399 0.8552048 -1.352099
v 0.131566 0.8487369 -1.342309
v 0.1270425 0.8553023 -1.178787
v -0.1799222 0.8617702 -1.185105
v 0.2329836 1.096847 -1.352184
v 0.2284601 1.103413 -1.18519
v -0.01130128 1.324106 -1.36808
v -0.01582451 1.330668 -1.201089
v -0.2636959 1.107314 -1.368031
v -0.2682188 1.113879 -1.201034
v -0.1153381 0.928116 -1.447218
v -0.1704566 1.096951 -1.49035
v -0.01013478 1.224534 -1.46005
v 0.1440689 1.089075 -1.480036
v 0.07904957 0.9232484 -1.440841
v -0.1279566 0.9344649 -1.082744
v 0.07668676 0.9301521 -1.076215
v 0.1442984 1.105982 -1.044586
v -0.01855805 1.247065 -1.055187
v -0.1868207 1.112959 -1.055151
v 0.131566 0.8487369 -1.342309
v 0.1270425 0.8553023 -1.178787
v 0.2329836 1.096847 -1.352184
v 0.2284601 1.103413 -1.18519
v -0.01130128 1.324106 -1.36808
v -0.01582451 1.330668 -1.201089
v -0.2636959 1.107314 -1.368031
v -0.1799222 0.8617702 -1.185105
v -0.175399 0.8552048 -1.352099
v -0.2682188 1.113879 -1.201034
v -0.175399 0.8552048 -1.352099
v -0.1704566 1.096951 -1.49035
v -0.2636959 1.107314 -1.368031
v -0.1153381 0.928116 -1.447218
v -0.2636959 1.107314 -1.368031
v -0.01013478 1.224534 -1.46005
v -0.01130128 1.324106 -1.36808
v -0.1704566 1.096951 -1.49035
v -0.01130128 1.324106 -1.36808
v 0.1440689 1.089075 -1.480036
v 0.2329836 1.096847 -1.352184
v -0.01013478 1.224534 -1.46005
v 0.2329836 1.096847 -1.352184
v 0.07904957 0.9232484 -1.440841
v 0.131566 0.8487369 -1.342309
v 0.1440689 1.089075 -1.480036
v 0.131566 0.8487369 -1.342309
v -0.1153381 0.928116 -1.447218
v -0.175399 0.8552048 -1.352099
v 0.07904957 0.9232484 -1.440841
v -0.1799222 0.8617702 -1.185105
v 0.07668676 0.9301521 -1.076215
v 0.1270425 0.8553023 -1.178787
v -0.1279566 0.9344649 -1.082744
v 0.1270425 0.8553023 -1.178787
v 0.1442984 1.105982 -1.044586
v 0.2284601 1.103413 -1.18519
v 0.07668676 0.9301521 -1.076215
v 0.2284601 1.103413 -1.18519
v -0.01855805 1.247065 -1.055187
v -0.01582451 1.330668 -1.201089
v 0.1442984 1.105982 -1.044586
v -0.01582451 1.330668 -1.201089
v -0.1868207 1.112959 -1.055151
v -0.2682188 1.113879 -1.201034
v -0.01855805 1.247065 -1.055187
v -0.2682188 1.113879 -1.201034
v -0.1279566 0.9344649 -1.082744
v -0.1799222 0.8617702 -1.185105
v -0.1868207 1.112959 -1.055151
vt 0.564884 0.147847
vt 0.29193 0.0268994
vt 0.914947 0.0129674
vt 0.691429 0.173693
vt 0.245486 0.549581
vt 0.171593 0.57241
vt 0.42046 0.932624
vt 0.0129674 0.987033
vt 0.591176 0.576608
vt 0.652036 0.584875
vt 0.497301 0.196097
vt 0.515015 0.509672
vt 0.410368 0.717847
vt 0.309027 0.497979
vt 0.332457 0.184792
vt 0.74624 0.256078
vt 0.88995 0.2491
vt 0.931268 0.55992
vt 0.822894 0.820357
vt 0.708639 0.570419
vt 0.29193 0.0268994
vt 0.127966 0.16061
vt 0.245486 0.549581
vt 0.171593 0.57241
vt 0.42046 0.932624
vt 0.828407 0.987033
vt 0.591176 0.576608
vt 0.691429 0.173693
vt 0.564884 0.147847
vt 0.652036 0.584875
vt 0.564884 0.147847
vt 0.515015 0.509672
vt 0.591176 0.576608
vt 0.497301 0.196097
vt 0.591176 0.576608
vt 0.410368 0.717847
vt 0.42046 0.932624
vt 0.515015 0.509672
vt 0.42046 0.932624
vt 0.309027 0.497979
vt 0.245486 0.549581
vt 0.410368 0.717847
vt 0.245486 0.549581
vt 0.332457 0.184792
vt 0.29193 0.0268994
vt 0.309027 0.497979
vt 0.29193 0.0268994
vt 0.497301 0.196097
vt 0.564884 0.147847
vt 0.332457 0.184792
vt 0.691429 0.173693
vt 0.88995 0.2491
vt 0.914947 0.0129674
vt 0.74624 0.256078
vt 0.127966 0.16061
vt 0.115828 0.55992
vt 0.171593 0.57241
vt 0.0745106 0.2491
vt 0.987033 0.57241
vt 0.822894 0.820357
vt 0.828407 0.987033
vt 0.931268 0.55992
vt 0.828407 0.987033
vt 0.708639 0.570419
vt 0.652036 0.584875
vt 0.822894 0.820357
vt 0.652036 0.584875
vt 0.74624 0.256078
vt 0.691429 0.173693
vt 0.708639 0.570419
vn -0.004698304 -0.9989749 0.04502324
vn -0.004867577 -0.9989544 0.04545656
vn -0.004698304 -0.9989749 0.04502324
vn -0.004529031 -0.9989951 0.04458991
vn 0.9254053 -0.3665196 -0.09637626
vn 0.9253632 -0.3667417 -0.09593506
vn 0.6640705 0.7390324 -0.1133199
vn 0.6640672 0.7390344 -0.113327
vn -0.659268 0.750432 0.04709126
vn -0.6592652 0.7504342 0.04709691
vn -0.07987824 -0.1342393 -0.9877243
vn 0.1527731 -0.1466021 -0.977327
vn -0.06125395 -0.07728348 -0.9951258
vn -0.1957702 -0.125227 -0.9726213
vn -0.11534 -0.2438415 -0.962932
vn 0.1330184 -0.1075038 0.9852659
vn 0.1132221 -0.1596004 0.9806674
vn 0.07723977 -0.1031636 0.9916609
vn 0.1428179 -0.08117471 0.9864146
vn 0.2430567 -0.115144 0.9631539
vn 0.9253632 -0.3667417 -0.09593506
vn 0.9253209 -0.3669637 -0.09549383
vn 0.6640672 0.7390344 -0.113327
vn 0.6640639 0.7390361 -0.1133341
vn -0.6592652 0.7504342 0.04709691
vn -0.6592622 0.7504364 0.04710256
vn -0.9311119 -0.3414296 0.1282829
vn -0.9311119 -0.3414296 0.1282829
vn -0.9311118 -0.3414299 0.1282821
vn -0.9311119 -0.3414291 0.1282836
vn -0.7813281 -0.3539819 -0.5140265
vn -0.7813281 -0.3539819 -0.5140265
vn -0.8406833 -0.3159483 -0.4398049
vn -0.7137857 -0.3883064 -0.582862
vn -0.5894745 0.6585377 -0.4678119
vn -0.5894745 0.6585377 -0.4678119
vn -0.5971284 0.5753306 -0.5589565
vn -0.5728077 0.7316762 -0.3695149
vn 0.4415907 0.6281684 -0.6406263
vn 0.4415907 0.6281684 -0.6406263
vn 0.534707 0.6359527 -0.5564644
vn 0.341491 0.61045 -0.714657
vn 0.6521168 -0.3625705 -0.6657975
vn 0.6521168 -0.3625705 -0.6657975
vn 0.6197343 -0.3126524 -0.7198458
vn 0.6802855 -0.4101458 -0.6074471
vn -0.07930412 -0.798872 -0.5962504
vn -0.07930412 -0.798872 -0.5962504
vn -0.07823903 -0.7972596 -0.5985448
vn -0.08036851 -0.8004772 -0.5939506
vn 0.06370753 -0.80769 0.5861555
vn 0.06370753 -0.80769 0.5861555
vn 0.06628545 -0.8116967 0.5803057
vn 0.06112598 -0.8036373 0.591972
vn 0.8325076 -0.3384626 0.4386049
vn 0.8325076 -0.3384626 0.4386049
vn 0.8780222 -0.3076193 0.3666707
vn 0.7801685 -0.3665313 0.5069436
vn 0.6463521 0.7101925 0.2790262
vn 0.6463521 0.7101925 0.2790262
vn 0.65433 0.6914949 0.3060833
vn 0.6376337 0.7280766 0.2516496
vn -0.5379868 0.710076 0.4542711
vn -0.5379868 0.710076 0.4542711
vn -0.5615517 0.706879 0.430095
vn -0.5138029 0.7124565 0.4779249
vn -0.7181743 -0.2976132 0.6290088
vn -0.7181743 -0.2976132 0.6290088
vn -0.6907834 -0.2452263 0.6802076
vn -0.7411729 -0.3481799 0.573963
g BunnyTail_0
f 3/3/3 1/1/1 2/2/2
f 3/3/3 4/4/4 1/1/1
f 6/6/6 21/21/21 5/5/5
f 6/6/6 22/22/22 21/21/21
f 8/8/8 23/23/23 7/7/7
f 8/8/8 24/24/24 23/23/23
f 10/10/10 25/25/25 9/9/9
f 10/10/10 26/26/26 25/25/25
f 28/28/28 27/27/27 29/29/29
f 28/28/28 30/30/30 27/27/27
f 11/11/11 14/14/14 15/15/15
f 11/11/11 13/13/13 14/14/14
f 12/12/12 13/13/13 11/11/11
f 16/16/16 19/19/19 20/20/20
f 16/16/16 18/18/18 19/19/19
f 17/17/17 18/18/18 16/16/16
f 32/32/32 31/31/31 33/33/33
f 32/32/32 34/34/34 31/31/31
f 36/36/36 35/35/35 37/37/37
f 36/36/36 38/38/38 35/35/35
f 40/40/40 39/39/39 41/41/41
f 40/40/40 42/42/42 39/39/39
f 44/44/44 43/43/43 45/45/45
f 44/44/44 46/46/46 43/43/43
f 48/48/48 47/47/47 49/49/49
f 48/48/48 50/50/50 47/47/47
f 52/52/52 51/51/51 53/53/53
f 52/52/52 54/54/54 51/51/51
f 56/56/56 55/55/55 57/57/57
f 56/56/56 58/58/58 55/55/55
f 60/60/60 59/59/59 61/61/61
f 60/60/60 62/62/62 59/59/59
f 64/64/64 63/63/63 65/65/65
f 64/64/64 66/66/66 63/63/63
f 68/68/68 67/67/67 69/69/69
f 68/68/68 70/70/70 67/67/67
