g eyeBrow
v -0.03134835 0.07650292 0.008862138
v -0.02159499 0.08734381 0.008862138
v -0.01077888 0.09366941 0.008862138
v 0.0005741726 0.09589797 0.008862138
v 0.01185132 0.09345597 0.008862138
v 0.02316283 0.08782816 0.008862138
v 0.03249669 0.07650292 0.008862138
v -0.03855449 0.07983309 0.008862138
v -0.03194213 0.09304614 0.008862138
v -0.01775891 0.1070505 0.008862138
v 0.0005741726 0.111975 0.008862138
v 0.01898314 0.1072639 0.008862138
v 0.03214577 0.09443478 0.008862138
v 0.03970283 0.07983309 0.008862138
v -0.03855449 0.07983309 -0.007596105
v -0.03194213 0.09304614 -0.007596135
v -0.01775891 0.1070505 -0.007596135
v 0.0005741726 0.111975 -0.007596135
v 0.01898314 0.1072639 -0.007596135
v 0.03214577 0.09443478 -0.007596135
v 0.03970283 0.07983309 -0.007596105
v -0.03134835 0.07650292 -0.007596105
v -0.02159499 0.08734381 -0.007596135
v -0.01077888 0.09366941 -0.007596135
v 0.0005741726 0.09589797 -0.007596135
v 0.01185132 0.09345597 -0.007596135
v 0.02316283 0.08782816 -0.007596135
v 0.03249669 0.07650292 -0.007596105
v -0.02159499 0.08734381 0.008862138
v -0.03134835 0.07650292 0.008862138
v -0.01077888 0.09366941 0.008862138
v 0.0005741726 0.09589797 0.008862138
v 0.01185132 0.09345597 0.008862138
v 0.02316283 0.08782816 0.008862138
v 0.03249669 0.07650292 0.008862138
v 0.03970283 0.07983309 -0.007596105
v 0.03249669 0.07650292 -0.007596105
v -0.03134835 0.07650292 -0.007596105
v -0.03855449 0.07983309 -0.007596105
v -0.03855449 0.07983309 0.008862138
v -0.03194213 0.09304614 0.008862138
v -0.01775891 0.1070505 0.008862138
v 0.0005741726 0.111975 0.008862138
v 0.01898314 0.1072639 0.008862138
v 0.03214577 0.09443478 0.008862138
v 0.03970283 0.07983309 0.008862138
v -0.03855449 0.07983309 -0.007596105
v -0.03194213 0.09304614 -0.007596135
v -0.01775891 0.1070505 -0.007596135
v 0.0005741726 0.111975 -0.007596135
v 0.01898314 0.1072639 -0.007596135
v 0.03214577 0.09443478 -0.007596135
v 0.03970283 0.07983309 -0.007596105
v -0.03134835 0.07650292 -0.007596105
v -0.02159499 0.08734381 -0.007596135
v -0.01077888 0.09366941 -0.007596135
v 0.0005741726 0.09589797 -0.007596135
v 0.01185132 0.09345597 -0.007596135
v 0.02316283 0.08782816 -0.007596135
v 0.03249669 0.07650292 -0.007596105
v 0.03249669 0.07650292 0.008862138
v 0.03970283 0.07983309 0.008862138
v -0.03855449 0.07983309 0.008862138
v -0.03134835 0.07650292 0.008862138
vt 0.375 0
vt 0.4166667 0
vt 0.4583333 0
vt 0.5 0
vt 0.5416666 0
vt 0.5833333 0
vt 0.625 0
vt 0.375 0.25
vt 0.4166667 0.25
vt 0.4583333 0.25
vt 0.5 0.25
vt 0.5416666 0.25
vt 0.5833333 0.25
vt 0.625 0.25
vt 0.375 0.5
vt 0.4166667 0.5
vt 0.4583333 0.5
vt 0.5 0.5
vt 0.5416666 0.5
vt 0.5833333 0.5
vt 0.625 0.5
vt 0.375 0.75
vt 0.4166667 0.75
vt 0.4583333 0.75
vt 0.5 0.75
vt 0.5416666 0.75
vt 0.5833333 0.75
vt 0.625 0.75
vt 0.4166667 1
vt 0.375 1
vt 0.4583333 1
vt 0.5 1
vt 0.5416666 1
vt 0.5833333 1
vt 0.625 1
vt 0.875 0.25
vt 0.875 0
vt 0.125 0
vt 0.125 0.25
vt 0.375 0.25
vt 0.4166667 0.25
vt 0.4583333 0.25
vt 0.5 0.25
vt 0.5416666 0.25
vt 0.5833333 0.25
vt 0.625 0.25
vt 0.375 0.5
vt 0.4166667 0.5
vt 0.4583333 0.5
vt 0.5 0.5
vt 0.5416666 0.5
vt 0.5833333 0.5
vt 0.625 0.5
vt 0.375 0.75
vt 0.4166667 0.75
vt 0.4583333 0.75
vt 0.5 0.75
vt 0.5416666 0.75
vt 0.5833333 0.75
vt 0.625 0.75
vt 0.625 0
vt 0.625 0.25
vt 0.375 0.25
vt 0.375 0
vn 0 0 1
vn 0 0 1
vn 0 0 1
vn 0 0 1
vn 0 0 1
vn 0 0 1
vn 0 0 1
vn 0 0 1
vn 0 0 1
vn 0 0 1
vn 0 0 1
vn 0 0 1
vn 0 0 1
vn 0 0 1
vn -0.8942692 0.4475295 0
vn -0.8092794 0.5874237 0
vn -0.4975185 0.8674533 0
vn -0.005941371 0.9999824 0
vn 0.4895312 0.8719858 0
vn 0.8033439 0.5955153 0
vn 0.8881069 0.4596371 0
vn 0 0 -1
vn 0 0 -1
vn 0 0 -1
vn 0 0 -1
vn 0 0 -1
vn 0 0 -1
vn 0 0 -1
vn 0.6316457 -0.7752572 0
vn 0.7434115 -0.6688343 0
vn 0.3536885 -0.9353632 0
vn -0.009710025 -0.9999529 0
vn -0.331092 -0.9435984 0
vn -0.6222247 -0.7828386 0
vn -0.7716897 -0.6359993 0
vn 0.4195005 -0.9077551 0
vn 0.4195005 -0.9077551 0
vn -0.4195005 -0.9077551 0
vn -0.4195005 -0.9077551 0
vn -0.8942692 0.4475295 0
vn -0.8092794 0.5874237 0
vn -0.4975185 0.8674533 0
vn -0.005941371 0.9999824 0
vn 0.4895312 0.8719858 0
vn 0.8033439 0.5955153 0
vn 0.8881069 0.4596371 0
vn 0 0 -1
vn 0 0 -1
vn 0 0 -1
vn 0 0 -1
vn 0 0 -1
vn 0 0 -1
vn 0 0 -1
vn 0.7434115 -0.6688343 0
vn 0.6316457 -0.7752572 0
vn 0.3536885 -0.9353632 0
vn -0.009710025 -0.9999529 0
vn -0.331092 -0.9435984 0
vn -0.6222247 -0.7828386 0
vn -0.7716897 -0.6359993 0
vn 0.4195005 -0.9077551 0
vn 0.4195005 -0.9077551 0
vn -0.4195005 -0.9077551 0
vn -0.4195005 -0.9077551 0
g eyeBrow_0
f 14/14/14 6/6/6 7/7/7
f 13/13/13 6/6/6 14/14/14
f 13/13/13 5/5/5 6/6/6
f 12/12/12 5/5/5 13/13/13
f 12/12/12 4/4/4 5/5/5
f 11/11/11 4/4/4 12/12/12
f 11/11/11 3/3/3 4/4/4
f 10/10/10 3/3/3 11/11/11
f 10/10/10 2/2/2 3/3/3
f 9/9/9 2/2/2 10/10/10
f 9/9/9 1/1/1 2/2/2
f 8/8/8 1/1/1 9/9/9
f 21/21/21 45/45/45 46/46/46
f 20/20/20 45/45/45 21/21/21
f 20/20/20 44/44/44 45/45/45
f 19/19/19 44/44/44 20/20/20
f 19/19/19 43/43/43 44/44/44
f 18/18/18 43/43/43 19/19/19
f 18/18/18 42/42/42 43/43/43
f 17/17/17 42/42/42 18/18/18
f 17/17/17 41/41/41 42/42/42
f 16/16/16 41/41/41 17/17/17
f 16/16/16 40/40/40 41/41/41
f 15/15/15 40/40/40 16/16/16
f 28/28/28 52/52/52 53/53/53
f 27/27/27 52/52/52 28/28/28
f 27/27/27 51/51/51 52/52/52
f 26/26/26 51/51/51 27/27/27
f 26/26/26 50/50/50 51/51/51
f 25/25/25 50/50/50 26/26/26
f 25/25/25 49/49/49 50/50/50
f 24/24/24 49/49/49 25/25/25
f 24/24/24 48/48/48 49/49/49
f 23/23/23 48/48/48 24/24/24
f 23/23/23 47/47/47 48/48/48
f 22/22/22 47/47/47 23/23/23
f 35/35/35 59/59/59 60/60/60
f 34/34/34 59/59/59 35/35/35
f 34/34/34 58/58/58 59/59/59
f 33/33/33 58/58/58 34/34/34
f 33/33/33 57/57/57 58/58/58
f 32/32/32 57/57/57 33/33/33
f 32/32/32 56/56/56 57/57/57
f 31/31/31 56/56/56 32/32/32
f 31/31/31 55/55/55 56/56/56
f 29/29/29 55/55/55 31/31/31
f 29/29/29 54/54/54 55/55/55
f 30/30/30 54/54/54 29/29/29
f 36/36/36 61/61/61 37/37/37
f 36/36/36 62/62/62 61/61/61
f 63/63/63 38/38/38 64/64/64
f 63/63/63 39/39/39 38/38/38
