g PENWALL:polySurface52
v 0.02836205 -0.01940599 -0.03074773
v 0.04359424 -0.01940599 -0.0199045
v -0.04128299 -0.01940601 0.03074772
v -0.04359424 -0.01940601 0.01219365
v 0.02836204 0.01940603 -0.03074771
v 0.02836204 -0.01940601 -0.03074771
v -0.04359424 -0.01940601 0.01219366
v -0.04359424 0.01940603 0.01219366
v 0.04359424 -0.01940601 -0.01990448
v 0.04359424 0.01940601 -0.01990448
v -0.041283 0.01940603 0.03074773
v -0.04128299 -0.01940601 0.03074773
v -0.041283 0.01940603 0.03074773
v 0.04359424 0.01940601 -0.01990448
v -0.04359424 0.01940603 0.01219366
v 0.02836204 0.01940603 -0.03074771
vt 0 0
vt 0 0
vt 1 0
vt 1 0
vt 0 0.9842262
vt 0 0
vt 1 0
vt 1 0.9842262
vt 0 0
vt 0 0.9842262
vt 1 0.9842262
vt 1 0
vt 1 0.9842262
vt 0 0.9842262
vt 1 0.9842262
vt 0 0.9842262
vn 2.152286E-07 -1 0
vn 2.152286E-07 -1 0
vn 2.152286E-07 -1 0
vn 2.152286E-07 -1 0
vn -0.5124551 0 -0.858714
vn -0.5124551 0 -0.858714
vn -0.5124551 0 -0.858714
vn -0.5124551 0 -0.858714
vn 0.512455 7.159515E-08 0.858714
vn 0.512455 7.159515E-08 0.858714
vn 0.512455 7.159515E-08 0.858714
vn 0.512455 7.159515E-08 0.858714
vn 4.502307E-07 1 0
vn 4.502307E-07 1 0
vn 4.502307E-07 1 0
vn 4.502307E-07 1 0
g PENWALL:polySurface52_0
f 3/3/3 1/1/1 2/2/2
f 3/3/3 4/4/4 1/1/1
f 7/7/7 5/5/5 6/6/6
f 7/7/7 8/8/8 5/5/5
f 11/11/11 9/9/9 10/10/10
f 11/11/11 12/12/12 9/9/9
f 15/15/15 14/14/14 16/16/16
f 15/15/15 13/13/13 14/14/14
