g PENWALL:polySurface53
v 0.007724808 0.019406 -0.04941507
v -0.009272346 0.01940602 -0.04162457
v -0.00796043 0.01940602 0.04216056
v 0.009272312 0.01940602 0.04941507
v -0.009272335 0.01940602 -0.04162457
v -0.009272335 -0.01940602 -0.04162457
v -0.007960419 -0.01940602 0.04216056
v -0.007960419 0.01940602 0.04216056
v 0.007724819 -0.019406 -0.04941507
v 0.007724819 0.01940602 -0.04941507
v 0.009272324 0.01940604 0.04941507
v 0.009272335 -0.019406 0.04941506
v -0.009272324 -0.01940602 -0.04162457
v 0.007724819 -0.01940602 -0.04941507
v 0.009272346 -0.01940602 0.04941506
v -0.007960407 -0.01940602 0.04216056
vt 0 0.9842262
vt 0 0.9842262
vt 1 0.9842262
vt 1 0.9842262
vt 0 0.9842262
vt 0 0
vt 1 0
vt 1 0.9842262
vt 0 0
vt 0 0.9842262
vt 1 0.9842262
vt 1 0
vt 0 0
vt 0 0
vt 1 0
vt 1 0
vn 6.665356E-07 1 0
vn 6.665356E-07 1 0
vn 6.665356E-07 1 0
vn 6.665356E-07 1 0
vn -0.9998775 0 0.01565619
vn -0.9998775 0 0.01565619
vn -0.9998775 0 0.01565619
vn -0.9998775 0 0.01565619
vn 0.9998775 2.863806E-07 -0.01565636
vn 0.9998775 2.863806E-07 -0.01565636
vn 0.9998775 2.863806E-07 -0.01565636
vn 0.9998775 2.863806E-07 -0.01565636
vn 0 -1 0
vn 0 -1 0
vn 0 -1 0
vn 0 -1 0
g PENWALL:polySurface53_0
f 3/3/3 1/1/1 2/2/2
f 3/3/3 4/4/4 1/1/1
f 7/7/7 5/5/5 6/6/6
f 7/7/7 8/8/8 5/5/5
f 11/11/11 9/9/9 10/10/10
f 11/11/11 12/12/12 9/9/9
f 15/15/15 13/13/13 14/14/14
f 15/15/15 16/16/16 13/13/13
