g PENWALL:polySurface50
v -0.04359424 0.01940601 0.01990448
v -0.02836204 0.01940603 0.03074771
v 0.04359424 0.01940603 -0.01219366
v 0.041283 0.01940603 -0.03074773
v -0.02836204 -0.01940601 0.03074771
v 0.04359424 -0.01940601 -0.01219366
v -0.04359424 -0.01940601 0.01990448
v 0.041283 0.01940603 -0.03074773
v 0.04128299 -0.01940601 -0.03074773
v -0.02836205 -0.01940599 0.03074773
v -0.04359424 -0.01940599 0.0199045
v 0.04128299 -0.01940601 -0.03074772
v 0.04359424 -0.01940601 -0.01219365
v -0.02836204 0.01940603 0.03074771
v 0.04359424 0.01940603 -0.01219366
v -0.04359424 0.01940601 0.01990448
vt 0 0.9842262
vt 0 0.9842262
vt 1 0.9842262
vt 1 0.9842262
vt 0 0
vt 1 0
vt 0 0
vt 1 0.9842262
vt 1 0
vt 0 0
vt 0 0
vt 1 0
vt 1 0
vt 0 0.9842262
vt 1 0.9842262
vt 0 0.9842262
vn -4.502307E-07 1 0
vn -4.502307E-07 1 0
vn -4.502307E-07 1 0
vn -4.502307E-07 1 0
vn 0.5124551 0 0.858714
vn 0.5124551 0 0.858714
vn -0.512455 7.159515E-08 -0.858714
vn -0.512455 7.159515E-08 -0.858714
vn -0.512455 7.159515E-08 -0.858714
vn -2.152286E-07 -1 0
vn -2.152286E-07 -1 0
vn -2.152286E-07 -1 0
vn -2.152286E-07 -1 0
vn 0.5124551 0 0.858714
vn 0.5124551 0 0.858714
vn -0.512455 7.159515E-08 -0.858714
g PENWALL:polySurface50_0
f 3/3/3 1/1/1 2/2/2
f 3/3/3 4/4/4 1/1/1
f 6/6/6 14/14/14 5/5/5
f 6/6/6 15/15/15 14/14/14
f 8/8/8 7/7/7 16/16/16
f 8/8/8 9/9/9 7/7/7
f 12/12/12 10/10/10 11/11/11
f 12/12/12 13/13/13 10/10/10
