g PENWALL:polySurface65
v -54.56417 12.15883 39.52531
v -60.62362 12.15883 29.40083
v -54.56417 -0.3529894 39.52531
v -60.62362 -0.3529894 29.40083
v -63.25506 -0.3529894 44.72576
v -69.3145 -0.3529894 34.60128
v -63.25506 12.15883 44.72576
v -69.3145 12.15883 34.60128
v -58.6004 12.15883 50.22759
v -50.52987 12.15883 44.10873
v -50.52987 -0.3529894 44.10873
v -58.6004 -0.3529894 50.2276
v -60.62403 12.15883 29.39997
v -60.62403 -0.3529894 29.39997
v -69.31499 -0.3529894 34.6003
v -69.31499 12.15883 34.6003
v -71.96409 12.15882 27.89841
v -62.7569 12.15883 23.67877
v -62.7569 -0.3529894 23.67877
v -71.96409 -0.3529894 27.89841
v -54.56417 -0.3529894 39.52531
v -60.62362 -0.3529894 29.40083
v -63.25506 -0.3529894 44.72576
v -69.3145 -0.3529894 34.60128
v -63.25506 12.15883 44.72576
v -60.62362 12.15883 29.40083
v -54.56417 12.15883 39.52531
v -69.3145 12.15883 34.60128
v -60.62362 12.15883 29.40083
v -69.3145 -0.3529894 34.60128
v -60.62362 -0.3529894 29.40083
v -69.3145 12.15883 34.60128
v -50.52987 12.15883 44.10873
v -50.52987 -0.3529894 44.10873
v -58.6004 12.15883 50.22759
v -58.6004 -0.3529894 50.2276
v -60.62403 12.15883 29.39997
v -62.7569 12.15883 23.67877
v -60.62403 -0.3529894 29.39997
v -62.7569 -0.3529894 23.67877
v -69.31499 -0.3529894 34.6003
v -71.96409 12.15882 27.89841
v -69.31499 12.15883 34.6003
v -71.96409 -0.3529894 27.89841
vt 0.3 0.9842262
vt 0.7 0.9842262
vt 0.3 0
vt 0.7 0
vt 0.3 0
vt 0.7 0
vt 0.3 0.9842262
vt 0.7 0.9842262
vt 0 0.9842262
vt 0 0.9842262
vt 0 0
vt 0 0
vt 0.7 0.9842262
vt 0.7 0
vt 0.7 0
vt 0.7 0.9842262
vt 1 0.9842262
vt 1 0.9842262
vt 1 0
vt 1 0
vt 0.3 0
vt 0.7 0
vt 0.3 0
vt 0.7 0
vt 0.3 0.9842262
vt 0.7 0.9842262
vt 0.3 0.9842262
vt 0.7 0.9842262
vt 0.7 0.9842262
vt 0.7 0
vt 0.7 0
vt 0.7 0.9842262
vt 0 0.9842262
vt 0 0
vt 0 0.9842262
vt 0 0
vt 0.7 0.9842262
vt 1 0.9842262
vt 0.7 0
vt 1 0
vt 0.7 0
vt 1 0.9842262
vt 0.7 0.9842262
vt 1 0
vn 0.8077104 0 -0.5895795
vn 0.8580624 0 -0.5135453
vn 0.8077104 0 -0.5895795
vn 0.8580624 0 -0.5135453
vn 0 -1 0
vn 0 -1 0
vn -0.8134454 0 0.5816413
vn -0.8580625 0 0.5135452
vn 0 1 2.692633E-07
vn 0 1 2.692633E-07
vn 0.750641 0 -0.6607104
vn 0 -1 0
vn -5.983002E-07 1 -3.702366E-07
vn 0.9370055 0 -0.3493147
vn 0 -1 0
vn -5.983002E-07 1 -3.702366E-07
vn -5.983002E-07 1 -3.702366E-07
vn -5.983002E-07 1 -3.702366E-07
vn 0.9370055 0 -0.3493147
vn 0 -1 0
vn 0 -1 0
vn 0 -1 0
vn -0.8134454 0 0.5816413
vn -0.8580625 0 0.5135452
vn 0 1 1.346317E-07
vn 0 1 0
vn 0 1 1.346317E-07
vn 0 1 0
vn -0.5134733 0 -0.8581056
vn -0.5134733 0 -0.8581056
vn -0.5134733 0 -0.8581056
vn -0.5134733 0 -0.8581056
vn 0.750641 0 -0.6607104
vn 0 -1 0
vn -0.7634371 0 0.6458822
vn -0.7634371 0 0.6458822
vn 0.9370055 0 -0.3493147
vn 0.9370055 0 -0.3493147
vn 0 -1 0
vn 0 -1 0
vn -0.9299841 0 0.3675998
vn -0.9299841 0 0.3675998
vn -0.9299841 0 0.3675998
vn -0.9299841 0 0.3675998
g PENWALL:polySurface65_0
f 1/1/1 4/4/4 2/2/2
f 1/1/1 3/3/3 4/4/4
f 11/11/11 3/3/3 1/1/1
f 21/21/21 6/6/6 22/22/22
f 21/21/21 5/5/5 6/6/6
f 12/12/12 5/5/5 21/21/21
f 23/23/23 8/8/8 24/24/24
f 23/23/23 7/7/7 8/8/8
f 35/35/35 7/7/7 23/23/23
f 25/25/25 26/26/26 28/28/28
f 25/25/25 27/27/27 26/26/26
f 10/10/10 27/27/27 25/25/25
f 30/30/30 29/29/29 31/31/31
f 30/30/30 32/32/32 29/29/29
f 10/10/10 25/25/25 9/9/9
f 11/11/11 1/1/1 33/33/33
f 12/12/12 21/21/21 34/34/34
f 35/35/35 23/23/23 36/36/36
f 18/18/18 16/16/16 13/13/13
f 18/18/18 17/17/17 16/16/16
f 19/19/19 37/37/37 14/14/14
f 19/19/19 38/38/38 37/37/37
f 20/20/20 39/39/39 15/15/15
f 20/20/20 40/40/40 39/39/39
f 42/42/42 41/41/41 43/43/43
f 42/42/42 44/44/44 41/41/41
