g rockPink
v 0.9188983 -0.07742892 0.7217422
v 1.141859 -0.07732692 -0.02640197
v 0.9192072 -0.07734695 -0.7745462
v -0.02653621 -0.07747739 -1.147915
v -0.9248197 -0.07764176 -0.7712605
v -1.156633 -0.07774378 -0.02640194
v -0.9251286 -0.07772373 0.7184566
v -0.02697318 -0.07759333 1.095111
v 0.9309852 0.2175994 0.6684927
v 1.125377 0.2074159 -0.01788617
v 0.9541087 0.276119 -0.6987937
v 0.03032994 0.3114075 -0.996723
v -0.7399625 0.5460003 -0.6647555
v -0.9314331 0.5604227 -0.01437624
v -0.7724894 0.4633944 0.64359
v -0.002371731 0.2286479 0.9746811
v 0.4476001 1.021999 0.2667998
v 0.5715652 1.032327 0.01926855
v 0.475409 1.08904 -0.2282627
v 0.2154592 1.158916 -0.3307935
v 0.02410376 1.170209 -0.2282627
v -0.09986113 1.159882 0.01926859
v -0.003705106 1.103169 0.2667998
v 0.1761307 1.064106 0.3693306
v 0.2200129 1.186173 0.07945161
v 0.8071226 0.6461852 -0.002930726
v 0.6274725 0.6507165 0.5005844
v 0.06980648 0.6800483 0.6018475
v -0.2691644 0.882086 0.4034555
v -0.4104954 0.9671214 0.001248508
v -0.2351613 0.9662018 -0.4009584
v 0.1173361 0.7984347 -0.5814871
v 0.6610807 0.7344284 -0.5002484
v -0.4021468 0.6503462 0.4459687
v -0.5528995 0.7417971 -0.007109856
v -0.3689333 0.7336543 -0.4601882
v -0.9987007 0.1711452 0.6872919
v -1.2 0.2115233 -0.02139602
v -0.9849803 0.2055793 -0.7269258
v 0.7766669 0.5699389 -0.08177923
v 0.6492891 0.7503816 -0.06649344
v 0.5152408 0.8409683 0.1393577
v 0.5219215 0.8156564 0.368622
v 0.5845048 0.634345 0.5033208
v 0.690335 0.4833502 0.4494155
v 0.787904 0.3974282 0.2804109
v 0.8240218 0.4295479 0.06190468
v 0.8248141 0.6653268 0.01112944
v 0.7089142 0.8080025 0.05325265
v 0.5892795 0.8866469 0.2154711
v 0.5541602 0.8522241 0.3919854
v 0.6464596 0.7285628 0.4856463
v 0.7544025 0.5910696 0.4523629
v 0.8380359 0.5166216 0.3053813
v 0.8695319 0.545862 0.1200273
v 0.8262003 0.7499842 0.1472986
v 0.7344091 0.8319865 0.1715557
v 0.6456091 0.8767586 0.2631171
v 0.6306962 0.8570843 0.3647562
v 0.6965306 0.7857103 0.4190174
v 0.7856696 0.7054356 0.397707
v 0.8421662 0.6620623 0.3112246
v 0.8597314 0.6800091 0.2066389
v 0.7701542 0.7943051 0.2968696
v 0.07074475 0.4368471 0.7267238
v 0.02128149 0.6245974 0.55086
v -0.2084442 0.6863681 0.4362666
v -0.4914131 0.6094671 0.4344936
v -0.6625797 0.4476019 0.5549822
v -0.6141258 0.2720993 0.7427295
v -0.3737213 0.1771055 0.8793521
v -0.08974307 0.2417591 0.8692418
v 0.004360225 0.5140085 0.7789527
v -0.0374738 0.6721785 0.6267125
v -0.2358851 0.7240449 0.5286435
v -0.4803104 0.6568446 0.5305106
v -0.6281039 0.5164376 0.637522
v -0.5870268 0.3674532 0.7986745
v -0.3806065 0.2906696 0.9132656
v -0.1354242 0.3486843 0.902486
v -0.1404805 0.5649127 0.7970965
v -0.1641421 0.6535408 0.7084311
v -0.2791834 0.6850233 0.6508307
v -0.4201025 0.6467912 0.6541427
v -0.5045292 0.5634052 0.7185276
v -0.4811199 0.4778389 0.8101642
v -0.363409 0.438051 0.873272
v -0.2222377 0.4732212 0.8669892
v -0.3261757 0.5811195 0.7760099
v 0.2059685 1.149838 -0.3130912
v 0.3948389 0.9806655 -0.3943025
v 0.3883027 0.7261964 -0.4931555
v 0.1998281 0.5504494 -0.5647699
v -0.03605776 0.5483946 -0.5844206
v -0.2031166 0.7082394 -0.5150914
v -0.1995829 0.940144 -0.4058549
v -0.03342482 1.125298 -0.3218544
v 0.2032269 1.117648 -0.4550264
v 0.3480669 0.9866396 -0.5201906
v 0.3429875 0.789207 -0.5989832
v 0.1979309 0.6510191 -0.6544477
v 0.01350439 0.6477364 -0.6651408
v -0.1164691 0.7724179 -0.6082608
v -0.1149313 0.9548431 -0.5212522
v 0.01499949 1.099398 -0.4572446
v 0.169776 1.030216 -0.5444194
v 0.2505402 0.9555368 -0.58158
v 0.2486452 0.8430934 -0.6291469
v 0.1671142 0.7621468 -0.6620141
v 0.05824496 0.7584573 -0.6639459
v -0.01747862 0.831012 -0.6296589
v -0.01705138 0.9384912 -0.5791371
v 0.05940983 1.021567 -0.5433672
v 0.1163791 0.8981752 -0.6199914
v -1.011944 0.1729223 -0.3953639
v -1.057503 0.2283377 -0.162724
v -0.9745726 0.3720927 -0.04676363
v -0.8197438 0.5298302 -0.09149909
v -0.6934927 0.6158056 -0.2732025
v -0.661765 0.5698031 -0.5093464
v -0.7333655 0.4121142 -0.659123
v -0.8743633 0.2449639 -0.6108835
v -1.068657 0.265438 -0.4009904
v -1.105216 0.3109584 -0.2017304
v -1.032886 0.4347905 -0.1030368
v -0.900044 0.5717847 -0.1447894
v -0.7918432 0.6466835 -0.3043881
v -0.7656572 0.6082225 -0.5062761
v -0.8294908 0.4739402 -0.6303316
v -0.951959 0.3298863 -0.5859511
v -1.064276 0.3891823 -0.3945033
v -1.083233 0.4137889 -0.2801609
v -1.042016 0.4859365 -0.2216466
v -0.9667723 0.5658253 -0.2472595
v -0.9040234 0.6083213 -0.3426152
v -0.8885242 0.586068 -0.4578339
v -0.926909 0.5104371 -0.5248022
v -0.9986951 0.4281952 -0.4983134
v -1.003275 0.5138552 -0.3748745
v 0.1998281 0.5504494 -0.5647699
v 0.1998281 0.5504494 -0.5647699
v 0.1979309 0.6510191 -0.6544477
v 0.1979309 0.6510191 -0.6544477
v -1.057503 0.2283377 -0.162724
v -1.057503 0.2283377 -0.162724
v -1.105216 0.3109584 -0.2017304
v -0.661765 0.5698031 -0.5093464
v -0.7656572 0.6082225 -0.5062761
v -1.105216 0.3109584 -0.2017304
v -0.7656572 0.6082225 -0.5062761
vt 0.9198217 0.1162332
vt 0.9704181 0.5505219
vt 0.8764343 0.8926793
vt 0.5040922 0.955118
vt 0.1552313 0.8515113
vt 0.02849699 0.4398583
vt 0.1080763 0.08741171
vt 0.5385445 0.03754912
vt 0.8245057 0.2259282
vt 0.8777819 0.5529404
vt 0.8089315 0.8418164
vt 0.489854 0.8749782
vt 0.2060075 0.7551141
vt 0.1310489 0.4435082
vt 0.2018871 0.1930551
vt 0.5298526 0.1066632
vt 0.6423375 0.3486932
vt 0.6997845 0.5294258
vt 0.6358691 0.673775
vt 0.4785953 0.7025643
vt 0.3150638 0.623623
vt 0.2781947 0.444948
vt 0.2886079 0.2923677
vt 0.5076149 0.2718095
vt 0.4565992 0.4717206
vt 0.7854332 0.5444409
vt 0.7298646 0.3011858
vt 0.5190428 0.1880942
vt 0.247752 0.2455796
vt 0.2088714 0.4442697
vt 0.2636853 0.6855711
vt 0.4818973 0.7879478
vt 0.7248405 0.7638719
vt 0.2232168 0.2174819
vt 0.1672408 0.4438623
vt 0.2328309 0.7227727
vt 0.1471267 0.1313877
vt 0.07118613 0.4413776
vt 0.1763678 0.8113842
vt 0.9734994 0.6242104
vt 0.8234265 0.8461502
vt 0.4305937 0.8713958
vt 0.1511267 0.6741928
vt 0.06954992 0.3701573
vt 0.223827 0.1251043
vt 0.6064353 0.07719389
vt 0.9036899 0.2571902
vt 0.9000636 0.5902083
vt 0.7542478 0.7764205
vt 0.4825141 0.7865857
vt 0.2514066 0.6248248
vt 0.1829833 0.3891886
vt 0.3099595 0.2076344
vt 0.6042645 0.1832196
vt 0.821223 0.3403228
vt 0.7550035 0.5518409
vt 0.6725091 0.6577437
vt 0.5173185 0.6653075
vt 0.3827948 0.5734603
vt 0.3433003 0.4371032
vt 0.4195148 0.3327534
vt 0.5712333 0.3204398
vt 0.7120362 0.4107342
vt 0.5501791 0.4964018
vt 0.972177 0.2593405
vt 0.9729922 0.5830913
vt 0.717483 0.8215664
vt 0.3529115 0.8704816
vt 0.07319032 0.5907039
vt 0.07213005 0.2667846
vt 0.3505247 0.08859066
vt 0.715341 0.03984398
vt 0.8995728 0.3012351
vt 0.9005878 0.5776145
vt 0.6794821 0.7815993
vt 0.3639678 0.8202569
vt 0.1192635 0.560492
vt 0.1180644 0.2839862
vt 0.3612032 0.1528022
vt 0.6769014 0.1142712
vt 0.7292235 0.3821166
vt 0.7299566 0.540006
vt 0.6021452 0.6600577
vt 0.4200569 0.6807997
vt 0.290313 0.5348716
vt 0.2895187 0.3769397
vt 0.4181826 0.2995483
vt 0.600332 0.2788486
vt 0.5064004 0.4852037
vt 0.9053236 0.3180234
vt 0.9060283 0.597932
vt 0.6851201 0.804113
vt 0.3699188 0.846404
vt 0.1280772 0.6045138
vt 0.1271607 0.3244595
vt 0.3678553 0.1703967
vt 0.6832684 0.128251
vt 0.8425515 0.3542446
vt 0.843429 0.593197
vt 0.6522652 0.7695581
vt 0.3794778 0.8029808
vt 0.1679114 0.5783929
vt 0.1668746 0.3393315
vt 0.3770877 0.2259127
vt 0.6500342 0.1925995
vt 0.6952706 0.4241733
vt 0.6959044 0.5606813
vt 0.5854014 0.6644757
vt 0.4279714 0.6824089
vt 0.3157974 0.5562422
vt 0.3151107 0.4196975
vt 0.426351 0.3527863
vt 0.5838337 0.3348898
vt 0.5026222 0.5133004
vt 0.1417398 0.1796319
vt 0.4150831 0.02486615
vt 0.7383133 0.1274065
vt 0.9531747 0.4123724
vt 0.8497447 0.7820258
vt 0.5763755 0.937079
vt 0.2932216 0.7865005
vt 0.07838646 0.5012474
vt 0.2117147 0.2210808
vt 0.4449105 0.08869077
vt 0.7226063 0.178557
vt 0.905448 0.4269269
vt 0.8022739 0.7574492
vt 0.569059 0.8900548
vt 0.3424305 0.746913
vt 0.1596084 0.4983275
vt 0.3821751 0.3422342
vt 0.500372 0.2749797
vt 0.6444759 0.3201918
vt 0.7369719 0.4480982
vt 0.6822565 0.6071305
vt 0.5640538 0.6744491
vt 0.451609 0.6105741
vt 0.3591191 0.482604
vt 0.553686 0.4659261
vt 0.3699188 0.846404
vt 0.3699188 0.846404
vt 0.3794778 0.8029808
vt 0.3794778 0.8029808
vt 0.4150831 0.02486615
vt 0.4150831 0.02486615
vt 0.4449105 0.08869077
vt 0.5763755 0.937079
vt 0.569059 0.8900548
vt 0.4449105 0.08869077
vt 0.569059 0.8900548
vn 0.7263918 0.1530267 0.6700282
vn 0.9997997 0.01872092 0.007087463
vn 0.7328966 0.1386145 -0.6660695
vn 0.005489745 0.2650845 -0.9642096
vn -0.7244572 0.06691954 -0.6860639
vn -0.9843774 -0.1758855 -0.008090753
vn -0.7288448 0.01742696 0.6844571
vn 0.001352615 0.2462402 0.9692079
vn 0.6565226 0.4043569 0.6367682
vn 0.9448586 0.3261305 0.02968457
vn 0.6801319 0.4038659 -0.6118112
vn -0.03588203 0.4567503 -0.888871
vn -0.4401605 0.7147341 -0.5435198
vn -0.6092602 0.7923157 0.0322144
vn -0.4268738 0.6994724 0.5731641
vn -0.04081853 0.4425861 0.8957965
vn 0.4662568 0.7438274 0.4788792
vn 0.6478677 0.7520823 0.1209935
vn 0.4956393 0.828512 -0.2605946
vn 0.1140714 0.885348 -0.450718
vn -0.1974713 0.9406457 -0.2760267
vn -0.3194874 0.9416486 0.1059509
vn -0.2166938 0.8552348 0.4707623
vn 0.08816961 0.7688088 0.6333712
vn 0.1559369 0.9746855 0.1602241
vn 0.8178585 0.5717137 0.06519963
vn 0.5513074 0.5924113 0.5874597
vn -0.03444823 0.5656483 0.8239267
vn -0.4769655 0.5981269 0.6440094
vn -0.6957198 0.7168597 0.04567482
vn -0.4712178 0.6527864 -0.5931473
vn -0.01454973 0.6038422 -0.796971
vn 0.5905386 0.6251816 -0.5103058
vn -0.4421123 0.6679107 0.5986919
vn -0.6388579 0.7684277 0.03714107
vn -0.4417778 0.6967382 -0.5651443
vn -0.6716579 0.2850662 0.6838222
vn -0.9698467 0.2437104 0.001546027
vn -0.6689228 0.3108318 -0.6752228
vn 0.7789877 0.2325687 -0.5823144
vn 0.2682167 0.7628569 -0.5883104
vn -0.3781368 0.9026994 -0.2052961
vn -0.6409677 0.6034278 0.4743789
vn -0.1384758 0.1338483 0.9812794
vn 0.4983755 -0.2697747 0.8239195
vn 0.8291913 -0.4265884 0.3611979
vn 0.9494601 -0.2604881 -0.1751326
vn 0.8201622 0.3648432 -0.4407077
vn 0.3770267 0.8112398 -0.4469236
vn -0.1107913 0.9875448 -0.1117167
vn -0.283304 0.8091807 0.5147479
vn 0.138407 0.3490684 0.9268197
vn 0.6314048 -0.06289433 0.7728987
vn 0.9034193 -0.2292339 0.3623336
vn 0.9922361 -0.07994024 -0.09527365
vn 0.8122813 0.5754642 -0.09507977
vn 0.5470946 0.8290643 -0.1154975
vn 0.3421703 0.9361855 0.08047518
vn 0.3188637 0.861415 0.3953353
vn 0.5022162 0.6196009 0.6032194
vn 0.7602619 0.3623214 0.5391893
vn 0.9183096 0.239257 0.3153787
vn 0.9443846 0.3156242 0.09229816
vn 0.6917765 0.6815317 0.2386624
vn 0.7712818 0.2843845 0.5694293
vn 0.6454592 0.7634856 0.02172806
vn 0.06737839 0.9312244 -0.3581639
vn -0.5180574 0.7882426 -0.3320996
vn -0.9205576 0.3865397 0.056221
vn -0.7993864 -0.1072381 0.5911694
vn -0.2392797 -0.2932971 0.9255928
vn 0.3910831 -0.124039 0.9119585
vn 0.5516514 0.4536794 0.6998968
vn 0.4424367 0.8509797 0.2829901
vn -0.01214734 0.9991997 -0.03811229
vn -0.4783844 0.8777142 -0.0276796
vn -0.7787086 0.5557806 0.2910683
vn -0.6793226 0.1607512 0.7160167
vn -0.2313852 -0.002690284 0.9728585
vn 0.2633329 0.1226493 0.9568767
vn 0.133948 0.6298462 0.7650828
vn 0.07399473 0.8043701 0.5895027
vn -0.119761 0.8871639 0.4456429
vn -0.3199592 0.8382746 0.4414996
vn -0.4306697 0.693692 0.5773344
vn -0.3816805 0.5219379 0.7628243
vn -0.1870858 0.4373775 0.879602
vn 0.02470009 0.4842872 0.8745602
vn -0.1560086 0.6920713 0.7047685
vn 0.2784111 0.9352903 -0.2184472
vn 0.8332323 0.4742257 -0.284313
vn 0.8537741 -0.1986262 -0.4812664
vn 0.3875523 -0.6027368 -0.6975038
vn -0.2891954 -0.5128679 -0.8082899
vn -0.7319856 -0.01300271 -0.681196
vn -0.72523 0.5054433 -0.4675131
vn -0.36784 0.8798886 -0.3008153
vn 0.1937333 0.8467321 -0.4954917
vn 0.6257175 0.5173877 -0.5837702
vn 0.662765 -0.001595349 -0.7488257
vn 0.3057499 -0.3127788 -0.89927
vn -0.215676 -0.233352 -0.9481724
vn -0.5597925 0.1340047 -0.8177256
vn -0.5626676 0.5202258 -0.6424721
vn -0.2892067 0.7999588 -0.5257618
vn 0.04781261 0.5993837 -0.7990326
vn 0.2131871 0.4701509 -0.8564517
vn 0.2390004 0.2739416 -0.9315765
vn 0.1147032 0.1581696 -0.9807271
vn -0.08718171 0.1879005 -0.9783111
vn -0.2422052 0.3260761 -0.9137895
vn -0.2550347 0.4835292 -0.837351
vn -0.1409113 0.5907941 -0.794422
vn -0.02530052 0.4074685 -0.9128687
vn -0.7989914 -0.5055277 -0.32566
vn -0.8749392 -0.3422747 0.3425338
vn -0.5482978 0.2171329 0.8076031
vn -0.07816015 0.7195479 0.6900303
vn 0.2430058 0.9516101 0.1881128
vn 0.2831027 0.8314661 -0.4780343
vn -0.06572435 0.331995 -0.9409887
vn -0.5244992 -0.2490036 -0.8141853
vn -0.9051508 -0.2303783 -0.3572504
vn -0.9810075 -0.06049619 0.1842949
vn -0.7092592 0.4070024 0.575587
vn -0.3068501 0.8098021 0.5000637
vn -0.04330542 0.9953175 0.08641709
vn -0.02478042 0.8838417 -0.4671293
vn -0.3112499 0.4568873 -0.8332933
vn -0.6685929 -0.02338349 -0.7432609
vn -0.9051865 0.2641887 -0.3329291
vn -0.9258866 0.368796 -0.08199759
vn -0.7992849 0.5918826 0.1040123
vn -0.616165 0.7821641 0.09252031
vn -0.4954071 0.8632111 -0.09715053
vn -0.496253 0.7903553 -0.3592653
vn -0.6254525 0.5747895 -0.5276611
vn -0.7880502 0.3520636 -0.5050031
vn -0.7565383 0.6104729 -0.2344622
vn 0.3875523 -0.6027368 -0.6975038
vn 0.3875523 -0.6027368 -0.6975038
vn 0.3057499 -0.3127788 -0.89927
vn 0.3057499 -0.3127788 -0.89927
vn -0.8749392 -0.3422747 0.3425338
vn -0.8749392 -0.3422747 0.3425338
vn -0.9810075 -0.06049619 0.1842949
vn 0.2831027 0.8314661 -0.4780343
vn -0.02478042 0.8838417 -0.4671293
vn -0.9810075 -0.06049619 0.1842949
vn -0.02478042 0.8838417 -0.4671293
g rockPink_0
f 142/142/142 141/141/141 102/102/102
f 146/146/146 145/145/145 125/125/125
f 94/94/94 102/102/102 140/140/140
f 94/94/94 103/103/103 102/102/102
f 95/95/95 103/103/103 94/94/94
f 95/95/95 104/104/104 103/103/103
f 96/96/96 104/104/104 95/95/95
f 96/96/96 105/105/105 104/104/104
f 97/97/97 105/105/105 96/96/96
f 97/97/97 98/98/98 105/105/105
f 90/90/90 98/98/98 97/97/97
f 90/90/90 99/99/99 98/98/98
f 91/91/91 99/99/99 90/90/90
f 91/91/91 100/100/100 99/99/99
f 92/92/92 100/100/100 91/91/91
f 92/92/92 101/101/101 100/100/100
f 93/93/93 101/101/101 92/92/92
f 147/147/147 129/129/129 148/148/148
f 121/121/121 129/129/129 147/147/147
f 121/121/121 130/130/130 129/129/129
f 122/122/122 130/130/130 121/121/121
f 122/122/122 123/123/123 130/130/130
f 115/115/115 123/123/123 122/122/122
f 115/115/115 124/124/124 123/123/123
f 116/116/116 124/124/124 115/115/115
f 137/137/137 150/150/150 129/129/129
f 137/137/137 136/136/136 150/150/150
f 139/139/139 136/136/136 137/137/137
f 139/139/139 135/135/135 136/136/136
f 134/134/134 135/135/135 139/139/139
f 134/134/134 126/126/126 135/135/135
f 125/125/125 126/126/126 134/134/134
f 125/125/125 117/117/117 126/126/126
f 144/144/144 117/117/117 125/125/125
f 118/118/118 126/126/126 117/117/117
f 118/118/118 127/127/127 126/126/126
f 119/119/119 127/127/127 118/118/118
f 119/119/119 128/128/128 127/127/127
f 120/120/120 128/128/128 119/119/119
f 37/37/37 6/6/6 7/7/7
f 37/37/37 38/38/38 6/6/6
f 15/15/15 38/38/38 37/37/37
f 15/15/15 14/14/14 38/38/38
f 34/34/34 14/14/14 15/15/15
f 34/34/34 35/35/35 14/14/14
f 29/29/29 35/35/35 34/34/34
f 29/29/29 30/30/30 35/35/35
f 23/23/23 30/30/30 29/29/29
f 23/23/23 22/22/22 30/30/30
f 25/25/25 22/22/22 23/23/23
f 25/25/25 21/21/21 22/22/22
f 20/20/20 21/21/21 25/25/25
f 20/20/20 32/32/32 21/21/21
f 33/33/33 32/32/32 20/20/20
f 33/33/33 11/11/11 32/32/32
f 10/10/10 11/11/11 33/33/33
f 10/10/10 2/2/2 11/11/11
f 1/1/1 2/2/2 10/10/10
f 3/3/3 11/11/11 2/2/2
f 3/3/3 12/12/12 11/11/11
f 4/4/4 12/12/12 3/3/3
f 4/4/4 39/39/39 12/12/12
f 5/5/5 39/39/39 4/4/4
f 5/5/5 38/38/38 39/39/39
f 6/6/6 38/38/38 5/5/5
f 25/25/25 19/19/19 20/20/20
f 18/18/18 19/19/19 25/25/25
f 18/18/18 26/26/26 19/19/19
f 27/27/27 26/26/26 18/18/18
f 27/27/27 9/9/9 26/26/26
f 16/16/16 9/9/9 27/27/27
f 16/16/16 8/8/8 9/9/9
f 7/7/7 8/8/8 16/16/16
f 19/19/19 33/33/33 20/20/20
f 26/26/26 33/33/33 19/19/19
f 26/26/26 10/10/10 33/33/33
f 9/9/9 10/10/10 26/26/26
f 9/9/9 1/1/1 10/10/10
f 8/8/8 1/1/1 9/9/9
f 48/48/48 40/40/40 49/49/49
f 48/48/48 47/47/47 40/40/40
f 55/55/55 47/47/47 48/48/48
f 55/55/55 46/46/46 47/47/47
f 54/54/54 46/46/46 55/55/55
f 54/54/54 45/45/45 46/46/46
f 53/53/53 45/45/45 54/54/54
f 53/53/53 44/44/44 45/45/45
f 52/52/52 44/44/44 53/53/53
f 52/52/52 43/43/43 44/44/44
f 51/51/51 43/43/43 52/52/52
f 51/51/51 42/42/42 43/43/43
f 50/50/50 42/42/42 51/51/51
f 50/50/50 41/41/41 42/42/42
f 49/49/49 41/41/41 50/50/50
f 49/49/49 40/40/40 41/41/41
f 73/73/73 65/65/65 74/74/74
f 73/73/73 72/72/72 65/65/65
f 80/80/80 72/72/72 73/73/73
f 80/80/80 71/71/71 72/72/72
f 79/79/79 71/71/71 80/80/80
f 79/79/79 70/70/70 71/71/71
f 78/78/78 70/70/70 79/79/79
f 78/78/78 69/69/69 70/70/70
f 77/77/77 69/69/69 78/78/78
f 77/77/77 68/68/68 69/69/69
f 76/76/76 68/68/68 77/77/77
f 76/76/76 67/67/67 68/68/68
f 75/75/75 67/67/67 76/76/76
f 75/75/75 66/66/66 67/67/67
f 74/74/74 66/66/66 75/75/75
f 74/74/74 65/65/65 66/66/66
f 108/108/108 100/100/100 109/109/109
f 108/108/108 99/99/99 100/100/100
f 107/107/107 99/99/99 108/108/108
f 107/107/107 98/98/98 99/99/99
f 106/106/106 98/98/98 107/107/107
f 106/106/106 105/105/105 98/98/98
f 113/113/113 105/105/105 106/106/106
f 113/113/113 104/104/104 105/105/105
f 112/112/112 104/104/104 113/113/113
f 112/112/112 103/103/103 104/104/104
f 111/111/111 103/103/103 112/112/112
f 111/111/111 102/102/102 103/103/103
f 110/110/110 102/102/102 111/111/111
f 110/110/110 143/143/143 102/102/102
f 109/109/109 143/143/143 110/110/110
f 109/109/109 100/100/100 143/143/143
f 133/133/133 125/125/125 134/134/134
f 133/133/133 149/149/149 125/125/125
f 132/132/132 149/149/149 133/133/133
f 132/132/132 123/123/123 149/149/149
f 131/131/131 123/123/123 132/132/132
f 131/131/131 130/130/130 123/123/123
f 138/138/138 130/130/130 131/131/131
f 138/138/138 129/129/129 130/130/130
f 137/137/137 129/129/129 138/138/138
f 127/127/127 135/135/135 126/126/126
f 127/127/127 136/136/136 135/135/135
f 150/150/150 136/136/136 127/127/127
f 16/16/16 37/37/37 7/7/7
f 16/16/16 15/15/15 37/37/37
f 28/28/28 15/15/15 16/16/16
f 28/28/28 34/34/34 15/15/15
f 29/29/29 34/34/34 28/28/28
f 12/12/12 32/32/32 11/11/11
f 12/12/12 36/36/36 32/32/32
f 13/13/13 36/36/36 12/12/12
f 13/13/13 35/35/35 36/36/36
f 14/14/14 35/35/35 13/13/13
f 24/24/24 25/25/25 23/23/23
f 24/24/24 17/17/17 25/25/25
f 28/28/28 17/17/17 24/24/24
f 28/28/28 27/27/27 17/17/17
f 16/16/16 27/27/27 28/28/28
f 17/17/17 18/18/18 25/25/25
f 17/17/17 27/27/27 18/18/18
f 24/24/24 29/29/29 28/28/28
f 24/24/24 23/23/23 29/29/29
f 31/31/31 22/22/22 21/21/21
f 31/31/31 30/30/30 22/22/22
f 36/36/36 30/30/30 31/31/31
f 36/36/36 35/35/35 30/30/30
f 32/32/32 31/31/31 21/21/21
f 32/32/32 36/36/36 31/31/31
f 39/39/39 13/13/13 12/12/12
f 39/39/39 14/14/14 13/13/13
f 38/38/38 14/14/14 39/39/39
f 56/56/56 48/48/48 57/57/57
f 56/56/56 55/55/55 48/48/48
f 63/63/63 55/55/55 56/56/56
f 63/63/63 54/54/54 55/55/55
f 62/62/62 54/54/54 63/63/63
f 62/62/62 53/53/53 54/54/54
f 61/61/61 53/53/53 62/62/62
f 61/61/61 52/52/52 53/53/53
f 60/60/60 52/52/52 61/61/61
f 60/60/60 51/51/51 52/52/52
f 59/59/59 51/51/51 60/60/60
f 59/59/59 50/50/50 51/51/51
f 58/58/58 50/50/50 59/59/59
f 58/58/58 49/49/49 50/50/50
f 57/57/57 49/49/49 58/58/58
f 57/57/57 48/48/48 49/49/49
f 64/64/64 57/57/57 58/58/58
f 64/64/64 56/56/56 57/57/57
f 63/63/63 56/56/56 64/64/64
f 64/64/64 60/60/60 61/61/61
f 64/64/64 59/59/59 60/60/60
f 58/58/58 59/59/59 64/64/64
f 64/64/64 62/62/62 63/63/63
f 64/64/64 61/61/61 62/62/62
f 81/81/81 73/73/73 82/82/82
f 81/81/81 80/80/80 73/73/73
f 88/88/88 80/80/80 81/81/81
f 88/88/88 79/79/79 80/80/80
f 87/87/87 79/79/79 88/88/88
f 87/87/87 78/78/78 79/79/79
f 86/86/86 78/78/78 87/87/87
f 86/86/86 77/77/77 78/78/78
f 85/85/85 77/77/77 86/86/86
f 85/85/85 76/76/76 77/77/77
f 84/84/84 76/76/76 85/85/85
f 84/84/84 75/75/75 76/76/76
f 83/83/83 75/75/75 84/84/84
f 83/83/83 74/74/74 75/75/75
f 82/82/82 74/74/74 83/83/83
f 82/82/82 73/73/73 74/74/74
f 89/89/89 82/82/82 83/83/83
f 89/89/89 81/81/81 82/82/82
f 88/88/88 81/81/81 89/89/89
f 89/89/89 85/85/85 86/86/86
f 89/89/89 84/84/84 85/85/85
f 83/83/83 84/84/84 89/89/89
f 89/89/89 87/87/87 88/88/88
f 89/89/89 86/86/86 87/87/87
f 114/114/114 107/107/107 108/108/108
f 114/114/114 106/106/106 107/107/107
f 113/113/113 106/106/106 114/114/114
f 114/114/114 110/110/110 111/111/111
f 114/114/114 109/109/109 110/110/110
f 108/108/108 109/109/109 114/114/114
f 114/114/114 112/112/112 113/113/113
f 114/114/114 111/111/111 112/112/112
f 139/139/139 132/132/132 133/133/133
f 139/139/139 131/131/131 132/132/132
f 138/138/138 131/131/131 139/139/139
f 139/139/139 133/133/133 134/134/134
f 139/139/139 137/137/137 138/138/138
