g rockBlue
v 0.8873436 -0.07090639 0.6341166
v 1.236514 -0.07079773 -0.05351368
v 0.887809 -0.07081907 -0.7411439
v 0.04549393 -0.07095802 -1.02597
v -0.797014 -0.07113311 -0.7411439
v -1.146185 -0.07124179 -0.05351364
v -0.7974794 -0.07122044 0.6341166
v 0.04483574 -0.07108152 0.9189425
v 0.5925922 0.7263361 0.6362583
v 0.8611938 0.8557538 0.1134385
v 0.5931969 0.8303071 -0.4093812
v -0.05440994 0.6649023 -0.580809
v -0.7022671 0.4564312 -0.4093811
v -0.9708688 0.3270134 0.1134386
v -0.7028717 0.3524602 0.6362584
v -0.05526489 0.5178651 0.8528174
v 0.2111267 1.076636 0.5067856
v 0.3519229 1.169588 0.2356561
v 0.2115609 1.151311 -0.03547348
v -0.1277371 1.032512 -0.147779
v -0.467215 0.8827808 -0.03547348
v -0.6080112 0.7898287 0.2356561
v -0.4676492 0.8081053 0.5067857
v -0.1283512 0.9269047 0.6190912
v -0.1548397 1.121845 0.2803908
v 0.6872748 0.7293639 0.4410095
v 0.6408871 0.8814893 0.3025412
v 0.4423446 1.023837 0.2688995
v 0.2169622 1.06334 0.3480194
v 0.08638962 0.9834677 0.4881534
v 0.1181027 0.8406897 0.6189843
v 0.3039009 0.7120341 0.6692737
v 0.5439578 0.6631837 0.597791
v 0.6717517 0.8550543 0.5006412
v 0.6310117 0.9878591 0.3833485
v 0.4604236 1.109914 0.3534182
v 0.2666742 1.142459 0.4195544
v 0.1554769 1.071387 0.5389652
v 0.1852109 0.9455929 0.6505299
v 0.3462408 0.8338076 0.692946
v 0.5509962 0.794252 0.6325377
v 0.5762595 0.9833109 0.5482742
v 0.5534816 1.059808 0.4821759
v 0.4564188 1.128842 0.4634442
v 0.3441821 1.147554 0.500109
v 0.279924 1.106635 0.5693423
v 0.2990332 1.032475 0.6335312
v 0.3929099 0.966864 0.6564249
v 0.5088153 0.945815 0.6216694
v 0.4323071 1.07565 0.5727849
v -0.0537825 0.617372 0.7199212
v -0.1997211 0.7257754 0.6255404
v -0.4132165 0.6571573 0.5571158
v -0.5877497 0.4643116 0.5483625
v -0.6247654 0.2652588 0.6137982
v -0.4840367 0.1640033 0.7214589
v -0.2443166 0.2148048 0.7988878
v -0.06457359 0.4005027 0.7943614
v -0.133902 0.633374 0.7874841
v -0.2574345 0.7247969 0.7045637
v -0.441021 0.6645012 0.6458239
v -0.5910267 0.4972561 0.6408985
v -0.6223431 0.3248221 0.6997154
v -0.502718 0.23876 0.7925957
v -0.2994632 0.2856933 0.8580887
v -0.1455501 0.4475776 0.8530542
v -0.2638946 0.5940976 0.8231869
v -0.3336609 0.6453633 0.7739229
v -0.4408594 0.6113771 0.7396252
v -0.5273305 0.5151972 0.7387933
v -0.5433415 0.414428 0.774262
v -0.4748776 0.3649493 0.8268463
v -0.3611231 0.3944814 0.863395
v -0.2733496 0.4888743 0.860907
v -0.412328 0.5129467 0.8186791
v -0.05613441 0.6968181 -0.5332377
v 0.1047315 0.5427679 -0.6943555
v 0.07083053 0.2915587 -0.8178003
v -0.1332754 0.1075907 -0.8453599
v -0.3700835 0.09363662 -0.7865354
v -0.5134398 0.2406251 -0.6452662
v -0.4784814 0.4674456 -0.5133722
v -0.2922106 0.6584753 -0.4652981
v -0.09489387 0.6862146 -0.6170006
v 0.0412635 0.5537019 -0.7576993
v 0.01121887 0.3371735 -0.8664804
v -0.1635476 0.176403 -0.890825
v -0.3676797 0.1618223 -0.8348472
v -0.4906339 0.2890387 -0.7093911
v -0.4609949 0.4872756 -0.5923764
v -0.2996174 0.6533424 -0.5524089
v -0.1624218 0.594526 -0.7125309
v -0.08676651 0.5188726 -0.7920869
v -0.1037997 0.395927 -0.8573158
v -0.2025805 0.3020203 -0.8732511
v -0.3214032 0.2909135 -0.8357031
v -0.3926065 0.3648014 -0.7613828
v -0.3759405 0.4816499 -0.6930649
v -0.2816327 0.577322 -0.6718515
v -0.2453387 0.4490629 -0.7915642
vt 0.9198217 0.1162332
vt 0.9704181 0.5505219
vt 0.8764343 0.8926793
vt 0.5040922 0.955118
vt 0.1552313 0.8515113
vt 0.02849699 0.4398583
vt 0.1080763 0.08741171
vt 0.5385445 0.03754912
vt 0.7852201 0.2711403
vt 0.8396008 0.5539371
vt 0.7811095 0.8208527
vt 0.4839856 0.8419476
vt 0.2060075 0.7551141
vt 0.1310489 0.4435082
vt 0.2018871 0.1930551
vt 0.5262702 0.1351494
vt 0.6423375 0.3486932
vt 0.6997845 0.5294258
vt 0.6358691 0.673775
vt 0.4785953 0.7025643
vt 0.3150638 0.623623
vt 0.2781947 0.444948
vt 0.2886079 0.2923677
vt 0.5076149 0.2718095
vt 0.4565992 0.4717206
vt 0.8253057 0.4605936
vt 0.737335 0.5906918
vt 0.5070615 0.6054904
vt 0.3432415 0.4898927
vt 0.2954223 0.311671
vt 0.3858575 0.1680241
vt 0.6101375 0.1399397
vt 0.7843843 0.2454511
vt 0.7822586 0.440662
vt 0.6967833 0.5498172
vt 0.5374965 0.5557759
vt 0.4020243 0.4609537
vt 0.3619154 0.3228269
vt 0.4363472 0.2164022
vt 0.608865 0.2020905
vt 0.7360433 0.2941824
vt 0.6972262 0.4181716
vt 0.6488691 0.4802504
vt 0.5578984 0.4846842
vt 0.4790424 0.4308446
vt 0.4558912 0.3509138
vt 0.5005671 0.2897453
vt 0.5895026 0.2825272
vt 0.6720394 0.3354567
vt 0.5771608 0.3856739
vt 0.8709759 0.2269454
vt 0.8715155 0.4412534
vt 0.7023803 0.5991127
vt 0.4610509 0.6314924
vt 0.2758885 0.4462926
vt 0.2751866 0.2318731
vt 0.4594709 0.113917
vt 0.7009624 0.08164893
vt 0.8229152 0.2546777
vt 0.8235871 0.437628
vt 0.6772254 0.5726565
vt 0.4683696 0.598246
vt 0.3063868 0.4262937
vt 0.305593 0.2432597
vt 0.4665396 0.156422
vt 0.6755171 0.1309163
vt 0.7101519 0.3082175
vt 0.7106372 0.412733
vt 0.626032 0.4922016
vt 0.505498 0.5059318
vt 0.4196136 0.4093342
vt 0.4190878 0.3047906
vt 0.5042573 0.2535611
vt 0.6248317 0.2398589
vt 0.5626534 0.3764564
vt 0.4609528 0.685499
vt 0.4613311 0.8357149
vt 0.3427784 0.946364
vt 0.1736223 0.96906
vt 0.04383549 0.839247
vt 0.04334357 0.688953
vt 0.1725148 0.6062735
vt 0.3417845 0.5836557
vt 0.4272655 0.7049375
vt 0.4277364 0.8331738
vt 0.3251465 0.9278199
vt 0.1787522 0.9457565
vt 0.06521282 0.8252292
vt 0.06465647 0.6969343
vt 0.1774695 0.6360667
vt 0.3239491 0.6181889
vt 0.3482258 0.7424654
vt 0.3485659 0.815724
vt 0.2892632 0.8714262
vt 0.2047768 0.8810502
vt 0.1445775 0.8133416
vt 0.1442089 0.7400634
vt 0.2039072 0.7041549
vt 0.288422 0.6945505
vt 0.244839 0.7902964
vn 0.6150038 0.2214853 0.7567791
vn 0.9217389 0.3871916 0.02191091
vn 0.5501078 0.4693656 -0.6907079
vn -0.05403281 0.4960838 -0.8665918
vn -0.6023845 0.4957046 -0.6256275
vn -0.9356276 0.3508061 0.03919212
vn -0.6481706 0.1375032 0.7489778
vn -0.0127804 0.09846218 0.9950588
vn 0.4889327 0.4404026 0.7529876
vn 0.7574275 0.6495185 0.06655309
vn 0.3985626 0.6826757 -0.6124555
vn -0.1444415 0.6276708 -0.7649615
vn -0.6099246 0.5938776 -0.5246917
vn -0.8749973 0.4800953 0.06235481
vn -0.6413822 0.3196664 0.6974542
vn -0.08097725 0.29009 0.9535673
vn 0.1001969 0.8099635 0.5778579
vn 0.2246882 0.9658872 0.1287517
vn 0.01813504 0.9495586 -0.3130647
vn -0.3021603 0.847547 -0.4363065
vn -0.5730221 0.7736645 -0.2703495
vn -0.7031116 0.7041017 0.09937259
vn -0.5731995 0.6464655 0.5035123
vn -0.2416981 0.6656932 0.705999
vn -0.3564318 0.9237544 0.1401219
vn 0.9632716 -0.008837853 0.2683837
vn 0.8085983 0.3996786 -0.4317707
vn 0.2048994 0.6639123 -0.7191916
vn -0.4357531 0.7425088 -0.5087237
vn -0.8175409 0.5520318 0.1639747
vn -0.5834479 0.1256386 0.8023736
vn -0.04338131 -0.1784416 0.9829937
vn 0.522618 -0.2428462 0.8172491
vn 0.8900983 0.1972638 0.4108673
vn 0.8061323 0.5657132 -0.1735489
vn 0.30054 0.8387477 -0.4540685
vn -0.2885085 0.9257047 -0.2446094
vn -0.6048586 0.7067384 0.3669699
vn -0.4007064 0.2934498 0.8679411
vn 0.04456546 0.02196301 0.998765
vn 0.5213346 -0.02090595 0.8530962
vn 0.6368732 0.4962849 0.5899949
vn 0.6251717 0.7125111 0.3185724
vn 0.3870991 0.9050314 0.1762735
vn 0.06172226 0.948464 0.3108158
vn -0.1031946 0.7798775 0.617367
vn -0.02143764 0.5367224 0.8434865
vn 0.1987683 0.3798921 0.903423
vn 0.4537106 0.3648454 0.8130403
vn 0.321165 0.6773694 0.6618335
vn 0.5867748 0.5800879 0.5649719
vn 0.09301176 0.9924271 0.0802324
vn -0.5031052 0.8343074 -0.2254246
vn -0.8882228 0.4210988 -0.1836737
vn -0.9560789 -0.2302258 0.1814091
vn -0.4290301 -0.6704091 0.6053799
vn 0.1702784 -0.5521474 0.8161731
vn 0.5595521 -0.07985213 0.8249394
vn 0.3394071 0.568592 0.7493371
vn -0.06896868 0.9227872 0.3790873
vn -0.5629452 0.8203168 0.1008611
vn -0.8725123 0.4707792 0.1307262
vn -0.8943937 -0.04795946 0.4447019
vn -0.4665963 -0.4163043 0.7803709
vn 0.03242973 -0.3409639 0.9395169
vn 0.3420053 0.03974249 0.9388571
vn -0.08693234 0.4596002 0.8838611
vn -0.2815519 0.62455 0.7284682
vn -0.5203127 0.6104606 0.5971704
vn -0.6589801 0.447485 0.6045679
vn -0.6355926 0.2176261 0.7407165
vn -0.4423039 0.04598486 0.8956856
vn -0.2036476 0.05897742 0.9772663
vn -0.06307812 0.2298677 0.9711756
vn -0.3786218 0.3538528 0.8552389
vn 0.1576904 0.9677843 -0.1962836
vn 0.6318003 0.5664403 -0.5291253
vn 0.6051496 -0.06103163 -0.7937689
vn 0.1375348 -0.4898492 -0.8608902
vn -0.5308161 -0.4780682 -0.699775
vn -0.9373913 -0.03548212 -0.3464657
vn -0.8717064 0.4846924 -0.07211938
vn -0.4685975 0.8833044 -0.01377548
vn -0.003215079 0.9004488 -0.4349502
vn 0.3590943 0.6098583 -0.7064872
vn 0.3524348 0.1293566 -0.9268531
vn -0.004244674 -0.1941193 -0.9809687
vn -0.513526 -0.1671592 -0.8416346
vn -0.8193876 0.1603878 -0.5503451
vn -0.7720529 0.5433584 -0.3296908
vn -0.4668225 0.8362652 -0.287641
vn -0.2275292 0.6778026 -0.6991524
vn -0.08706397 0.5645662 -0.8207831
vn -0.08285527 0.3786138 -0.9218388
vn -0.213853 0.2614289 -0.9412341
vn -0.4045742 0.2792257 -0.8708345
vn -0.5331363 0.4012269 -0.7448373
vn -0.523807 0.549288 -0.6510828
vn -0.4042675 0.6580629 -0.6352329
vn -0.3295269 0.4943417 -0.804387
g rockBlue_0
f 9/9/9 1/1/1 10/10/10
f 9/9/9 8/8/8 1/1/1
f 16/16/16 8/8/8 9/9/9
f 16/16/16 7/7/7 8/8/8
f 15/15/15 7/7/7 16/16/16
f 15/15/15 6/6/6 7/7/7
f 14/14/14 6/6/6 15/15/15
f 14/14/14 5/5/5 6/6/6
f 13/13/13 5/5/5 14/14/14
f 13/13/13 4/4/4 5/5/5
f 12/12/12 4/4/4 13/13/13
f 12/12/12 3/3/3 4/4/4
f 11/11/11 3/3/3 12/12/12
f 11/11/11 2/2/2 3/3/3
f 10/10/10 2/2/2 11/11/11
f 10/10/10 1/1/1 2/2/2
f 34/34/34 26/26/26 35/35/35
f 34/34/34 33/33/33 26/26/26
f 41/41/41 33/33/33 34/34/34
f 41/41/41 32/32/32 33/33/33
f 40/40/40 32/32/32 41/41/41
f 40/40/40 31/31/31 32/32/32
f 39/39/39 31/31/31 40/40/40
f 39/39/39 30/30/30 31/31/31
f 38/38/38 30/30/30 39/39/39
f 38/38/38 29/29/29 30/30/30
f 37/37/37 29/29/29 38/38/38
f 37/37/37 28/28/28 29/29/29
f 36/36/36 28/28/28 37/37/37
f 36/36/36 27/27/27 28/28/28
f 35/35/35 27/27/27 36/36/36
f 35/35/35 26/26/26 27/27/27
f 59/59/59 51/51/51 60/60/60
f 59/59/59 58/58/58 51/51/51
f 66/66/66 58/58/58 59/59/59
f 66/66/66 57/57/57 58/58/58
f 65/65/65 57/57/57 66/66/66
f 65/65/65 56/56/56 57/57/57
f 64/64/64 56/56/56 65/65/65
f 64/64/64 55/55/55 56/56/56
f 63/63/63 55/55/55 64/64/64
f 63/63/63 54/54/54 55/55/55
f 62/62/62 54/54/54 63/63/63
f 62/62/62 53/53/53 54/54/54
f 61/61/61 53/53/53 62/62/62
f 61/61/61 52/52/52 53/53/53
f 60/60/60 52/52/52 61/61/61
f 60/60/60 51/51/51 52/52/52
f 84/84/84 76/76/76 85/85/85
f 84/84/84 83/83/83 76/76/76
f 91/91/91 83/83/83 84/84/84
f 91/91/91 82/82/82 83/83/83
f 90/90/90 82/82/82 91/91/91
f 90/90/90 81/81/81 82/82/82
f 89/89/89 81/81/81 90/90/90
f 89/89/89 80/80/80 81/81/81
f 88/88/88 80/80/80 89/89/89
f 88/88/88 79/79/79 80/80/80
f 87/87/87 79/79/79 88/88/88
f 87/87/87 78/78/78 79/79/79
f 86/86/86 78/78/78 87/87/87
f 86/86/86 77/77/77 78/78/78
f 85/85/85 77/77/77 86/86/86
f 85/85/85 76/76/76 77/77/77
f 17/17/17 9/9/9 18/18/18
f 17/17/17 16/16/16 9/9/9
f 24/24/24 16/16/16 17/17/17
f 24/24/24 15/15/15 16/16/16
f 23/23/23 15/15/15 24/24/24
f 23/23/23 14/14/14 15/15/15
f 22/22/22 14/14/14 23/23/23
f 22/22/22 13/13/13 14/14/14
f 21/21/21 13/13/13 22/22/22
f 21/21/21 12/12/12 13/13/13
f 20/20/20 12/12/12 21/21/21
f 20/20/20 11/11/11 12/12/12
f 19/19/19 11/11/11 20/20/20
f 19/19/19 10/10/10 11/11/11
f 18/18/18 10/10/10 19/19/19
f 18/18/18 9/9/9 10/10/10
f 25/25/25 18/18/18 19/19/19
f 25/25/25 17/17/17 18/18/18
f 24/24/24 17/17/17 25/25/25
f 25/25/25 21/21/21 22/22/22
f 25/25/25 20/20/20 21/21/21
f 19/19/19 20/20/20 25/25/25
f 25/25/25 23/23/23 24/24/24
f 25/25/25 22/22/22 23/23/23
f 42/42/42 34/34/34 43/43/43
f 42/42/42 41/41/41 34/34/34
f 49/49/49 41/41/41 42/42/42
f 49/49/49 40/40/40 41/41/41
f 48/48/48 40/40/40 49/49/49
f 48/48/48 39/39/39 40/40/40
f 47/47/47 39/39/39 48/48/48
f 47/47/47 38/38/38 39/39/39
f 46/46/46 38/38/38 47/47/47
f 46/46/46 37/37/37 38/38/38
f 45/45/45 37/37/37 46/46/46
f 45/45/45 36/36/36 37/37/37
f 44/44/44 36/36/36 45/45/45
f 44/44/44 35/35/35 36/36/36
f 43/43/43 35/35/35 44/44/44
f 43/43/43 34/34/34 35/35/35
f 50/50/50 43/43/43 44/44/44
f 50/50/50 42/42/42 43/43/43
f 49/49/49 42/42/42 50/50/50
f 50/50/50 46/46/46 47/47/47
f 50/50/50 45/45/45 46/46/46
f 44/44/44 45/45/45 50/50/50
f 50/50/50 48/48/48 49/49/49
f 50/50/50 47/47/47 48/48/48
f 67/67/67 59/59/59 68/68/68
f 67/67/67 66/66/66 59/59/59
f 74/74/74 66/66/66 67/67/67
f 74/74/74 65/65/65 66/66/66
f 73/73/73 65/65/65 74/74/74
f 73/73/73 64/64/64 65/65/65
f 72/72/72 64/64/64 73/73/73
f 72/72/72 63/63/63 64/64/64
f 71/71/71 63/63/63 72/72/72
f 71/71/71 62/62/62 63/63/63
f 70/70/70 62/62/62 71/71/71
f 70/70/70 61/61/61 62/62/62
f 69/69/69 61/61/61 70/70/70
f 69/69/69 60/60/60 61/61/61
f 68/68/68 60/60/60 69/69/69
f 68/68/68 59/59/59 60/60/60
f 75/75/75 68/68/68 69/69/69
f 75/75/75 67/67/67 68/68/68
f 74/74/74 67/67/67 75/75/75
f 75/75/75 71/71/71 72/72/72
f 75/75/75 70/70/70 71/71/71
f 69/69/69 70/70/70 75/75/75
f 75/75/75 73/73/73 74/74/74
f 75/75/75 72/72/72 73/73/73
f 92/92/92 84/84/84 93/93/93
f 92/92/92 91/91/91 84/84/84
f 99/99/99 91/91/91 92/92/92
f 99/99/99 90/90/90 91/91/91
f 98/98/98 90/90/90 99/99/99
f 98/98/98 89/89/89 90/90/90
f 97/97/97 89/89/89 98/98/98
f 97/97/97 88/88/88 89/89/89
f 96/96/96 88/88/88 97/97/97
f 96/96/96 87/87/87 88/88/88
f 95/95/95 87/87/87 96/96/96
f 95/95/95 86/86/86 87/87/87
f 94/94/94 86/86/86 95/95/95
f 94/94/94 85/85/85 86/86/86
f 93/93/93 85/85/85 94/94/94
f 93/93/93 84/84/84 85/85/85
f 100/100/100 93/93/93 94/94/94
f 100/100/100 92/92/92 93/93/93
f 99/99/99 92/92/92 100/100/100
f 100/100/100 96/96/96 97/97/97
f 100/100/100 95/95/95 96/96/96
f 94/94/94 95/95/95 100/100/100
f 100/100/100 98/98/98 99/99/99
f 100/100/100 97/97/97 98/98/98
