g TheBeanBody
v -0.08499775 1.366351 -0.9434505
v -1.383381E-07 1.414004 -0.9161708
v -1.620036E-07 1.30519 -1.072902
v -0.1642034 1.336179 -0.7747376
v -1.093702E-07 1.417341 -0.7243267
v -0.2113986 1.294367 -0.626303
v -8.961272E-08 1.37822 -0.5934791
v -0.2710964 1.275917 -0.495809
v -7.520239E-08 1.348521 -0.4980432
v -0.3023689 1.319488 -0.3716152
v -6.214232E-08 1.413327 -0.4115501
v -0.2494913 1.41639 -0.2918853
v -5.333207E-08 1.489454 -0.3532023
v -0.1930234 1.646743 -0.2243663
v -4.125407E-08 1.646743 -0.2732142
v -0.1644311 1.75192 -0.1535662
v -3.262091E-08 1.75192 -0.2160395
v -0.1287512 1.942853 -0.1747281
v -3.25118E-08 1.942853 -0.215315
v -0.09571451 2.088261 -0.1777277
v -3.137367E-08 2.085548 -0.2077782
v -0.06528389 2.179347 -0.1732788
v -2.919694E-08 2.174855 -0.1933627
v -1.425275E-08 2.253164 -0.09439168
v -0.1472205 1.295626 -0.9835195
v -0.2844083 1.205213 -0.8458353
v -0.3807165 1.115284 -0.6869704
v -0.4695535 1.049173 -0.4833914
v -0.5237195 1.128891 -0.2759623
v -0.4273814 1.33909 -0.1851312
v -0.334326 1.653052 -0.1618485
v -0.2848027 1.75192 -0.07331324
v -0.2230029 1.942853 -0.06384341
v -0.1657825 2.09567 -0.09878355
v -0.113075 2.191616 -0.1278746
v -0.1699961 1.237168 -1.041407
v -0.3284068 1.059311 -0.9389578
v -0.439613 0.9438041 -0.7615398
v -0.5421935 0.8192018 -0.484504
v -0.6047384 0.9106784 -0.1592952
v -0.422215 1.224031 0.02548347
v -0.3860475 1.656603 -0.1087859
v -0.3420161 1.75192 0.02208605
v -0.257502 1.942853 0.06554236
v -0.1914293 2.10579 0.007055724
v -0.1305678 2.20838 -0.0529212
v -0.1472208 1.175556 -1.102449
v -0.2844086 0.916558 -1.035235
v -0.3807165 0.7250217 -0.8487247
v -0.4695535 0.5103876 -0.4666945
v -0.5237195 0.6609314 -0.004784171
v -0.38303 1.088822 0.3496879
v -0.2848027 1.75192 0.2563112
v -0.2230029 1.942853 0.2296345
v -0.1657825 2.115912 0.1192051
v -0.113075 2.225137 0.0220321
v -0.08499806 1.130061 -1.14567
v -0.1642037 0.8139745 -1.112642
v -0.2154025 0.5648584 -0.9125468
v -0.2710961 0.3624865 -0.4637379
v -0.3023689 0.4703308 0.1602471
v -0.2028831 0.9925995 0.5258226
v -0.1820119 1.634673 0.4369918
v -0.1644311 1.75192 0.4343735
v -0.3172236 1.631774 0.2557878
v -0.1287512 1.942853 0.3405195
v -0.09571451 2.123319 0.2013045
v -0.06528389 2.237409 0.07690196
v -1.761582E-07 1.117098 -1.166643
v -1.722827E-07 0.7706563 -1.140976
v -1.413181E-07 0.5062362 -0.9359066
v -6.944898E-08 0.289735 -0.4599401
v 3.347801E-08 0.378464 0.2217143
v 8.913144E-08 0.9573798 0.5902909
v -0.1966612 1.564773 0.5359694
v 9.29579E-08 1.554495 0.6156319
v 7.757617E-08 1.636627 0.5137648
v 7.263993E-08 1.75192 0.4810719
v 5.754563E-08 1.942853 0.3811067
v 3.493343E-08 2.126032 0.2313545
v 1.466405E-08 2.241764 0.09711567
v -0.3403214 1.590114 0.3258403
v 0.08499775 1.366351 -0.9434505
v 0.1642034 1.336179 -0.7747376
v 0.2113986 1.294367 -0.626303
v 0.2710964 1.275917 -0.495809
v 0.3023689 1.319488 -0.3716152
v 0.2494913 1.41639 -0.2918853
v 0.1930234 1.646743 -0.2243663
v 0.1644311 1.75192 -0.1535662
v 0.1287512 1.942853 -0.1747281
v 0.09571451 2.088261 -0.1777277
v 0.06528389 2.179347 -0.1732788
v 0.1472205 1.295626 -0.9835195
v 0.2844083 1.205213 -0.8458353
v 0.3807165 1.115284 -0.6869704
v 0.4695535 1.049173 -0.4833914
v 0.5237195 1.128891 -0.2759623
v 0.4273814 1.33909 -0.1851312
v 0.334326 1.653052 -0.1618485
v 0.2848027 1.75192 -0.07331324
v 0.2230029 1.942853 -0.06384341
v 0.1657825 2.09567 -0.09878355
v 0.113075 2.191616 -0.1278746
v 0.1699955 1.237168 -1.041407
v 0.3284068 1.059311 -0.9389578
v 0.439613 0.9438041 -0.7615398
v 0.5421935 0.8192018 -0.484504
v 0.6047384 0.9106784 -0.1592952
v 0.422215 1.224031 0.02548335
v 0.3860475 1.656603 -0.1087859
v 0.3420161 1.75192 0.02208593
v 0.257502 1.942853 0.06554236
v 0.1914293 2.10579 0.007055663
v 0.1305678 2.20838 -0.0529212
v 0.1472199 1.175556 -1.102449
v 0.2844079 0.916558 -1.035235
v 0.3807165 0.7250217 -0.8487247
v 0.4695535 0.5103876 -0.4666945
v 0.5237195 0.6609314 -0.004784354
v 0.38303 1.088822 0.3496879
v 0.2230029 1.942853 0.2296345
v 0.2848027 1.75192 0.2563112
v 0.1657825 2.115912 0.1192051
v 0.113075 2.225137 0.02203204
v 0.08499745 1.130061 -1.14567
v 0.1642031 0.8139745 -1.112642
v 0.2154025 0.5648584 -0.9125468
v 0.2710961 0.3624865 -0.4637379
v 0.3023689 0.4703308 0.1602471
v 0.2028831 0.9925995 0.5258226
v 0.1820119 1.634673 0.4369918
v 0.1644311 1.75192 0.4343735
v 0.3172236 1.631774 0.2557878
v 0.1287512 1.942853 0.3405195
v 0.09571451 2.123319 0.2013045
v 0.06528389 2.237409 0.07690196
v 0.1966612 1.564773 0.5359694
v 0.3403214 1.590114 0.3258403
v -1.620036E-07 1.30519 -1.072902
v -1.425275E-08 2.253164 -0.09439168
v -1.620036E-07 1.30519 -1.072902
v -0.3420161 1.75192 0.02208605
v -1.425275E-08 2.253164 -0.09439168
v -1.620036E-07 1.30519 -1.072902
v -0.3420161 1.75192 0.02208605
v -1.620036E-07 1.30519 -1.072902
v -1.425275E-08 2.253164 -0.09439168
v -1.620036E-07 1.30519 -1.072902
v -1.425275E-08 2.253164 -0.09439168
v -0.3172236 1.631774 0.2557878
v -0.2848027 1.75192 0.2563112
v -1.620036E-07 1.30519 -1.072902
v -1.425275E-08 2.253164 -0.09439168
v -1.620036E-07 1.30519 -1.072902
v -1.425275E-08 2.253164 -0.09439168
v -1.620036E-07 1.30519 -1.072902
v 0.3420161 1.75192 0.02208593
v -1.425275E-08 2.253164 -0.09439168
v -1.620036E-07 1.30519 -1.072902
v 0.3420161 1.75192 0.02208593
v -1.620036E-07 1.30519 -1.072902
v -1.425275E-08 2.253164 -0.09439168
v -1.761582E-07 1.117098 -1.166643
v -1.620036E-07 1.30519 -1.072902
v -1.722827E-07 0.7706563 -1.140976
v -1.413181E-07 0.5062362 -0.9359066
v -6.944898E-08 0.289735 -0.4599401
v 3.347801E-08 0.378464 0.2217143
v 8.913144E-08 0.9573798 0.5902909
v 9.29579E-08 1.554495 0.6156319
v 7.757617E-08 1.636627 0.5137648
v 7.263993E-08 1.75192 0.4810719
v 5.754563E-08 1.942853 0.3811067
v 3.493343E-08 2.126032 0.2313545
v 1.466405E-08 2.241764 0.09711567
v -1.425275E-08 2.253164 -0.09439168
v 0.3172236 1.631774 0.2557878
v 0.2848027 1.75192 0.2563112
vt 0.58226 0.0939055
vt 0.5 0.0939055
vt 0.5 0.00624949
vt 0.58226 0.174327
vt 0.5 0.174327
vt 0.58226 0.25334
vt 0.5 0.25334
vt 0.58226 0.330782
vt 0.5 0.330782
vt 0.58226 0.406912
vt 0.5 0.406912
vt 0.58226 0.482302
vt 0.5 0.482302
vt 0.58226 0.54524
vt 0.5 0.54524
vt 0.58226 0.607859
vt 0.5 0.607859
vt 0.58226 0.683359
vt 0.5 0.683359
vt 0.58226 0.776125
vt 0.5 0.776125
vt 0.58226 0.859809
vt 0.5 0.859809
vt 0.5 0.993751
vt 0.664373 0.0939055
vt 0.664373 0.174327
vt 0.664373 0.25334
vt 0.664373 0.330782
vt 0.664373 0.406912
vt 0.664373 0.482302
vt 0.664373 0.54524
vt 0.664373 0.607859
vt 0.664373 0.683359
vt 0.664373 0.776125
vt 0.664373 0.859809
vt 0.74681 0.0939055
vt 0.74681 0.174327
vt 0.74681 0.25334
vt 0.74681 0.330782
vt 0.74681 0.406912
vt 0.74681 0.482302
vt 0.74681 0.54524
vt 0.74681 0.607859
vt 0.74681 0.683359
vt 0.74681 0.776125
vt 0.74681 0.859809
vt 0.829149 0.0939055
vt 0.829149 0.174327
vt 0.829149 0.25334
vt 0.829149 0.330782
vt 0.829149 0.406912
vt 0.829149 0.482302
vt 0.829149 0.607859
vt 0.829149 0.683359
vt 0.829149 0.776125
vt 0.829149 0.859809
vt 0.912415 0.0939055
vt 0.912415 0.174327
vt 0.912415 0.25334
vt 0.912415 0.330782
vt 0.912415 0.406912
vt 0.912415 0.482302
vt 0.912415 0.54524
vt 0.912415 0.607859
vt 0.829149 0.54524
vt 0.912415 0.683359
vt 0.912415 0.776125
vt 0.912415 0.859809
vt 0.993751 0.0939055
vt 0.993751 0.174327
vt 0.993751 0.25334
vt 0.993751 0.330782
vt 0.993751 0.406912
vt 0.993751 0.482302
vt 0.912415 0.54524
vt 0.993751 0.54524
vt 0.993751 0.54524
vt 0.993751 0.607859
vt 0.993751 0.683359
vt 0.993751 0.776125
vt 0.993751 0.859809
vt 0.829149 0.54524
vt 0.41783 0.0939055
vt 0.41783 0.174327
vt 0.41783 0.25334
vt 0.41783 0.330782
vt 0.41783 0.406912
vt 0.41783 0.482302
vt 0.41783 0.54524
vt 0.41783 0.607859
vt 0.41783 0.683359
vt 0.41783 0.776125
vt 0.41783 0.859809
vt 0.335627 0.0939055
vt 0.335627 0.174327
vt 0.335627 0.25334
vt 0.335627 0.330782
vt 0.335627 0.406912
vt 0.335627 0.482302
vt 0.335627 0.54524
vt 0.335627 0.607859
vt 0.335627 0.683359
vt 0.335627 0.776125
vt 0.335627 0.859809
vt 0.25319 0.0939055
vt 0.25319 0.174327
vt 0.25319 0.25334
vt 0.25319 0.330782
vt 0.25319 0.406912
vt 0.25319 0.482302
vt 0.25319 0.54524
vt 0.25319 0.607859
vt 0.25319 0.683359
vt 0.25319 0.776125
vt 0.25319 0.859809
vt 0.170887 0.0939055
vt 0.170887 0.174327
vt 0.170887 0.25334
vt 0.170887 0.330782
vt 0.170887 0.406912
vt 0.170887 0.482302
vt 0.170887 0.683359
vt 0.170887 0.607859
vt 0.170887 0.776125
vt 0.170887 0.859809
vt 0.0874839 0.0939055
vt 0.0874839 0.174327
vt 0.0874839 0.25334
vt 0.0874839 0.330782
vt 0.0874839 0.406912
vt 0.0874839 0.482302
vt 0.0874839 0.54524
vt 0.0874839 0.607859
vt 0.170887 0.54524
vt 0.0874839 0.683359
vt 0.0874839 0.776125
vt 0.0874839 0.859809
vt 0.0874839 0.54524
vt 0.170887 0.54524
vt 0.5 0.00624949
vt 0.5 0.993751
vt 0.5 0.00624949
vt 0.74681 0.607859
vt 0.5 0.993751
vt 0.5 0.00624949
vt 0.74681 0.607859
vt 0.5 0.00624949
vt 0.5 0.993751
vt 0.5 0.00624949
vt 0.5 0.993751
vt 0.829149 0.54524
vt 0.829149 0.607859
vt 0.5 0.00624949
vt 0.5 0.993751
vt 0.5 0.00624949
vt 0.5 0.993751
vt 0.5 0.00624949
vt 0.25319 0.607859
vt 0.5 0.993751
vt 0.5 0.00624949
vt 0.25319 0.607859
vt 0.5 0.00624949
vt 0.5 0.993751
vt 0.00624949 0.0939055
vt 0.5 0.00624949
vt 0.00624949 0.174327
vt 0.00624949 0.25334
vt 0.00624949 0.330782
vt 0.00624949 0.406912
vt 0.00624949 0.482302
vt 0.00624949 0.54524
vt 0.00624949 0.54524
vt 0.00624949 0.607859
vt 0.00624949 0.683359
vt 0.00624949 0.776125
vt 0.00624949 0.859809
vt 0.5 0.993751
vt 0.170887 0.54524
vt 0.170887 0.607859
vn -0.5717356 0.7800627 -0.2542058
vn -0.04629406 0.9700725 -0.2383611
vn -0.1182646 0.6597624 -0.74211
vn -0.601835 0.7978832 0.03430902
vn 0.004808563 0.99203 0.1259097
vn -0.5854848 0.8101442 0.02956027
vn 0.003593663 0.9833746 0.1815533
vn -0.549643 0.8057724 -0.2205072
vn -0.01111094 0.9677641 -0.2516131
vn -0.4956101 0.692197 -0.5246272
vn -0.008215649 0.7165128 -0.6975255
vn -0.4302988 0.4848298 -0.7614349
vn -0.004396205 0.4699932 -0.8826591
vn -0.3068839 0.5046288 -0.8069524
vn -0.001198529 0.5063198 -0.862345
vn -0.4631549 0.3284453 -0.8231714
vn -0.003591879 0.1500623 -0.98867
vn -0.55784 0.06588658 -0.8273292
vn -0.004279844 0.033543 -0.9994281
vn -0.5163931 0.1456185 -0.8438801
vn -0.003781957 0.1188318 -0.9929072
vn -0.3537849 0.4609508 -0.8138554
vn -0.001043524 0.5095063 -0.8604664
vn 0.004082924 0.9627555 -0.2703424
vn -0.6876648 0.6486192 -0.3262059
vn -0.8046229 0.5782925 -0.1347579
vn -0.8357506 0.5393787 -0.1029145
vn -0.8440773 0.4652403 -0.2666174
vn -0.8629131 0.4477561 -0.2342974
vn -0.8285783 0.3768713 -0.4140362
vn -0.5082185 0.5282725 -0.680178
vn -0.6328151 0.5226106 -0.5713346
vn -0.8399398 0.2306981 -0.4912021
vn -0.840543 0.2686698 -0.4704297
vn -0.6338958 0.551591 -0.542147
vn -0.7242594 0.4884056 -0.4867323
vn -0.8977907 0.2869925 -0.3340767
vn -0.944234 0.1391215 -0.2984415
vn -0.975784 0.0298949 -0.2166838
vn -0.9867496 0.1605646 0.023328
vn -0.9505428 0.2649288 0.1621147
vn -0.948019 0.2952034 -0.1188053
vn -0.8288472 0.5477732 -0.1138287
vn -0.9173964 0.3922373 -0.06733407
vn -0.9041423 0.4230626 -0.05953737
vn -0.7163891 0.6721271 -0.1871683
vn -0.6307423 0.2864027 -0.7212058
vn -0.8164878 -0.04496 -0.5756094
vn -0.8177317 -0.3339166 -0.4688439
vn -0.8360116 -0.5167937 -0.1844146
vn -0.8891723 -0.3374621 0.3090176
vn -0.9110059 0.07267118 0.4059397
vn -0.8110058 0.2878476 0.5093263
vn -0.8098277 0.4353997 0.3931999
vn -0.7661028 0.5567704 0.3210813
vn -0.6168575 0.7798699 0.1062538
vn -0.4231414 0.1637172 -0.8911498
vn -0.5354053 -0.279871 -0.7968773
vn -0.5050239 -0.6558005 -0.5611386
vn -0.4598775 -0.8734514 -0.1599857
vn -0.544361 -0.6713982 0.5028872
vn -0.6160211 -0.1235918 0.7779737
vn -0.6848054 0.1517023 0.7127609
vn -0.4791922 0.3201539 0.817237
vn -0.7815262 0.2150219 0.585647
vn -0.4943761 0.5173483 0.6985292
vn -0.4427716 0.662917 0.6037335
vn -0.3801963 0.8647165 0.3282014
vn -0.1477048 0.1907839 -0.970456
vn -0.1323679 -0.259557 -0.9566132
vn -0.03493605 -0.7231927 -0.6897621
vn 0.008872721 -0.9690072 -0.2468733
vn 0.009858149 -0.9034868 0.4285024
vn 0.003467757 -0.2022739 0.9793228
vn -0.5133087 0.0659894 0.8556633
vn 0.00443908 0.06603127 0.9978077
vn 0.005402712 0.1843235 0.9828508
vn 0.006192423 0.3726626 0.9279462
vn 0.006701876 0.5306216 0.8475823
vn 0.007012893 0.6808072 0.7324291
vn 0.006946438 0.8837483 0.4679109
vn -0.8591118 0.1002614 0.501871
vn 0.4517913 0.7931695 -0.408371
vn 0.5696092 0.812895 -0.1214376
vn 0.5765679 0.8155165 -0.05002226
vn 0.5159399 0.8312859 -0.206809
vn 0.4602599 0.7328739 -0.5010555
vn 0.4138424 0.4928128 -0.7654215
vn 0.2871281 0.5134497 -0.8086573
vn 0.4593641 0.3233759 -0.8272923
vn 0.5511172 0.05979286 -0.8322828
vn 0.5104024 0.1399763 -0.8484669
vn 0.3515449 0.457076 -0.8170053
vn 0.5452192 0.661212 -0.5153006
vn 0.7253574 0.5976825 -0.3415147
vn 0.806401 0.5531171 -0.209234
vn 0.8391553 0.458128 -0.29315
vn 0.8467103 0.4840493 -0.2208574
vn 0.8076997 0.405823 -0.4277019
vn 0.3979422 0.5736194 -0.7159628
vn 0.6199275 0.5340348 -0.5748885
vn 0.838003 0.2214779 -0.4986969
vn 0.8392087 0.2594396 -0.4779329
vn 0.6350504 0.5446188 -0.547815
vn 0.5394499 0.5021756 -0.6758798
vn 0.7686741 0.3110895 -0.5588948
vn 0.9054658 0.1722194 -0.3879074
vn 0.9727237 0.04186292 -0.2281577
vn 0.9860442 0.1626687 0.03543591
vn 0.9410005 0.2816884 0.1875361
vn 0.924597 0.3619876 -0.1186819
vn 0.7579017 0.6421327 -0.115112
vn 0.9210132 0.3821353 -0.07554577
vn 0.908169 0.4131041 -0.06763235
vn 0.7220315 0.6642228 -0.1935936
vn 0.3870636 0.3013926 -0.8714035
vn 0.6441836 -0.008222177 -0.7648267
vn 0.7854117 -0.295654 -0.5437988
vn 0.8492541 -0.4948113 -0.1841985
vn 0.893658 -0.3141367 0.3204582
vn 0.8922789 0.1039824 0.4393472
vn 0.818044 0.4264545 0.385928
vn 0.8186375 0.278893 0.5020471
vn 0.7750128 0.5483023 0.3141972
vn 0.6263151 0.7730388 0.100699
vn 0.1443602 0.1743647 -0.9740416
vn 0.3327502 -0.2476224 -0.9099234
vn 0.4786347 -0.6332294 -0.6082182
vn 0.4771056 -0.8638679 -0.1615627
vn 0.5591055 -0.6537929 0.5098586
vn 0.6052758 -0.09851512 0.7898962
vn 0.6927703 0.1441325 0.7066081
vn 0.4899626 0.3148287 0.8129081
vn 0.7890425 0.2063919 0.5786315
vn 0.5062525 0.5118503 0.6940589
vn 0.4554058 0.6579812 0.5997219
vn 0.3925931 0.8604702 0.3247487
vn 0.5136158 0.08390998 0.8539074
vn 0.8303735 0.146114 0.5377087
vn -0.1182646 0.6597624 -0.74211
vn 0.004082924 0.9627555 -0.2703424
vn -0.1182646 0.6597624 -0.74211
vn -0.7676845 0.4479775 -0.4582322
vn 0.004082924 0.9627555 -0.2703424
vn -0.1182646 0.6597624 -0.74211
vn -0.9126145 0.3499391 0.2113704
vn -0.1182646 0.6597624 -0.74211
vn 0.004082924 0.9627555 -0.2703424
vn -0.1182646 0.6597624 -0.74211
vn 0.004082924 0.9627555 -0.2703424
vn -0.9513248 0.2204935 0.2153225
vn -0.9374893 0.2583229 0.2332019
vn -0.1182646 0.6597624 -0.74211
vn 0.004082924 0.9627555 -0.2703424
vn -0.1182646 0.6597624 -0.74211
vn 0.004082924 0.9627555 -0.2703424
vn -0.1182646 0.6597624 -0.74211
vn 0.7684365 0.439537 -0.4650941
vn 0.004082924 0.9627555 -0.2703424
vn -0.1182646 0.6597624 -0.74211
vn 0.9182569 0.3398784 0.2031921
vn -0.1182646 0.6597624 -0.74211
vn 0.004082924 0.9627555 -0.2703424
vn -0.1477048 0.1907839 -0.970456
vn -0.1182646 0.6597624 -0.74211
vn -0.1323679 -0.259557 -0.9566132
vn -0.03493605 -0.7231927 -0.6897621
vn 0.008872721 -0.9690072 -0.2468733
vn 0.009858149 -0.9034868 0.4285024
vn 0.003467757 -0.2022739 0.9793228
vn 0.00443908 0.06603127 0.9978077
vn 0.005402712 0.1843235 0.9828508
vn 0.006192423 0.3726626 0.9279462
vn 0.006701876 0.5306216 0.8475823
vn 0.007012893 0.6808072 0.7324291
vn 0.006946438 0.8837483 0.4679109
vn 0.004082924 0.9627555 -0.2703424
vn 0.9514777 0.2223813 0.212689
vn 0.9423171 0.2479936 0.2248058
g TheBeanBody_0
f 23/23/23 22/22/22 24/24/24
f 21/21/21 22/22/22 23/23/23
f 21/21/21 20/20/20 22/22/22
f 19/19/19 20/20/20 21/21/21
f 19/19/19 18/18/18 20/20/20
f 17/17/17 18/18/18 19/19/19
f 17/17/17 16/16/16 18/18/18
f 15/15/15 16/16/16 17/17/17
f 15/15/15 14/14/14 16/16/16
f 13/13/13 14/14/14 15/15/15
f 13/13/13 12/12/12 14/14/14
f 11/11/11 12/12/12 13/13/13
f 11/11/11 10/10/10 12/12/12
f 9/9/9 10/10/10 11/11/11
f 9/9/9 8/8/8 10/10/10
f 7/7/7 8/8/8 9/9/9
f 7/7/7 6/6/6 8/8/8
f 5/5/5 6/6/6 7/7/7
f 5/5/5 4/4/4 6/6/6
f 2/2/2 4/4/4 5/5/5
f 2/2/2 1/1/1 4/4/4
f 3/3/3 1/1/1 2/2/2
f 22/22/22 35/35/35 141/141/141
f 20/20/20 35/35/35 22/22/22
f 20/20/20 34/34/34 35/35/35
f 18/18/18 34/34/34 20/20/20
f 18/18/18 33/33/33 34/34/34
f 16/16/16 33/33/33 18/18/18
f 16/16/16 32/32/32 33/33/33
f 14/14/14 32/32/32 16/16/16
f 14/14/14 31/31/31 32/32/32
f 12/12/12 31/31/31 14/14/14
f 12/12/12 30/30/30 31/31/31
f 10/10/10 30/30/30 12/12/12
f 10/10/10 29/29/29 30/30/30
f 8/8/8 29/29/29 10/10/10
f 8/8/8 28/28/28 29/29/29
f 6/6/6 28/28/28 8/8/8
f 6/6/6 27/27/27 28/28/28
f 4/4/4 27/27/27 6/6/6
f 4/4/4 26/26/26 27/27/27
f 1/1/1 26/26/26 4/4/4
f 1/1/1 25/25/25 26/26/26
f 140/140/140 25/25/25 1/1/1
f 31/31/31 43/43/43 32/32/32
f 31/31/31 42/42/42 43/43/43
f 30/30/30 42/42/42 31/31/31
f 30/30/30 41/41/41 42/42/42
f 29/29/29 41/41/41 30/30/30
f 29/29/29 40/40/40 41/41/41
f 28/28/28 40/40/40 29/29/29
f 28/28/28 39/39/39 40/40/40
f 27/27/27 39/39/39 28/28/28
f 27/27/27 38/38/38 39/39/39
f 26/26/26 38/38/38 27/27/27
f 26/26/26 37/37/37 38/38/38
f 25/25/25 37/37/37 26/26/26
f 25/25/25 36/36/36 37/37/37
f 142/142/142 36/36/36 25/25/25
f 44/44/44 32/32/32 143/143/143
f 44/44/44 33/33/33 32/32/32
f 45/45/45 33/33/33 44/44/44
f 45/45/45 34/34/34 33/33/33
f 46/46/46 34/34/34 45/45/45
f 46/46/46 35/35/35 34/34/34
f 144/144/144 35/35/35 46/46/46
f 41/41/41 52/52/52 42/42/42
f 40/40/40 52/52/52 41/41/41
f 40/40/40 51/51/51 52/52/52
f 39/39/39 51/51/51 40/40/40
f 39/39/39 50/50/50 51/51/51
f 38/38/38 50/50/50 39/39/39
f 38/38/38 49/49/49 50/50/50
f 37/37/37 49/49/49 38/38/38
f 37/37/37 48/48/48 49/49/49
f 36/36/36 48/48/48 37/37/37
f 36/36/36 47/47/47 48/48/48
f 145/145/145 47/47/47 36/36/36
f 52/52/52 82/82/82 42/42/42
f 52/52/52 62/62/62 82/82/82
f 51/51/51 62/62/62 52/52/52
f 51/51/51 61/61/61 62/62/62
f 50/50/50 61/61/61 51/51/51
f 50/50/50 60/60/60 61/61/61
f 49/49/49 60/60/60 50/50/50
f 49/49/49 59/59/59 60/60/60
f 48/48/48 59/59/59 49/49/49
f 48/48/48 58/58/58 59/59/59
f 47/47/47 58/58/58 48/48/48
f 47/47/47 57/57/57 58/58/58
f 147/147/147 57/57/57 47/47/47
f 66/66/66 79/79/79 80/80/80
f 66/66/66 64/64/64 79/79/79
f 53/53/53 64/64/64 66/66/66
f 53/53/53 63/63/63 64/64/64
f 65/65/65 63/63/63 53/53/53
f 66/66/66 54/54/54 53/53/53
f 67/67/67 54/54/54 66/66/66
f 67/67/67 55/55/55 54/54/54
f 68/68/68 55/55/55 67/67/67
f 68/68/68 56/56/56 55/55/55
f 148/148/148 56/56/56 68/68/68
f 62/62/62 75/75/75 82/82/82
f 62/62/62 74/74/74 75/75/75
f 61/61/61 74/74/74 62/62/62
f 61/61/61 73/73/73 74/74/74
f 60/60/60 73/73/73 61/61/61
f 60/60/60 72/72/72 73/73/73
f 59/59/59 72/72/72 60/60/60
f 59/59/59 71/71/71 72/72/72
f 58/58/58 71/71/71 59/59/59
f 58/58/58 70/70/70 71/71/71
f 57/57/57 70/70/70 58/58/58
f 57/57/57 69/69/69 70/70/70
f 149/149/149 69/69/69 57/57/57
f 76/76/76 75/75/75 74/74/74
f 80/80/80 67/67/67 66/66/66
f 81/81/81 67/67/67 80/80/80
f 81/81/81 68/68/68 67/67/67
f 150/150/150 68/68/68 81/81/81
f 43/43/43 151/151/151 152/152/152
f 43/43/43 42/42/42 151/151/151
f 93/93/93 23/23/23 154/154/154
f 93/93/93 21/21/21 23/23/23
f 92/92/92 21/21/21 93/93/93
f 92/92/92 19/19/19 21/21/21
f 91/91/91 19/19/19 92/92/92
f 91/91/91 17/17/17 19/19/19
f 90/90/90 17/17/17 91/91/91
f 90/90/90 15/15/15 17/17/17
f 89/89/89 15/15/15 90/90/90
f 89/89/89 13/13/13 15/15/15
f 88/88/88 13/13/13 89/89/89
f 88/88/88 11/11/11 13/13/13
f 87/87/87 11/11/11 88/88/88
f 87/87/87 9/9/9 11/11/11
f 86/86/86 9/9/9 87/87/87
f 86/86/86 7/7/7 9/9/9
f 85/85/85 7/7/7 86/86/86
f 85/85/85 5/5/5 7/7/7
f 84/84/84 5/5/5 85/85/85
f 84/84/84 2/2/2 5/5/5
f 83/83/83 2/2/2 84/84/84
f 83/83/83 153/153/153 2/2/2
f 104/104/104 93/93/93 156/156/156
f 104/104/104 92/92/92 93/93/93
f 103/103/103 92/92/92 104/104/104
f 103/103/103 91/91/91 92/92/92
f 102/102/102 91/91/91 103/103/103
f 102/102/102 90/90/90 91/91/91
f 101/101/101 90/90/90 102/102/102
f 101/101/101 89/89/89 90/90/90
f 100/100/100 89/89/89 101/101/101
f 100/100/100 88/88/88 89/89/89
f 99/99/99 88/88/88 100/100/100
f 99/99/99 87/87/87 88/88/88
f 98/98/98 87/87/87 99/99/99
f 98/98/98 86/86/86 87/87/87
f 97/97/97 86/86/86 98/98/98
f 97/97/97 85/85/85 86/86/86
f 96/96/96 85/85/85 97/97/97
f 96/96/96 84/84/84 85/85/85
f 95/95/95 84/84/84 96/96/96
f 95/95/95 83/83/83 84/84/84
f 94/94/94 83/83/83 95/95/95
f 94/94/94 155/155/155 83/83/83
f 94/94/94 105/105/105 157/157/157
f 94/94/94 106/106/106 105/105/105
f 95/95/95 106/106/106 94/94/94
f 95/95/95 107/107/107 106/106/106
f 96/96/96 107/107/107 95/95/95
f 96/96/96 108/108/108 107/107/107
f 97/97/97 108/108/108 96/96/96
f 97/97/97 109/109/109 108/108/108
f 98/98/98 109/109/109 97/97/97
f 98/98/98 110/110/110 109/109/109
f 99/99/99 110/110/110 98/98/98
f 99/99/99 111/111/111 110/110/110
f 100/100/100 111/111/111 99/99/99
f 100/100/100 112/112/112 111/111/111
f 101/101/101 112/112/112 100/100/100
f 115/115/115 104/104/104 159/159/159
f 115/115/115 103/103/103 104/104/104
f 114/114/114 103/103/103 115/115/115
f 114/114/114 102/102/102 103/103/103
f 113/113/113 102/102/102 114/114/114
f 113/113/113 101/101/101 102/102/102
f 158/158/158 101/101/101 113/113/113
f 121/121/121 110/110/110 111/111/111
f 121/121/121 109/109/109 110/110/110
f 120/120/120 109/109/109 121/121/121
f 120/120/120 108/108/108 109/109/109
f 119/119/119 108/108/108 120/120/120
f 119/119/119 107/107/107 108/108/108
f 118/118/118 107/107/107 119/119/119
f 118/118/118 106/106/106 107/107/107
f 117/117/117 106/106/106 118/118/118
f 117/117/117 105/105/105 106/106/106
f 116/116/116 105/105/105 117/117/117
f 116/116/116 160/160/160 105/105/105
f 116/116/116 126/126/126 162/162/162
f 116/116/116 127/127/127 126/126/126
f 117/117/117 127/127/127 116/116/116
f 117/117/117 128/128/128 127/127/127
f 118/118/118 128/128/128 117/117/117
f 118/118/118 129/129/129 128/128/128
f 119/119/119 129/129/129 118/118/118
f 119/119/119 130/130/130 129/129/129
f 120/120/120 130/130/130 119/119/119
f 120/120/120 131/131/131 130/130/130
f 121/121/121 131/131/131 120/120/120
f 121/121/121 139/139/139 131/131/131
f 111/111/111 139/139/139 121/121/121
f 123/123/123 132/132/132 134/134/134
f 123/123/123 133/133/133 132/132/132
f 135/135/135 133/133/133 123/123/123
f 135/135/135 174/174/174 133/133/133
f 175/175/175 174/174/174 135/135/135
f 122/122/122 135/135/135 123/123/123
f 122/122/122 136/136/136 135/135/135
f 124/124/124 136/136/136 122/122/122
f 124/124/124 137/137/137 136/136/136
f 125/125/125 137/137/137 124/124/124
f 125/125/125 163/163/163 137/137/137
f 126/126/126 164/164/164 165/165/165
f 126/126/126 166/166/166 164/164/164
f 127/127/127 166/166/166 126/126/126
f 127/127/127 167/167/167 166/166/166
f 128/128/128 167/167/167 127/127/127
f 128/128/128 168/168/168 167/167/167
f 129/129/129 168/168/168 128/128/128
f 129/129/129 169/169/169 168/168/168
f 130/130/130 169/169/169 129/129/129
f 130/130/130 170/170/170 169/169/169
f 131/131/131 170/170/170 130/130/130
f 131/131/131 138/138/138 170/170/170
f 139/139/139 138/138/138 131/131/131
f 170/170/170 138/138/138 171/171/171
f 136/136/136 175/175/175 135/135/135
f 136/136/136 176/176/176 175/175/175
f 137/137/137 176/176/176 136/136/136
f 137/137/137 177/177/177 176/176/176
f 178/178/178 112/112/112 179/179/179
f 178/178/178 111/111/111 112/112/112
f 54/54/54 146/146/146 53/53/53
f 54/54/54 44/44/44 146/146/146
f 55/55/55 44/44/44 54/54/54
f 55/55/55 45/45/45 44/44/44
f 56/56/56 45/45/45 55/55/55
f 56/56/56 46/46/46 45/45/45
f 144/144/144 46/46/46 56/56/56
f 64/64/64 78/78/78 79/79/79
f 64/64/64 77/77/77 78/78/78
f 63/63/63 77/77/77 64/64/64
f 125/125/125 115/115/115 159/159/159
f 125/125/125 114/114/114 115/115/115
f 124/124/124 114/114/114 125/125/125
f 124/124/124 113/113/113 114/114/114
f 122/122/122 113/113/113 124/124/124
f 122/122/122 161/161/161 113/113/113
f 123/123/123 161/161/161 122/122/122
f 133/133/133 172/172/172 132/132/132
f 133/133/133 173/173/173 172/172/172
f 174/174/174 173/173/173 133/133/133
