g TheBirdHeadFeathers
v 0.1877007 2.427674 -0.1490295
v 0.1719529 2.417189 -0.199929
v 0.1662626 2.434124 -0.1833921
v 0.1717152 2.437757 -0.1657682
v 0.02659602 2.401297 -0.3081558
v -0.02703442 2.400065 -0.3090276
v -0.01015987 2.418243 -0.3011165
v 0.008409919 2.418667 -0.3008138
v -0.1747979 2.403726 -0.2099526
v -0.1926098 2.413443 -0.1595978
v -0.1764923 2.425467 -0.1725473
v -0.170325 2.422105 -0.1899828
v -0.1455121 2.434236 0.005641787
v -0.1086341 2.440412 0.03290377
v -0.1149105 2.447413 0.01875133
v -0.1276807 2.445276 0.009311578
v 0.1154802 2.470629 0.04882134
v 0.1486875 2.466728 0.02604031
v 0.1332872 2.478746 0.02639906
v 0.1217889 2.480097 0.03428664
v -0.031509 2.524817 -0.1268376
v -0.006865437 2.527478 -0.1159551
v 0.01820537 2.525957 -0.1260302
v 0.009056279 2.522357 -0.1431389
v -0.02166902 2.521653 -0.1436385
v -0.06631564 2.225515 -0.05597103
v -6.385255E-06 2.236619 -0.006954286
v -0.06806549 2.419374 0.04500829
v -0.1642726 2.403263 -0.02610832
v -0.0001966423 2.288557 -0.06767414
v -0.08444149 2.437632 0.008090246
v -0.03295132 2.28504 -0.08203783
v -0.1177528 2.432054 -0.0165347
v -0.03903452 2.210632 -0.1330961
v -0.1853644 2.389096 -0.1178549
v -0.1457831 2.367503 -0.2297537
v -0.1495483 2.415823 -0.146632
v -0.01987662 2.280867 -0.1042068
v -0.135843 2.408344 -0.1853769
v 0.04413504 2.21254 -0.1317455
v -0.0601218 2.368762 -0.2738015
v 0.06054639 2.371527 -0.2718414
v -0.02215448 2.409657 -0.2560021
v 0.0209589 2.281803 -0.1035439
v 0.01962784 2.410614 -0.2553239
v 0.06825569 2.2286 -0.05378501
v 0.1468654 2.383911 -0.2211726
v 0.1818611 2.407216 -0.1080635
v 0.1342202 2.421545 -0.1844244
v 0.0331217 2.286558 -0.08096524
v 0.1463375 2.429615 -0.1452591
v 0.1655619 2.425156 -0.01488488
v 0.0665226 2.43679 0.05306202
v 0.1196316 2.461004 -0.01381201
v 0.08533912 2.465033 0.009714098
v -0.005967649 2.486232 -0.08980292
v -0.06046256 2.48035 -0.1138663
v 0.04947148 2.48287 -0.1120811
v 0.0292398 2.474906 -0.1499131
v -0.03870289 2.473348 -0.1510165
v -0.1747979 2.403726 -0.2099526
v -0.1764923 2.425467 -0.1725473
v 0.1154802 2.470629 0.04882134
v 0.1332872 2.478746 0.02639906
v -0.031509 2.524817 -0.1268376
v -6.385255E-06 2.236619 -0.006954286
v -0.06806549 2.419374 0.04500829
v -0.0001966423 2.288557 -0.06767414
v -0.08444149 2.437632 0.008090246
v -0.03295132 2.28504 -0.08203783
v -0.1642726 2.403263 -0.02610832
v -0.06631564 2.225515 -0.05597103
v -0.1177528 2.432054 -0.0165347
v -0.06631564 2.225515 -0.05597103
v -0.06631564 2.225515 -0.05597103
v -0.03295132 2.28504 -0.08203783
v -0.1853644 2.389096 -0.1178549
v -0.03295132 2.28504 -0.08203783
v -0.03295132 2.28504 -0.08203783
v -0.1495483 2.415823 -0.146632
v -0.01987662 2.280867 -0.1042068
v -0.1457831 2.367503 -0.2297537
v -0.03903452 2.210632 -0.1330961
v -0.135843 2.408344 -0.1853769
v -0.03903452 2.210632 -0.1330961
v -0.03903452 2.210632 -0.1330961
v -0.01987662 2.280867 -0.1042068
v -0.0601218 2.368762 -0.2738015
v -0.01987662 2.280867 -0.1042068
v -0.02215448 2.409657 -0.2560021
v 0.0209589 2.281803 -0.1035439
v 0.06054639 2.371527 -0.2718414
v 0.04413504 2.21254 -0.1317455
v 0.01962784 2.410614 -0.2553239
v 0.04413504 2.21254 -0.1317455
v 0.04413504 2.21254 -0.1317455
v 0.0209589 2.281803 -0.1035439
v 0.1468654 2.383911 -0.2211726
v 0.0209589 2.281803 -0.1035439
v 0.1342202 2.421545 -0.1844244
v 0.0331217 2.286558 -0.08096524
v 0.1818611 2.407216 -0.1080635
v 0.06825569 2.2286 -0.05378501
v 0.1463375 2.429615 -0.1452591
v -6.385255E-06 2.236619 -0.006954286
v 0.06825569 2.2286 -0.05378501
v 0.06825569 2.2286 -0.05378501
v 0.0331217 2.286558 -0.08096524
v 0.1655619 2.425156 -0.01488488
v 0.0331217 2.286558 -0.08096524
v -0.0001966423 2.288557 -0.06767414
v 0.0331217 2.286558 -0.08096524
v 0.1196316 2.461004 -0.01381201
v -0.0001966423 2.288557 -0.06767414
v 0.0665226 2.43679 0.05306202
v -6.385255E-06 2.236619 -0.006954286
v -0.0001966423 2.288557 -0.06767414
v 0.08533912 2.465033 0.009714098
v -0.03295132 2.28504 -0.08203783
v -0.0001966423 2.288557 -0.06767414
v -0.0001966423 2.288557 -0.06767414
v 0.0331217 2.286558 -0.08096524
v -0.005967649 2.486232 -0.08980292
v 0.0331217 2.286558 -0.08096524
v 0.0209589 2.281803 -0.1035439
v 0.04947148 2.48287 -0.1120811
v 0.0209589 2.281803 -0.1035439
v -0.01987662 2.280867 -0.1042068
v 0.0292398 2.474906 -0.1499131
v -0.01987662 2.280867 -0.1042068
v -0.06046256 2.48035 -0.1138663
v -0.03295132 2.28504 -0.08203783
v -0.03870289 2.473348 -0.1510165
v -0.1642726 2.403263 -0.02610832
v -0.1086341 2.440412 0.03290377
v -0.06806549 2.419374 0.04500829
v -0.1455121 2.434236 0.005641787
v -0.06806549 2.419374 0.04500829
v -0.1149105 2.447413 0.01875133
v -0.08444149 2.437632 0.008090246
v -0.1086341 2.440412 0.03290377
v -0.08444149 2.437632 0.008090246
v -0.1276807 2.445276 0.009311578
v -0.1177528 2.432054 -0.0165347
v -0.1149105 2.447413 0.01875133
v -0.1177528 2.432054 -0.0165347
v -0.1455121 2.434236 0.005641787
v -0.1642726 2.403263 -0.02610832
v -0.1276807 2.445276 0.009311578
v 0.0665226 2.43679 0.05306202
v 0.1486875 2.466728 0.02604031
v 0.1655619 2.425156 -0.01488488
v 0.1154802 2.470629 0.04882134
v 0.1655619 2.425156 -0.01488488
v 0.1332872 2.478746 0.02639906
v 0.1196316 2.461004 -0.01381201
v 0.1486875 2.466728 0.02604031
v 0.1196316 2.461004 -0.01381201
v 0.1217889 2.480097 0.03428664
v 0.08533912 2.465033 0.009714098
v 0.1332872 2.478746 0.02639906
v 0.08533912 2.465033 0.009714098
v 0.1154802 2.470629 0.04882134
v 0.0665226 2.43679 0.05306202
v 0.1217889 2.480097 0.03428664
v 0.1719529 2.417189 -0.199929
v 0.1877007 2.427674 -0.1490295
v 0.1468654 2.383911 -0.2211726
v 0.1662626 2.434124 -0.1833921
v 0.1342202 2.421545 -0.1844244
v 0.1719529 2.417189 -0.199929
v 0.1342202 2.421545 -0.1844244
v 0.1717152 2.437757 -0.1657682
v 0.1463375 2.429615 -0.1452591
v 0.1662626 2.434124 -0.1833921
v 0.1463375 2.429615 -0.1452591
v 0.1877007 2.427674 -0.1490295
v 0.1818611 2.407216 -0.1080635
v 0.1717152 2.437757 -0.1657682
v 0.06054639 2.371527 -0.2718414
v -0.02703442 2.400065 -0.3090276
v -0.0601218 2.368762 -0.2738015
v 0.02659602 2.401297 -0.3081558
v -0.0601218 2.368762 -0.2738015
v -0.01015987 2.418243 -0.3011165
v -0.02215448 2.409657 -0.2560021
v -0.02703442 2.400065 -0.3090276
v -0.02215448 2.409657 -0.2560021
v 0.008409919 2.418667 -0.3008138
v 0.01962784 2.410614 -0.2553239
v -0.01015987 2.418243 -0.3011165
v 0.01962784 2.410614 -0.2553239
v 0.02659602 2.401297 -0.3081558
v 0.06054639 2.371527 -0.2718414
v 0.008409919 2.418667 -0.3008138
v -0.1457831 2.367503 -0.2297537
v -0.1926098 2.413443 -0.1595978
v -0.1853644 2.389096 -0.1178549
v -0.1747979 2.403726 -0.2099526
v -0.1853644 2.389096 -0.1178549
v -0.1764923 2.425467 -0.1725473
v -0.1495483 2.415823 -0.146632
v -0.1926098 2.413443 -0.1595978
v -0.1495483 2.415823 -0.146632
v -0.170325 2.422105 -0.1899828
v -0.135843 2.408344 -0.1853769
v -0.1764923 2.425467 -0.1725473
v -0.135843 2.408344 -0.1853769
v -0.1747979 2.403726 -0.2099526
v -0.1457831 2.367503 -0.2297537
v -0.170325 2.422105 -0.1899828
v -0.06046256 2.48035 -0.1138663
v -0.006865437 2.527478 -0.1159551
v -0.005967649 2.486232 -0.08980292
v -0.031509 2.524817 -0.1268376
v -0.005967649 2.486232 -0.08980292
v 0.01820537 2.525957 -0.1260302
v 0.04947148 2.48287 -0.1120811
v -0.006865437 2.527478 -0.1159551
v 0.04947148 2.48287 -0.1120811
v 0.009056279 2.522357 -0.1431389
v 0.0292398 2.474906 -0.1499131
v 0.01820537 2.525957 -0.1260302
v 0.0292398 2.474906 -0.1499131
v -0.02166902 2.521653 -0.1436385
v -0.03870289 2.473348 -0.1510165
v 0.009056279 2.522357 -0.1431389
v -0.03870289 2.473348 -0.1510165
v -0.031509 2.524817 -0.1268376
v -0.06046256 2.48035 -0.1138663
v -0.02166902 2.521653 -0.1436385
vt 0.23776 0.948021
vt 0.274484 0.948021
vt 0.274484 0.989621
vt 0.23776 0.989621
vt 0.427767 0.418963
vt 0.474997 0.418963
vt 0.474997 0.465675
vt 0.438898 0.465675
vt 0.102506 0.437122
vt 0.111411 0.488051
vt 0.0653234 0.488051
vt 0.0535098 0.437122
vt 0.725487 0.98103
vt 0.684995 0.981014
vt 0.684995 0.932215
vt 0.725487 0.932218
vt 0.433926 0.98902
vt 0.433926 0.94594
vt 0.472656 0.945941
vt 0.472656 0.98902
vt 0.860167 0.448832
vt 0.908852 0.448832
vt 0.922185 0.503603
vt 0.887869 0.550352
vt 0.852048 0.503603
vt 0.777209 0.579206
vt 0.835429 0.579206
vt 0.839584 0.862046
vt 0.777209 0.862046
vt 0.888732 0.579206
vt 0.902567 0.862046
vt 0.72424 0.579206
vt 0.716674 0.862046
vt 0.100171 0.0458857
vt 0.155951 0.340766
vt 0.0859828 0.340766
vt 0.226468 0.340766
vt 0.279159 0.0458857
vt 0.289399 0.340766
vt 0.414797 0.0273023
vt 0.49362 0.352328
vt 0.408504 0.352328
vt 0.546076 0.352328
vt 0.598561 0.0273023
vt 0.607548 0.352328
vt 0.21939 0.53658
vt 0.302932 0.864431
vt 0.237943 0.864431
vt 0.111161 0.864431
vt 0.17391 0.53658
vt 0.17391 0.864431
vt 0.414149 0.872575
vt 0.340322 0.872575
vt 0.482831 0.872575
vt 0.544712 0.872575
vt 0.914666 0.357878
vt 0.85203 0.357878
vt 0.994479 0.357878
vt 0.690829 0.357878
vt 0.778262 0.357878
vt 0.102506 0.437122
vt 0.0653234 0.488051
vt 0.433926 0.98902
vt 0.472656 0.945941
vt 0.860167 0.448832
vt 0.835429 0.579206
vt 0.839584 0.862046
vt 0.667159 0.579206
vt 0.646934 0.862046
vt 0.72424 0.579206
vt 0.777209 0.862046
vt 0.777209 0.579206
vt 0.716674 0.862046
vt 0.159014 0.0458857
vt 0.159014 0.0458857
vt 0.219313 0.0458857
vt 0.155951 0.340766
vt 0.219313 0.0458857
vt 0.219313 0.0458857
vt 0.226468 0.340766
vt 0.0408081 0.0458857
vt 0.0859828 0.340766
vt 0.100171 0.0458857
vt 0.0152376 0.340766
vt 0.488043 0.0273023
vt 0.488043 0.0273023
vt 0.537501 0.0273023
vt 0.49362 0.352328
vt 0.537501 0.0273023
vt 0.546076 0.352328
vt 0.350033 0.0273023
vt 0.408504 0.352328
vt 0.414797 0.0273023
vt 0.342948 0.352328
vt 0.26906 0.53658
vt 0.0691732 0.53658
vt 0.114049 0.53658
vt 0.0480586 0.864431
vt 0.114049 0.53658
vt 0.111161 0.864431
vt 0.17391 0.53658
vt 0.237943 0.864431
vt 0.21939 0.53658
vt 0.17391 0.864431
vt 0.365669 0.535824
vt 0.414149 0.535824
vt 0.414149 0.535824
vt 0.482831 0.535824
vt 0.414149 0.872575
vt 0.482831 0.535824
vt 0.544712 0.535824
vt 0.482831 0.535824
vt 0.482831 0.872575
vt 0.544712 0.535824
vt 0.611027 0.872575
vt 0.598598 0.535824
vt 0.544712 0.535824
vt 0.544712 0.872575
vt 0.821592 0.0103793
vt 0.877906 0.0103793
vt 0.877906 0.0103793
vt 0.936852 0.0103793
vt 0.914666 0.357878
vt 0.678961 0.0103793
vt 0.719216 0.0103793
vt 0.635945 0.357878
vt 0.719216 0.0103793
vt 0.767246 0.0103793
vt 0.690829 0.357878
vt 0.767246 0.0103793
vt 0.85203 0.357878
vt 0.821592 0.0103793
vt 0.778262 0.357878
vt 0.777209 0.862046
vt 0.83059 0.932217
vt 0.839584 0.862046
vt 0.777209 0.932217
vt 0.839584 0.862046
vt 0.868164 0.932217
vt 0.902567 0.862046
vt 0.83059 0.932217
vt 0.646934 0.862046
vt 0.725487 0.932218
vt 0.716674 0.862046
vt 0.684995 0.932215
vt 0.716674 0.862046
vt 0.777209 0.932217
vt 0.777209 0.862046
vt 0.725487 0.932218
vt 0.340322 0.872575
vt 0.433926 0.94594
vt 0.414149 0.872575
vt 0.382478 0.94594
vt 0.414149 0.872575
vt 0.472656 0.945941
vt 0.482831 0.872575
vt 0.433926 0.94594
vt 0.482831 0.872575
vt 0.531563 0.94594
vt 0.544712 0.872575
vt 0.472656 0.945941
vt 0.544712 0.872575
vt 0.551568 0.94594
vt 0.611027 0.872575
vt 0.531563 0.94594
vt 0.274484 0.948021
vt 0.23776 0.948021
vt 0.0480586 0.864431
vt 0.140995 0.948021
vt 0.111161 0.864431
vt 0.0937036 0.948021
vt 0.111161 0.864431
vt 0.172343 0.948021
vt 0.17391 0.864431
vt 0.140995 0.948021
vt 0.17391 0.864431
vt 0.23776 0.948021
vt 0.237943 0.864431
vt 0.172343 0.948021
vt 0.408504 0.352328
vt 0.474997 0.418963
vt 0.49362 0.352328
vt 0.427767 0.418963
vt 0.49362 0.352328
vt 0.538209 0.418963
vt 0.546076 0.352328
vt 0.474997 0.418963
vt 0.546076 0.352328
vt 0.565691 0.418963
vt 0.607548 0.352328
vt 0.538209 0.418963
vt 0.342948 0.352328
vt 0.427767 0.418963
vt 0.408504 0.352328
vt 0.379933 0.418963
vt 0.0859828 0.340766
vt 0.155003 0.437122
vt 0.155951 0.340766
vt 0.102506 0.437122
vt 0.155951 0.340766
vt 0.205942 0.437122
vt 0.226468 0.340766
vt 0.155003 0.437122
vt 0.226468 0.340766
vt 0.255607 0.437122
vt 0.289399 0.340766
vt 0.205942 0.437122
vt 0.0152376 0.340766
vt 0.102506 0.437122
vt 0.0859828 0.340766
vt 0.0535098 0.437122
vt 0.85203 0.357878
vt 0.908852 0.448832
vt 0.914666 0.357878
vt 0.860167 0.448832
vt 0.914666 0.357878
vt 0.962208 0.448832
vt 0.994479 0.357878
vt 0.908852 0.448832
vt 0.635945 0.357878
vt 0.718974 0.448832
vt 0.690829 0.357878
vt 0.660521 0.448832
vt 0.690829 0.357878
vt 0.789271 0.448832
vt 0.778262 0.357878
vt 0.718974 0.448832
vt 0.778262 0.357878
vt 0.860167 0.448832
vt 0.85203 0.357878
vt 0.789271 0.448832
vn 0.7343764 0.5803913 -0.3519052
vn 0.7343294 0.5804611 -0.3518883
vn 0.7343764 0.5803913 -0.3519052
vn 0.7344234 0.5803216 -0.3519222
vn 0.00397294 0.3923779 -0.9197955
vn 0.003925852 0.3922922 -0.9198322
vn 0.00397294 0.3923779 -0.9197955
vn 0.004020028 0.3924636 -0.9197587
vn -0.7262878 0.581193 -0.3670434
vn -0.7262254 0.5812549 -0.3670686
vn -0.7262878 0.581193 -0.3670434
vn -0.7263501 0.581131 -0.3670181
vn -0.5118421 0.6569422 0.5535744
vn -0.5118375 0.6570377 0.5534652
vn -0.5118421 0.6569422 0.5535744
vn -0.5118465 0.6568467 0.5536835
vn 0.5001077 0.6134311 0.6112238
vn 0.5001433 0.6133822 0.6112437
vn 0.5001077 0.6134311 0.6112238
vn 0.5000722 0.61348 0.6112039
vn -0.01479109 0.9800591 -0.1981549
vn -0.01479593 0.9800512 -0.1981936
vn -0.01479651 0.9800555 -0.1981724
vn -0.01478867 0.9800631 -0.1981356
vn -0.01478027 0.9800663 -0.19812
vn -0.497871 -0.3993513 0.7698331
vn -0.4978755 -0.3993497 0.769831
vn -0.497871 -0.3993513 0.7698331
vn -0.4978664 -0.3993528 0.7698352
vn 0.891265 0.3465655 0.2924706
vn 0.9244751 0.3787911 0.04316282
vn 0.2930889 0.5218282 -0.8011206
vn 0.3554446 0.5548061 -0.7522297
vn -0.7745986 -0.6148235 -0.1482867
vn -0.7745986 -0.6148235 -0.1482867
vn -0.7745985 -0.6148232 -0.148289
vn 0.1284398 0.4711653 0.8726435
vn 0.6430486 0.7292332 0.2338965
vn 0.6812923 0.7110272 0.1740144
vn 0.02035851 -0.6643193 -0.7471716
vn 0.02035851 -0.6643193 -0.7471716
vn 0.02035092 -0.6643218 -0.7471695
vn -0.8645033 0.3177969 0.3894087
vn -0.02088961 0.763643 0.6453007
vn -0.02088417 0.7636431 0.6453007
vn 0.8127293 -0.5657233 -0.139385
vn 0.8127293 -0.5657233 -0.139385
vn 0.8127346 -0.5657178 -0.1393766
vn -0.7500954 0.1627705 -0.6409857
vn -0.7011405 0.6708758 0.241511
vn -0.7234951 0.6691799 0.1695674
vn 0.4888774 -0.3963159 0.777131
vn 0.4888805 -0.3963189 0.7771275
vn 0.3645407 0.0737847 -0.9282596
vn -0.3729085 0.504917 -0.7784588
vn -0.4046673 0.09426094 0.9095928
vn -0.4058526 0.09440383 0.9090498
vn 0.3799316 0.1143648 0.9179175
vn 0.8814196 -0.1502538 -0.4477983
vn 0.01551241 -0.2366381 -0.971474
vn -0.7262878 0.581193 -0.3670434
vn -0.7262878 0.581193 -0.3670434
vn 0.5001077 0.6134311 0.6112238
vn 0.5001077 0.6134311 0.6112238
vn -0.01479109 0.9800591 -0.1981549
vn 0.9244751 0.3787911 0.04316282
vn 0.8982455 0.3866619 -0.2089202
vn 0.3554446 0.5548061 -0.7522297
vn 0.4151818 0.5836972 -0.6977976
vn -0.2804232 0.1412954 -0.9494201
vn -0.2804232 0.1412954 -0.9494201
vn -0.4799278 -0.1148522 -0.8697575
vn -0.04957841 0.3816519 -0.9229755
vn -0.7745987 -0.6148239 -0.1482844
vn 0.1284398 0.4711653 0.8726435
vn -0.02865423 0.4195623 0.9072742
vn 0.281868 0.5093209 0.8131068
vn 0.6812923 0.7110272 0.1740144
vn 0.6812923 0.7110272 0.1740144
vn 0.7158708 0.688996 0.1131961
vn 0.760415 0.223966 -0.6095969
vn 0.760415 0.223966 -0.6095969
vn 0.7281491 0.07396397 -0.6814162
vn 0.770857 0.3675403 -0.5202823
vn 0.0203661 -0.6643168 -0.7471735
vn -0.8645033 0.3177969 0.3894087
vn -0.9637799 0.1965444 0.1802739
vn -0.7061851 0.4173455 0.5719487
vn -0.02088417 0.7636431 0.6453007
vn -0.02087874 0.7636433 0.6453007
vn 0.8427264 0.3693832 0.3916228
vn 0.8427264 0.3693832 0.3916228
vn 0.9332818 0.1782829 0.3117698
vn 0.7091109 0.5416093 0.4514655
vn 0.812724 -0.5657288 -0.1393934
vn -0.7500954 0.1627705 -0.6409857
vn -0.6527072 0.09170017 -0.7520401
vn -0.8273296 0.2294674 -0.5127089
vn -0.7234951 0.6691799 0.1695674
vn -0.7417412 0.6636841 0.0966608
vn -0.2408672 0.4955645 0.8345052
vn -0.2408672 0.4955645 0.8345052
vn -0.1168188 0.3621023 0.9247894
vn -0.3549554 0.6085343 0.709713
vn 0.4888774 -0.3963159 0.777131
vn 0.4888743 -0.3963129 0.7771345
vn 0.3645407 0.0737847 -0.9282596
vn 0.6089197 -0.004611506 -0.7932186
vn 0.08950266 0.1459754 -0.9852312
vn -0.3729085 0.504917 -0.7784588
vn -0.2957298 0.4997326 -0.8141322
vn -0.3729085 0.504917 -0.7784588
vn -0.4473814 0.5064377 -0.7371367
vn -0.9271441 0.3677434 0.07189278
vn -0.9271441 0.3677434 0.07189278
vn -0.9417508 0.2547092 0.21961
vn -0.9271441 0.3677434 0.07189278
vn -0.8802631 0.4679762 -0.07832704
vn -0.4046673 0.09426094 0.9095928
vn -0.4034814 0.0941179 0.9101343
vn 0.3799316 0.1143648 0.9179175
vn 0.3787465 0.1147751 0.918356
vn 0.381116 0.1139543 0.9174775
vn 0.8814196 -0.1502538 -0.4477983
vn 0.880707 -0.1507235 -0.4490407
vn 0.8821301 -0.1497837 -0.4465548
vn 0.01551241 -0.2366381 -0.971474
vn 0.01550883 -0.2366387 -0.9714739
vn 0.01551599 -0.2366375 -0.9714741
vn -0.8640638 -0.1941942 -0.4644162
vn -0.8640638 -0.1941942 -0.4644162
vn -0.8633474 -0.1941201 -0.4657776
vn -0.8647782 -0.1942678 -0.4630538
vn -0.4685304 -0.4730556 0.7461218
vn -0.4685304 -0.4730556 0.7461218
vn -0.4685031 -0.4730982 0.7461119
vn -0.4685576 -0.473013 0.7461315
vn 0.3846232 0.8838454 0.2662373
vn 0.3846232 0.8838454 0.2662373
vn 0.384688 0.8838519 0.2661217
vn 0.3845582 0.8838388 0.2663529
vn 0.15124 0.9006374 -0.4074049
vn 0.15124 0.9006374 -0.4074049
vn 0.1512319 0.9006025 -0.407485
vn 0.151248 0.9006722 -0.4073248
vn -0.3623879 0.7657431 -0.531331
vn -0.3623879 0.7657431 -0.531331
vn -0.3623497 0.7657942 -0.5312833
vn -0.362426 0.7656919 -0.5313785
vn 0.4338816 -0.5373245 0.7232075
vn 0.4338816 -0.5373245 0.7232075
vn 0.4338834 -0.5373481 0.7231889
vn 0.4338797 -0.5373009 0.7232261
vn 0.5320727 0.6901895 -0.4904458
vn 0.5320727 0.6901895 -0.4904458
vn 0.5320868 0.6901907 -0.4904288
vn 0.5320585 0.6901884 -0.4904628
vn -0.135146 0.9225174 -0.3615208
vn -0.135146 0.9225174 -0.3615208
vn -0.1351236 0.9225209 -0.3615201
vn -0.1351684 0.9225138 -0.3615215
vn -0.5209124 0.802076 0.2921031
vn -0.5209124 0.802076 0.2921031
vn -0.5209478 0.8020406 0.2921376
vn -0.5208771 0.8021116 0.2920686
vn 0.8291699 -0.5384343 -0.1502192
vn 0.8291565 -0.5384544 -0.1502213
vn -0.2274199 0.6396239 -0.7342762
vn -0.2274199 0.6396239 -0.7342762
vn -0.227404 0.6396222 -0.7342825
vn -0.2274358 0.6396254 -0.7342699
vn -0.3573248 0.9305529 -0.07993837
vn -0.3573248 0.9305529 -0.07993837
vn -0.357342 0.9305482 -0.07991754
vn -0.3573077 0.9305578 -0.07995924
vn 0.08997101 0.8873123 0.4523075
vn 0.08997101 0.8873123 0.4523075
vn 0.08996796 0.887339 0.4522558
vn 0.08997405 0.8872856 0.4523592
vn 0.02090538 -0.761712 -0.6475783
vn 0.02090538 -0.761712 -0.6475783
vn 0.02088293 -0.7617418 -0.647544
vn 0.02092783 -0.7616823 -0.6476127
vn -0.7150518 0.6966922 -0.0576266
vn -0.7150518 0.6966922 -0.0576266
vn -0.7150401 0.696708 -0.05758125
vn -0.7150635 0.6966766 -0.05767194
vn -0.01921351 0.9838064 0.1782018
vn -0.01921351 0.9838064 0.1782018
vn -0.01924997 0.9838108 0.1781727
vn -0.01917704 0.9838018 0.1782309
vn 0.6857685 0.7265121 -0.04360647
vn 0.6857685 0.7265121 -0.04360647
vn 0.6857885 0.7264937 -0.04360178
vn 0.6857488 0.7265307 -0.04361117
vn -0.817333 -0.5485597 -0.1762068
vn -0.817333 -0.5485597 -0.1762068
vn -0.8173336 -0.548558 -0.1762095
vn -0.8173325 -0.5485613 -0.1762042
vn -0.1953568 0.8325724 0.5183233
vn -0.1953568 0.8325724 0.5183233
vn -0.1954435 0.8325645 0.5183032
vn -0.1952699 0.8325802 0.5183433
vn 0.3803136 0.9235253 -0.04962352
vn 0.3803136 0.9235253 -0.04962352
vn 0.3804192 0.9234792 -0.04967251
vn 0.380208 0.9235715 -0.04957454
vn 0.3498498 0.6456808 -0.6787498
vn 0.3498498 0.6456808 -0.6787498
vn 0.3498466 0.6456948 -0.6787382
vn 0.3498531 0.645667 -0.6787614
vn -0.3903269 0.4894033 0.7798265
vn -0.3903269 0.4894033 0.7798265
vn -0.3903159 0.4893912 0.7798396
vn -0.3903378 0.4894155 0.7798133
vn 0.353926 0.5073754 0.7856886
vn 0.353926 0.5073754 0.7856886
vn 0.3539109 0.5073838 0.78569
vn 0.3539411 0.507367 0.7856871
vn 0.7710411 0.393481 -0.5006678
vn 0.7710411 0.393481 -0.5006678
vn 0.7710372 0.3934589 -0.5006913
vn 0.7710451 0.3935032 -0.5006443
vn 0.009085636 0.1442647 -0.9894974
vn 0.009085636 0.1442647 -0.9894974
vn 0.00907576 0.1442545 -0.989499
vn 0.009095514 0.1442748 -0.9894959
vn -0.7769805 0.3565805 -0.5187983
vn -0.7769805 0.3565805 -0.5187983
vn -0.7769569 0.3565902 -0.5188271
vn -0.7770042 0.3565707 -0.5187695
g TheBirdHeadFeathers_0
f 11/11/11 9/9/9 10/10/10
f 12/12/12 61/61/61 62/62/62
f 19/19/19 17/17/17 18/18/18
f 20/20/20 63/63/63 64/64/64
f 25/25/25 65/65/65 24/24/24
f 39/39/39 78/78/78 38/38/38
f 80/80/80 79/79/79 39/39/39
f 55/55/55 110/110/110 111/111/111
f 113/113/113 112/112/112 55/55/55
f 115/115/115 114/114/114 116/116/116
f 118/118/118 117/117/117 115/115/115
f 3/3/3 1/1/1 2/2/2
f 3/3/3 4/4/4 1/1/1
f 7/7/7 5/5/5 6/6/6
f 7/7/7 8/8/8 5/5/5
f 15/15/15 13/13/13 14/14/14
f 15/15/15 16/16/16 13/13/13
f 23/23/23 21/21/21 22/22/22
f 23/23/23 24/24/24 21/21/21
f 28/28/28 26/26/26 27/27/27
f 28/28/28 29/29/29 26/26/26
f 31/31/31 66/66/66 30/30/30
f 31/31/31 67/67/67 66/66/66
f 33/33/33 68/68/68 32/32/32
f 33/33/33 69/69/69 68/68/68
f 71/71/71 70/70/70 72/72/72
f 71/71/71 73/73/73 70/70/70
f 35/35/35 34/34/34 74/74/74
f 35/35/35 36/36/36 34/34/34
f 37/37/37 75/75/75 76/76/76
f 37/37/37 77/77/77 75/75/75
f 82/82/82 81/81/81 83/83/83
f 82/82/82 84/84/84 81/81/81
f 41/41/41 40/40/40 85/85/85
f 41/41/41 42/42/42 40/40/40
f 43/43/43 86/86/86 87/87/87
f 43/43/43 88/88/88 86/86/86
f 45/45/45 89/89/89 44/44/44
f 45/45/45 90/90/90 89/89/89
f 92/92/92 91/91/91 93/93/93
f 92/92/92 94/94/94 91/91/91
f 48/48/48 166/166/166 167/167/167
f 48/48/48 47/47/47 166/166/166
f 46/46/46 47/47/47 48/48/48
f 46/46/46 95/95/95 47/47/47
f 49/49/49 96/96/96 97/97/97
f 49/49/49 98/98/98 96/96/96
f 51/51/51 99/99/99 50/50/50
f 51/51/51 100/100/100 99/99/99
f 102/102/102 101/101/101 103/103/103
f 102/102/102 104/104/104 101/101/101
f 52/52/52 105/105/105 106/106/106
f 52/52/52 53/53/53 105/105/105
f 54/54/54 107/107/107 108/108/108
f 54/54/54 109/109/109 107/107/107
f 56/56/56 119/119/119 120/120/120
f 56/56/56 57/57/57 119/119/119
f 58/58/58 121/121/121 122/122/122
f 58/58/58 123/123/123 121/121/121
f 59/59/59 124/124/124 125/125/125
f 59/59/59 126/126/126 124/124/124
f 60/60/60 127/127/127 128/128/128
f 60/60/60 129/129/129 127/127/127
f 131/131/131 130/130/130 132/132/132
f 131/131/131 133/133/133 130/130/130
f 135/135/135 134/134/134 136/136/136
f 135/135/135 137/137/137 134/134/134
f 139/139/139 138/138/138 140/140/140
f 139/139/139 141/141/141 138/138/138
f 143/143/143 142/142/142 144/144/144
f 143/143/143 145/145/145 142/142/142
f 147/147/147 146/146/146 148/148/148
f 147/147/147 149/149/149 146/146/146
f 151/151/151 150/150/150 152/152/152
f 151/151/151 153/153/153 150/150/150
f 155/155/155 154/154/154 156/156/156
f 155/155/155 157/157/157 154/154/154
f 159/159/159 158/158/158 160/160/160
f 159/159/159 161/161/161 158/158/158
f 163/163/163 162/162/162 164/164/164
f 163/163/163 165/165/165 162/162/162
f 169/169/169 168/168/168 170/170/170
f 169/169/169 171/171/171 168/168/168
f 173/173/173 172/172/172 174/174/174
f 173/173/173 175/175/175 172/172/172
f 177/177/177 176/176/176 178/178/178
f 177/177/177 179/179/179 176/176/176
f 181/181/181 180/180/180 182/182/182
f 181/181/181 183/183/183 180/180/180
f 185/185/185 184/184/184 186/186/186
f 185/185/185 187/187/187 184/184/184
f 189/189/189 188/188/188 190/190/190
f 189/189/189 191/191/191 188/188/188
f 193/193/193 192/192/192 194/194/194
f 193/193/193 195/195/195 192/192/192
f 197/197/197 196/196/196 198/198/198
f 197/197/197 199/199/199 196/196/196
f 201/201/201 200/200/200 202/202/202
f 201/201/201 203/203/203 200/200/200
f 205/205/205 204/204/204 206/206/206
f 205/205/205 207/207/207 204/204/204
f 209/209/209 208/208/208 210/210/210
f 209/209/209 211/211/211 208/208/208
f 213/213/213 212/212/212 214/214/214
f 213/213/213 215/215/215 212/212/212
f 217/217/217 216/216/216 218/218/218
f 217/217/217 219/219/219 216/216/216
f 221/221/221 220/220/220 222/222/222
f 221/221/221 223/223/223 220/220/220
f 225/225/225 224/224/224 226/226/226
f 225/225/225 227/227/227 224/224/224
f 229/229/229 228/228/228 230/230/230
f 229/229/229 231/231/231 228/228/228
