g TheBeanMouth
v -0.3172236 1.631774 0.2557878
v -0.334326 1.65656 -0.108699
v -0.1930234 1.65656 -0.1087697
v -0.1820119 1.634673 0.4369918
v -1.069805E-08 1.656539 -0.1087222
v 8.146847E-08 1.636627 0.5137648
v 0.1930234 1.65656 -0.1087697
v 0.183044 1.634679 0.4370253
v 0.334326 1.65656 -0.108699
v 0.3176443 1.631701 0.2560305
v 0.3860475 1.656603 -0.1087859
v 0.3402726 1.589145 0.3285561
v 0.196389 1.56391 0.5374904
v 9.924745E-08 1.554779 0.6161014
v -0.1966329 1.563886 0.537335
v -0.3397026 1.589648 0.3283397
v -0.3860475 1.656603 -0.1087859
v 0.3860475 1.656603 -0.1087859
v 0.334326 1.65656 -0.108699
v 0.1930234 1.65656 -0.1087697
v -1.069805E-08 1.656539 -0.1087222
v -0.1930234 1.65656 -0.1087697
v -0.334326 1.65656 -0.108699
v -0.3860475 1.656603 -0.1087859
vt 0.907067 0.803509
vt 0.927331 0.537093
vt 0.74672 0.537271
vt 0.735038 0.936696
vt 0.5 0.537514
vt 0.502731 0.993439
vt 0.25328 0.537757
vt 0.268431 0.937639
vt 0.0726692 0.537935
vt 0.0955949 0.805286
vt 0.00656068 0.538
vt 0.0650671 0.217368
vt 0.248979 0.0641915
vt 0.500001 0.00656068
vt 0.751335 0.0643064
vt 0.934206 0.217527
vt 0.993439 0.537028
vt 0.00656068 0.538
vt 0.0726692 0.537935
vt 0.25328 0.537757
vt 0.5 0.537514
vt 0.74672 0.537271
vt 0.927331 0.537093
vt 0.993439 0.537028
vn 0.04507726 -0.9969488 -0.06372809
vn 0.02156718 -0.9974545 -0.06796569
vn 0.05891379 -0.9964888 -0.05949175
vn 0.05216585 -0.997124 -0.05497629
vn 0.03320498 -0.9979248 -0.05516703
vn 0.004286757 -0.9979096 -0.06448226
vn 0.01098719 -0.9972925 -0.07271121
vn -0.08076785 -0.9910726 -0.1060738
vn -0.06528522 -0.9895309 -0.1287103
vn -0.1226869 -0.9806926 -0.1522823
vn -0.005536313 -0.9888432 -0.148857
vn 0.002061467 0.9962195 0.08684845
vn 0.006807116 0.9983293 0.05737728
vn -0.006164365 0.9990439 0.0432811
vn -0.0187176 0.999356 0.03061603
vn -0.005185817 0.9996562 0.02570269
vn -0.006544144 -0.9977615 -0.06655242
vn 0.005261092 0.9950348 0.09938873
vn -0.02191923 0.9948718 0.09873952
vn -0.01140401 0.9971904 0.07403485
vn -0.0215802 0.9984087 0.05209952
vn -0.02483042 0.9989702 0.0379755
vn -0.0202879 0.999405 0.02789312
vn 0.00643483 0.9996324 0.02633803
g TheBeanMouth_0
f 2/2/2 1/1/1 17/17/17
f 3/3/3 1/1/1 2/2/2
f 3/3/3 4/4/4 1/1/1
f 5/5/5 4/4/4 3/3/3
f 5/5/5 6/6/6 4/4/4
f 7/7/7 6/6/6 5/5/5
f 7/7/7 8/8/8 6/6/6
f 9/9/9 8/8/8 7/7/7
f 9/9/9 10/10/10 8/8/8
f 11/11/11 10/10/10 9/9/9
f 16/16/16 23/23/23 24/24/24
f 15/15/15 23/23/23 16/16/16
f 15/15/15 22/22/22 23/23/23
f 14/14/14 22/22/22 15/15/15
f 14/14/14 21/21/21 22/22/22
f 13/13/13 21/21/21 14/14/14
f 13/13/13 20/20/20 21/21/21
f 12/12/12 20/20/20 13/13/13
f 12/12/12 19/19/19 20/20/20
f 18/18/18 19/19/19 12/12/12
