g TheDogNose
v 0.06778386 1.740627 0.4645335
v -0.0005495605 1.764134 0.4605528
v -0.0005495574 1.781861 0.4792462
v 0.07835524 1.754743 0.484123
v -0.06888328 1.748074 0.4645335
v -0.07945435 1.754743 0.484123
v -0.09718791 1.691073 0.475549
v -0.112138 1.696465 0.4973025
v -0.03833256 1.67633 0.4823155
v -0.04890394 1.683218 0.5036972
v -0.0005495574 1.652013 0.4883445
v -0.0005495544 1.645066 0.5131521
v 0.03803752 1.675473 0.4825289
v 0.04860859 1.682365 0.5039076
v 0.0960888 1.691073 0.475549
v 0.1110386 1.696465 0.4973025
v -0.0005495544 1.780376 0.5079675
v 0.06778386 1.75687 0.5119482
v -0.06888328 1.75687 0.5119482
v -0.09718791 1.704024 0.5237805
v -0.03833256 1.691631 0.5299649
v -0.0005495483 1.664025 0.5368077
v 0.03803752 1.690777 0.5301752
v 0.0960888 1.704024 0.5237805
v -0.0005495483 1.758745 0.5405293
v 0.03890284 1.74526 0.5438729
v -0.04000195 1.74526 0.5438729
v -0.0563438 1.721992 0.5496397
v -0.0271386 1.701939 0.554608
v -0.0005495452 1.693862 0.5566105
v 0.02282367 1.703737 0.554163
v 0.05524439 1.721992 0.5496397
v -0.0005495452 1.724318 0.5590184
v -0.0005495605 1.764134 0.4605528
v -0.0005495574 1.781861 0.4792462
v -0.06888328 1.748074 0.4645335
v -0.06888328 1.748074 0.4645335
v -0.07945435 1.754743 0.484123
v -0.09718791 1.691073 0.475549
v -0.112138 1.696465 0.4973025
v -0.04890394 1.683218 0.5036972
v -0.03833256 1.67633 0.4823155
v -0.04890394 1.683218 0.5036972
v -0.0005495574 1.652013 0.4883445
v -0.0005495544 1.645066 0.5131521
v 0.03803752 1.675473 0.4825289
v 0.03803752 1.675473 0.4825289
v 0.04860859 1.682365 0.5039076
v 0.0960888 1.691073 0.475549
v 0.07835524 1.754743 0.484123
v 0.06778386 1.740627 0.4645335
v 0.1110386 1.696465 0.4973025
v 0.07835524 1.754743 0.484123
v 0.07835524 1.754743 0.484123
v -0.0005495574 1.781861 0.4792462
v -0.0005495574 1.781861 0.4792462
v -0.07945435 1.754743 0.484123
v -0.0005495544 1.780376 0.5079675
v -0.07945435 1.754743 0.484123
v -0.112138 1.696465 0.4973025
v -0.06888328 1.75687 0.5119482
v -0.112138 1.696465 0.4973025
v -0.04890394 1.683218 0.5036972
v -0.09718791 1.704024 0.5237805
v -0.04890394 1.683218 0.5036972
v -0.0005495544 1.645066 0.5131521
v -0.03833256 1.691631 0.5299649
v -0.0005495544 1.645066 0.5131521
v 0.04860859 1.682365 0.5039076
v -0.0005495483 1.664025 0.5368077
v 0.04860859 1.682365 0.5039076
v 0.1110386 1.696465 0.4973025
v 0.03803752 1.690777 0.5301752
v 0.1110386 1.696465 0.4973025
v 0.06778386 1.75687 0.5119482
v 0.07835524 1.754743 0.484123
v 0.0960888 1.704024 0.5237805
v 0.06778386 1.75687 0.5119482
v -0.0005495544 1.780376 0.5079675
v -0.0005495544 1.780376 0.5079675
v -0.06888328 1.75687 0.5119482
v -0.0005495483 1.758745 0.5405293
v -0.06888328 1.75687 0.5119482
v -0.09718791 1.704024 0.5237805
v -0.04000195 1.74526 0.5438729
v -0.09718791 1.704024 0.5237805
v -0.03833256 1.691631 0.5299649
v -0.0563438 1.721992 0.5496397
v -0.03833256 1.691631 0.5299649
v -0.0005495483 1.664025 0.5368077
v -0.0271386 1.701939 0.554608
v -0.0005495483 1.664025 0.5368077
v 0.03803752 1.690777 0.5301752
v -0.0005495452 1.693862 0.5566105
v 0.03803752 1.690777 0.5301752
v 0.0960888 1.704024 0.5237805
v 0.02282367 1.703737 0.554163
v 0.0960888 1.704024 0.5237805
v 0.03890284 1.74526 0.5438729
v 0.06778386 1.75687 0.5119482
v 0.05524439 1.721992 0.5496397
v 0.03890284 1.74526 0.5438729
v -0.0005495483 1.758745 0.5405293
v -0.0005495483 1.758745 0.5405293
v -0.0005495452 1.724318 0.5590184
v -0.04000195 1.74526 0.5438729
v -0.04000195 1.74526 0.5438729
v -0.0005495452 1.724318 0.5590184
v -0.0563438 1.721992 0.5496397
v -0.0563438 1.721992 0.5496397
v -0.0005495452 1.724318 0.5590184
v -0.0271386 1.701939 0.554608
v -0.0271386 1.701939 0.554608
v -0.0005495452 1.724318 0.5590184
v -0.0005495452 1.693862 0.5566105
v -0.0005495452 1.693862 0.5566105
v -0.0005495452 1.724318 0.5590184
v 0.02282367 1.703737 0.554163
v 0.05524439 1.721992 0.5496397
v 0.05524439 1.721992 0.5496397
v -0.0005495452 1.724318 0.5590184
v 0.03890284 1.74526 0.5438729
vt 0.876061 0.827382
vt 0.52476 0.993424
vt 0.52476 0.901226
vt 0.811286 0.759611
vt 0.198686 0.882919
vt 0.248364 0.806791
vt 0.00657552 0.444577
vt 0.106059 0.444577
vt 0.261229 0.0829277
vt 0.328613 0.188785
vt 0.52476 0.00657547
vt 0.52476 0.114736
vt 0.803736 0.0816439
vt 0.743558 0.175754
vt 0.993424 0.444577
vt 0.913041 0.444577
vt 0.52476 0.759571
vt 0.740802 0.66636
vt 0.323908 0.70475
vt 0.219063 0.444577
vt 0.382063 0.263374
vt 0.52476 0.19589
vt 0.698276 0.246616
vt 0.84555 0.444577
vt 0.52476 0.599583
vt 0.645076 0.552818
vt 0.425017 0.574813
vt 0.349107 0.444577
vt 0.431505 0.328275
vt 0.52476 0.27815
vt 0.635527 0.326494
vt 0.707854 0.444577
vt 0.52476 0.444577
vt 0.52476 0.993424
vt 0.52476 0.901226
vt 0.198686 0.882919
vt 0.198686 0.882919
vt 0.248364 0.806791
vt 0.00657552 0.444577
vt 0.106059 0.444577
vt 0.328613 0.188785
vt 0.261229 0.0829277
vt 0.328613 0.188785
vt 0.52476 0.00657547
vt 0.52476 0.114736
vt 0.803736 0.0816439
vt 0.803736 0.0816439
vt 0.743558 0.175754
vt 0.993424 0.444577
vt 0.811286 0.759611
vt 0.876061 0.827382
vt 0.913041 0.444577
vt 0.811286 0.759611
vt 0.811286 0.759611
vt 0.52476 0.901226
vt 0.52476 0.901226
vt 0.248364 0.806791
vt 0.52476 0.759571
vt 0.248364 0.806791
vt 0.106059 0.444577
vt 0.323908 0.70475
vt 0.106059 0.444577
vt 0.328613 0.188785
vt 0.219063 0.444577
vt 0.328613 0.188785
vt 0.52476 0.114736
vt 0.382063 0.263374
vt 0.52476 0.114736
vt 0.743558 0.175754
vt 0.52476 0.19589
vt 0.743558 0.175754
vt 0.913041 0.444577
vt 0.698276 0.246616
vt 0.913041 0.444577
vt 0.740802 0.66636
vt 0.811286 0.759611
vt 0.84555 0.444577
vt 0.740802 0.66636
vt 0.52476 0.759571
vt 0.52476 0.759571
vt 0.323908 0.70475
vt 0.52476 0.599583
vt 0.323908 0.70475
vt 0.219063 0.444577
vt 0.425017 0.574813
vt 0.219063 0.444577
vt 0.382063 0.263374
vt 0.349107 0.444577
vt 0.382063 0.263374
vt 0.52476 0.19589
vt 0.431505 0.328275
vt 0.52476 0.19589
vt 0.698276 0.246616
vt 0.52476 0.27815
vt 0.698276 0.246616
vt 0.84555 0.444577
vt 0.635527 0.326494
vt 0.84555 0.444577
vt 0.645076 0.552818
vt 0.740802 0.66636
vt 0.707854 0.444577
vt 0.645076 0.552818
vt 0.52476 0.599583
vt 0.52476 0.599583
vt 0.52476 0.444577
vt 0.425017 0.574813
vt 0.425017 0.574813
vt 0.52476 0.444577
vt 0.349107 0.444577
vt 0.349107 0.444577
vt 0.52476 0.444577
vt 0.431505 0.328275
vt 0.431505 0.328275
vt 0.52476 0.444577
vt 0.52476 0.27815
vt 0.52476 0.27815
vt 0.52476 0.444577
vt 0.635527 0.326494
vt 0.707854 0.444577
vt 0.707854 0.444577
vt 0.52476 0.444577
vt 0.645076 0.552818
vn 0.2805992 0.6955082 -0.6614623
vn 0.2791055 0.693899 -0.6637803
vn 0.2805992 0.6955082 -0.6614623
vn 0.2820901 0.6971102 -0.6591377
vn -0.2276844 0.8766776 -0.4237879
vn -0.2564598 0.795753 -0.5486398
vn -0.764002 0.2676328 -0.5870891
vn -0.7750606 0.2953571 -0.5586101
vn -0.2627298 -0.9476408 0.1815216
vn -0.2407363 -0.9604749 0.1397644
vn -0.5052097 -0.8319486 -0.229401
vn -0.5647246 -0.8137125 -0.1376883
vn 0.5167105 -0.8559934 0.01689558
vn 0.5410524 -0.8345103 -0.104187
vn 0.2603641 -0.9638135 0.05721797
vn 0.246292 -0.9611164 0.1248812
vn 0.3274949 0.9437385 0.04587951
vn 0.3276621 0.9436493 0.04651379
vn -0.3166858 0.9472811 0.0486677
vn -0.8065553 0.5144096 0.2912921
vn -0.2307082 -0.893793 0.3845876
vn -0.5879647 -0.6500714 0.481357
vn 0.5669351 -0.6638242 0.4877723
vn 0.2405218 -0.8897175 0.3880104
vn 0.2490185 0.8154086 0.5225884
vn 0.2447135 0.8235328 0.5117706
vn -0.2338296 0.815334 0.5296737
vn -0.5616643 0.5063035 0.6543623
vn -0.3259796 -0.6358944 0.6995539
vn -0.3987402 -0.6720195 0.624016
vn 0.4117292 -0.5579612 0.7205265
vn 0.3369042 -0.625163 0.704036
vn 0.09323283 0.4728812 0.8761798
vn -0.2564598 0.795753 -0.5486398
vn -0.2793456 0.696554 -0.6608923
vn -0.7750606 0.2953571 -0.5586101
vn -0.7750606 0.2953571 -0.5586101
vn -0.7848001 0.3225786 -0.5291803
vn -0.2407363 -0.9604749 0.1397644
vn -0.2181669 -0.9710115 0.09767288
vn -0.2407363 -0.9604749 0.1397644
vn -0.5647246 -0.8137125 -0.1376883
vn -0.6173014 -0.7854795 -0.04428398
vn 0.5410524 -0.8345103 -0.104187
vn 0.5568915 -0.7999128 -0.2236323
vn 0.246292 -0.9611164 0.1248812
vn 0.246292 -0.9611164 0.1248812
vn 0.2310417 -0.9538219 0.191947
vn 0.7461394 0.2832448 -0.6025349
vn 0.7461394 0.2832448 -0.6025349
vn 0.7393796 0.2825528 -0.6111317
vn 0.7528096 0.2839029 -0.593866
vn 0.7461394 0.2832448 -0.6025349
vn 0.3274949 0.9437385 0.04587951
vn 0.3273275 0.9438271 0.0452452
vn -0.3166858 0.9472811 0.0486677
vn -0.3164335 0.9473366 0.04922483
vn -0.316938 0.9472253 0.04811054
vn -0.8065553 0.5144096 0.2912921
vn -0.7957312 0.522461 0.3063434
vn -0.8170502 0.5061482 0.2761218
vn -0.2307082 -0.893793 0.3845876
vn -0.2295141 -0.8953782 0.3816036
vn -0.2318992 -0.8921966 0.3875669
vn -0.5879647 -0.6500714 0.481357
vn -0.5949579 -0.6234413 0.5072927
vn -0.5801303 -0.6757715 0.4547326
vn 0.5669351 -0.6638242 0.4877723
vn 0.5899329 -0.6698849 0.4508141
vn 0.5428422 -0.6564813 0.5237886
vn 0.2405218 -0.8897175 0.3880104
vn 0.238796 -0.8887884 0.3911927
vn 0.2422441 -0.8906342 0.3848227
vn 0.8139637 0.5056474 0.2859786
vn 0.8139637 0.5056474 0.2859786
vn 0.8167471 0.5128316 0.2644387
vn 0.8107544 0.4981985 0.3073687
vn 0.2490185 0.8154086 0.5225884
vn 0.2532734 0.8071199 0.533301
vn -0.2338296 0.815334 0.5296737
vn -0.2431415 0.8176967 0.52178
vn -0.2244814 0.8128453 0.5374855
vn -0.5616643 0.5063035 0.6543623
vn -0.6049737 0.47455 0.6393818
vn -0.516609 0.5364832 0.6673087
vn -0.3259796 -0.6358944 0.6995539
vn -0.2315846 -0.8542992 0.46534
vn -0.3840385 -0.346608 0.8557904
vn -0.3987402 -0.6720195 0.624016
vn -0.4846056 -0.4791826 0.7318069
vn -0.2904745 -0.8271039 0.4811693
vn 0.4117292 -0.5579612 0.7205265
vn 0.5100843 -0.5798129 0.6353197
vn 0.3062052 -0.5263944 0.793188
vn 0.3369042 -0.625163 0.704036
vn 0.2218708 -0.6004858 0.7682384
vn 0.4458856 -0.63861 0.6271868
vn 0.5947281 0.5108728 0.6207314
vn 0.5947281 0.5108728 0.6207314
vn 0.575509 0.4564404 0.6785659
vn 0.6099762 0.5618941 0.5587522
vn 0.09323283 0.4728812 0.8761798
vn 0.09323283 0.4728812 0.8761798
vn -0.08019953 0.4738378 0.8769525
vn -0.08019953 0.4738378 0.8769525
vn -0.08019953 0.4738378 0.8769525
vn -0.1634626 0.3506434 0.922133
vn -0.1634626 0.3506434 0.922133
vn -0.1634626 0.3506434 0.922133
vn -0.1614407 0.005910887 0.9868647
vn -0.1614407 0.005910887 0.9868647
vn -0.1614407 0.005910887 0.9868647
vn -0.09452847 -0.07561632 0.9926462
vn -0.09452847 -0.07561632 0.9926462
vn -0.09452847 -0.07561632 0.9926462
vn 0.1403984 -0.07656316 0.9871303
vn 0.1403984 -0.07656316 0.9871303
vn 0.1403984 -0.07656316 0.9871303
vn 0.1678568 -0.04520509 0.9847744
vn 0.1755396 0.3487787 0.9206191
vn 0.1755396 0.3487787 0.9206191
vn 0.1755396 0.3487787 0.9206191
g TheDogNose_0
f 8/8/8 36/36/36 7/7/7
f 38/38/38 37/37/37 8/8/8
f 10/10/10 39/39/39 9/9/9
f 40/40/40 39/39/39 41/41/41
f 16/16/16 46/46/46 15/15/15
f 48/48/48 47/47/47 16/16/16
f 50/50/50 49/49/49 51/51/51
f 52/52/52 49/49/49 53/53/53
f 33/33/33 102/102/102 103/103/103
f 105/105/105 104/104/104 106/106/106
f 108/108/108 107/107/107 109/109/109
f 111/111/111 110/110/110 112/112/112
f 114/114/114 113/113/113 115/115/115
f 121/121/121 120/120/120 122/122/122
f 3/3/3 1/1/1 2/2/2
f 3/3/3 4/4/4 1/1/1
f 6/6/6 34/34/34 5/5/5
f 6/6/6 35/35/35 34/34/34
f 12/12/12 42/42/42 11/11/11
f 12/12/12 43/43/43 42/42/42
f 14/14/14 44/44/44 13/13/13
f 14/14/14 45/45/45 44/44/44
f 17/17/17 54/54/54 55/55/55
f 17/17/17 18/18/18 54/54/54
f 19/19/19 56/56/56 57/57/57
f 19/19/19 58/58/58 56/56/56
f 20/20/20 59/59/59 60/60/60
f 20/20/20 61/61/61 59/59/59
f 21/21/21 62/62/62 63/63/63
f 21/21/21 64/64/64 62/62/62
f 22/22/22 65/65/65 66/66/66
f 22/22/22 67/67/67 65/65/65
f 23/23/23 68/68/68 69/69/69
f 23/23/23 70/70/70 68/68/68
f 24/24/24 71/71/71 72/72/72
f 24/24/24 73/73/73 71/71/71
f 75/75/75 74/74/74 76/76/76
f 75/75/75 77/77/77 74/74/74
f 25/25/25 78/78/78 79/79/79
f 25/25/25 26/26/26 78/78/78
f 27/27/27 80/80/80 81/81/81
f 27/27/27 82/82/82 80/80/80
f 28/28/28 83/83/83 84/84/84
f 28/28/28 85/85/85 83/83/83
f 29/29/29 86/86/86 87/87/87
f 29/29/29 88/88/88 86/86/86
f 30/30/30 89/89/89 90/90/90
f 30/30/30 91/91/91 89/89/89
f 31/31/31 92/92/92 93/93/93
f 31/31/31 94/94/94 92/92/92
f 32/32/32 95/95/95 96/96/96
f 32/32/32 97/97/97 95/95/95
f 99/99/99 98/98/98 100/100/100
f 99/99/99 101/101/101 98/98/98
f 117/117/117 118/118/118 119/119/119
f 117/117/117 116/116/116 118/118/118
