g TheLongTail
v -0.0315404 1.143469 -2.507242
v 0.03309305 1.122469 -2.507242
v 0.03309305 1.054507 -2.507242
v -0.0315404 1.03351 -2.507242
v -0.07148626 1.08849 -2.507242
v -0.03602797 1.163455 -1.379491
v 0.0521019 1.134822 -1.379491
v 0.0521019 1.134822 -1.734339
v -0.03602797 1.163455 -1.734339
v -0.09049512 1.08849 -1.379491
v -0.09049512 1.08849 -1.734339
v -0.03602797 1.013521 -1.379491
v -0.03602797 1.013521 -1.734339
v 0.0521019 1.042157 -1.379491
v 0.0521019 1.042157 -1.734339
v 0.0521019 1.134822 -2.137416
v -0.03602797 1.163455 -2.137416
v -0.09049512 1.08849 -2.137416
v -0.03602797 1.013521 -2.137416
v 0.0521019 1.042157 -2.137416
v -0.03602797 1.163455 -1.06755
v 0.0521019 1.134822 -1.06755
v -0.09049512 1.08849 -1.06755
v -0.03602797 1.013521 -1.06755
v 0.0521019 1.042157 -1.06755
v -0.03602797 1.163455 -1.734339
v -0.03602797 1.163455 -1.379491
v -0.09049512 1.08849 -1.734339
v -0.09049512 1.08849 -1.379491
v -0.03602797 1.013521 -1.734339
v -0.03602797 1.013521 -1.379491
v 0.0521019 1.134822 -1.379491
v 0.0521019 1.042157 -1.734339
v 0.0521019 1.042157 -1.379491
v 0.0521019 1.134822 -1.734339
v -0.03602797 1.163455 -1.734339
v 0.0521019 1.134822 -1.734339
v -0.09049512 1.08849 -1.734339
v -0.03602797 1.163455 -2.137416
v -0.03602797 1.163455 -1.734339
v -0.03602797 1.013521 -1.734339
v -0.09049512 1.08849 -2.137416
v -0.09049512 1.08849 -1.734339
v 0.0521019 1.042157 -1.734339
v -0.03602797 1.013521 -2.137416
v -0.03602797 1.013521 -1.734339
v 0.0521019 1.134822 -1.734339
v 0.0521019 1.042157 -2.137416
v 0.0521019 1.042157 -1.734339
v 0.0521019 1.134822 -2.137416
v 0.0521019 1.134822 -1.379491
v -0.03602797 1.163455 -1.379491
v -0.03602797 1.163455 -1.379491
v -0.03602797 1.163455 -1.06755
v -0.09049512 1.08849 -1.379491
v -0.09049512 1.08849 -1.379491
v -0.09049512 1.08849 -1.06755
v -0.03602797 1.013521 -1.379491
v -0.03602797 1.013521 -1.379491
v -0.03602797 1.013521 -1.06755
v 0.0521019 1.042157 -1.379491
v 0.0521019 1.134822 -1.06755
v 0.0521019 1.042157 -1.379491
v 0.0521019 1.042157 -1.06755
v 0.0521019 1.134822 -1.379491
v -0.03602797 1.163455 -2.137416
v 0.03309305 1.122469 -2.507242
v 0.0521019 1.134822 -2.137416
v -0.0315404 1.143469 -2.507242
v -0.09049512 1.08849 -2.137416
v -0.0315404 1.143469 -2.507242
v -0.03602797 1.163455 -2.137416
v -0.07148626 1.08849 -2.507242
v -0.03602797 1.013521 -2.137416
v -0.07148626 1.08849 -2.507242
v -0.09049512 1.08849 -2.137416
v -0.0315404 1.03351 -2.507242
v 0.0521019 1.042157 -2.137416
v -0.0315404 1.03351 -2.507242
v -0.03602797 1.013521 -2.137416
v 0.03309305 1.054507 -2.507242
v 0.0521019 1.134822 -2.137416
v 0.03309305 1.054507 -2.507242
v 0.0521019 1.042157 -2.137416
v 0.03309305 1.122469 -2.507242
vt 0.614954 0.88676
vt 0.695614 0.88676
vt 0.707685 0.943466
vt 0.657307 0.995002
vt 0.605447 0.943466
vt 0.614517 0.421367
vt 0.696051 0.421367
vt 0.696051 0.652242
vt 0.614517 0.652242
vt 0.523956 0.421367
vt 0.523956 0.652242
vt 0.433395 0.421367
vt 0.433395 0.652242
vt 0.351861 0.421367
vt 0.351861 0.652242
vt 0.696051 0.825399
vt 0.614517 0.825399
vt 0.523956 0.825399
vt 0.433395 0.825399
vt 0.351861 0.825399
vt 0.614517 0.132773
vt 0.696051 0.133232
vt 0.523956 0.132773
vt 0.433395 0.132773
vt 0.351861 0.132773
vt 0.614517 0.652242
vt 0.614517 0.421367
vt 0.523956 0.652242
vt 0.523956 0.421367
vt 0.433395 0.652242
vt 0.433395 0.421367
vt 0.274543 0.421367
vt 0.351861 0.652242
vt 0.351861 0.421367
vt 0.274543 0.652242
vt 0.614517 0.652242
vt 0.696051 0.652242
vt 0.523956 0.652242
vt 0.614517 0.825399
vt 0.614517 0.652242
vt 0.433395 0.652242
vt 0.523956 0.825399
vt 0.523956 0.652242
vt 0.351861 0.652242
vt 0.433395 0.825399
vt 0.433395 0.652242
vt 0.274543 0.652242
vt 0.351861 0.825399
vt 0.351861 0.652242
vt 0.274543 0.825399
vt 0.696051 0.421367
vt 0.614517 0.421367
vt 0.614517 0.421367
vt 0.614517 0.132773
vt 0.523956 0.421367
vt 0.523956 0.421367
vt 0.523956 0.132773
vt 0.433395 0.421367
vt 0.433395 0.421367
vt 0.433395 0.132773
vt 0.351861 0.421367
vt 0.274543 0.132773
vt 0.351861 0.421367
vt 0.351861 0.132773
vt 0.274543 0.421367
vt 0.614517 0.825399
vt 0.695614 0.88676
vt 0.696051 0.825399
vt 0.614954 0.88676
vt 0.523956 0.825399
vt 0.614954 0.88676
vt 0.614517 0.825399
vt 0.523956 0.88676
vt 0.433395 0.825399
vt 0.523956 0.88676
vt 0.523956 0.825399
vt 0.433395 0.88676
vt 0.351861 0.825399
vt 0.433395 0.88676
vt 0.433395 0.825399
vt 0.351861 0.88676
vt 0.274543 0.825399
vt 0.351861 0.88676
vt 0.351861 0.825399
vt 0.274543 0.88676
vn -0.2658637 -0.7312179 -0.6282013
vn -0.2660449 -0.7314458 -0.6278592
vn -0.2658632 -0.7312708 -0.62814
vn -0.2657731 -0.7311038 -0.6283724
vn -0.2658648 -0.7311122 -0.6283239
vn 0.5032066 0.7086667 0.4945448
vn 0.5078687 0.7067029 0.4925854
vn 0.5032066 0.7086667 0.4945448
vn 0.4985297 0.7106097 0.4964896
vn -0.6137628 0.4164308 0.6707315
vn -0.6109834 0.4179415 0.6723275
vn -0.8865274 -0.4530829 -0.09372877
vn -0.8825145 -0.4582454 -0.1057319
vn 0.05998321 -0.6878811 -0.7233406
vn 0.05605394 -0.689789 -0.7218373
vn 0.3978431 0.8698198 0.2917779
vn 0.3864701 0.8735458 0.2959031
vn -0.6366176 0.5007454 0.5864913
vn -0.7986556 -0.6015835 0.01570125
vn 0.1214659 -0.8309824 -0.5428759
vn 0.3289938 0.9384658 0.1050951
vn 0.3471431 0.9320475 0.1038232
vn -0.7061846 0.5964083 0.3815764
vn -0.7970638 -0.5940468 0.1086169
vn 0.2059849 -0.9199573 -0.3335396
vn -0.6137628 0.4164308 0.6707315
vn -0.6165344 0.4149149 0.669127
vn -0.8865274 -0.4530829 -0.09372877
vn -0.8903746 -0.4478358 -0.08170811
vn 0.05998321 -0.6878811 -0.7233406
vn 0.0639112 -0.6859585 -0.7248285
vn 0.9326515 0.02638269 -0.3598126
vn 0.9326515 0.02638269 -0.3598126
vn 0.931572 0.02009088 -0.3630015
vn 0.9336836 0.03267316 -0.3566053
vn 0.3978431 0.8698198 0.2917779
vn 0.4091524 0.8659545 0.2876059
vn -0.6494303 0.4895592 0.5818695
vn -0.6494303 0.4895592 0.5818695
vn -0.6620411 0.4782211 0.5770668
vn -0.8102462 -0.5847484 0.03963017
vn -0.8102462 -0.5847484 0.03963017
vn -0.8210343 -0.5673341 0.06351985
vn 0.1337351 -0.8246893 -0.5495477
vn 0.1337351 -0.8246893 -0.5495477
vn 0.1459728 -0.8182025 -0.5560904
vn 0.916178 0.06568912 -0.3953516
vn 0.916178 0.06568912 -0.3953516
vn 0.9157387 0.05620095 -0.3978242
vn 0.9165289 0.07517094 -0.392841
vn 0.3289938 0.9384658 0.1050951
vn 0.3107221 0.9445349 0.106328
vn -0.7061846 0.5964083 0.3815764
vn -0.735949 0.5671303 0.3697867
vn -0.675091 0.6245638 0.3926478
vn -0.7970638 -0.5940468 0.1086169
vn -0.8054303 -0.5800719 0.1216497
vn -0.7883505 -0.6077632 0.09553675
vn 0.2059849 -0.9199573 -0.3335396
vn 0.2233593 -0.9122458 -0.3433923
vn 0.1885159 -0.9272473 -0.323534
vn 0.9466006 -0.004779065 -0.3223732
vn 0.9466006 -0.004779065 -0.3223732
vn 0.9464914 0.01081617 -0.322548
vn 0.9464796 -0.02037314 -0.32212
vn 0.141993 0.9778191 -0.1539736
vn 0.141993 0.9778191 -0.1539736
vn 0.1829372 0.9692932 -0.1643315
vn 0.1007853 0.9845297 -0.1433298
vn -0.749861 0.5840048 0.3108808
vn -0.749861 0.5840048 0.3108808
vn -0.7886047 0.526729 0.3172682
vn -0.7075012 0.6384642 0.3029942
vn -0.6286426 -0.7456815 0.2208339
vn -0.6286426 -0.7456815 0.2208339
vn -0.7046964 -0.6461004 0.2931847
vn -0.5394281 -0.8296515 0.1438599
vn 0.2506812 -0.9408361 -0.2280052
vn 0.2506812 -0.9408361 -0.2280052
vn 0.2914547 -0.9198935 -0.262393
vn 0.2090845 -0.9586894 -0.1928688
vn 0.8735675 0.07041995 -0.4815817
vn 0.8735675 0.07041995 -0.4815817
vn 0.8720215 0.07983451 -0.482913
vn 0.8750322 0.06099888 -0.4802057
g TheLongTail_0
f 1/1/1 4/4/4 5/5/5
f 1/1/1 3/3/3 4/4/4
f 2/2/2 3/3/3 1/1/1
f 8/8/8 6/6/6 7/7/7
f 8/8/8 9/9/9 6/6/6
f 26/26/26 10/10/10 27/27/27
f 26/26/26 11/11/11 10/10/10
f 28/28/28 12/12/12 29/29/29
f 28/28/28 13/13/13 12/12/12
f 30/30/30 14/14/14 31/31/31
f 30/30/30 15/15/15 14/14/14
f 33/33/33 32/32/32 34/34/34
f 33/33/33 35/35/35 32/32/32
f 16/16/16 36/36/36 37/37/37
f 16/16/16 17/17/17 36/36/36
f 39/39/39 38/38/38 40/40/40
f 39/39/39 18/18/18 38/38/38
f 42/42/42 41/41/41 43/43/43
f 42/42/42 19/19/19 41/41/41
f 45/45/45 44/44/44 46/46/46
f 45/45/45 20/20/20 44/44/44
f 48/48/48 47/47/47 49/49/49
f 48/48/48 50/50/50 47/47/47
f 51/51/51 21/21/21 22/22/22
f 51/51/51 52/52/52 21/21/21
f 53/53/53 23/23/23 54/54/54
f 53/53/53 55/55/55 23/23/23
f 56/56/56 24/24/24 57/57/57
f 56/56/56 58/58/58 24/24/24
f 59/59/59 25/25/25 60/60/60
f 59/59/59 61/61/61 25/25/25
f 63/63/63 62/62/62 64/64/64
f 63/63/63 65/65/65 62/62/62
f 67/67/67 66/66/66 68/68/68
f 67/67/67 69/69/69 66/66/66
f 71/71/71 70/70/70 72/72/72
f 71/71/71 73/73/73 70/70/70
f 75/75/75 74/74/74 76/76/76
f 75/75/75 77/77/77 74/74/74
f 79/79/79 78/78/78 80/80/80
f 79/79/79 81/81/81 78/78/78
f 83/83/83 82/82/82 84/84/84
f 83/83/83 85/85/85 82/82/82
