g TheLCatEar
v 0.2097094 2.183136 -0.08781257
v 0.3029087 2.094948 -0.07171121
v 0.3976268 2.207112 -0.06763359
v 0.3155533 2.284772 -0.0818129
v 0.3483894 2.052133 -0.0501716
v 0.4381043 2.16892 -0.05379415
v 0.3110149 2.085691 -0.1693344
v 0.405195 2.198474 -0.1587334
v 0.2178165 2.173882 -0.1854351
v 0.3231185 2.276137 -0.1729121
v 0.1619902 2.228512 -0.08237403
v 0.2739555 2.324243 -0.08215275
v 0.07393716 2.018376 -0.04854245
v 0.03908999 2.051789 -0.02735735
v 0.0781687 2.013545 -0.09950013
v 0.1207118 1.97329 -0.09215049
v 0.1468724 1.949799 -0.008736695
v 0.1164802 1.978121 -0.0411928
v 0.406021 2.342485 0.03721181
v 0.4279087 2.321774 0.04099286
v 0.4407865 2.311847 0.04279727
v 0.4414631 2.330446 0.01880052
v 0.4195755 2.351157 0.01501939
v 0.3970142 2.353266 0.03523519
v 0.3483894 2.052133 -0.0501716
v 0.4381043 2.16892 -0.05379415
v 0.2178165 2.173882 -0.1854351
v 0.3231185 2.276137 -0.1729121
v 0.1619902 2.228512 -0.08237403
v 0.2739555 2.324243 -0.08215275
v 0.0781687 2.013545 -0.09950013
v 0.1207118 1.97329 -0.09215049
v 0.4407865 2.311847 0.04279727
v 0.4414631 2.330446 0.01880052
v 0.4407865 2.311847 0.04279727
v 0.4195755 2.351157 0.01501939
v 0.3970142 2.353266 0.03523519
v 0.4195755 2.351157 0.01501939
v 0.3970142 2.353266 0.03523519
v 0.03908999 2.051789 -0.02735735
v 0.07393716 2.018376 -0.04854245
v 0.0781687 2.013545 -0.09950013
v 0.03908999 2.051789 -0.02735735
v 0.1207118 1.97329 -0.09215049
v 0.0781687 2.013545 -0.09950013
v 0.1468724 1.949799 -0.008736695
v 0.1207118 1.97329 -0.09215049
v 0.1468724 1.949799 -0.008736695
vt 0.327527 0.408869
vt 0.551697 0.408869
vt 0.551697 0.706011
vt 0.327527 0.706011
vt 0.689201 0.408869
vt 0.689201 0.706011
vt 0.860154 0.408869
vt 0.860154 0.706011
vt 0.994238 0.408869
vt 0.994238 0.706011
vt 0.161976 0.408869
vt 0.161976 0.706011
vt 0.500362 0.091446
vt 0.564683 0.00576192
vt 0.680965 0.00576192
vt 0.749706 0.0914461
vt 0.689201 0.16992
vt 0.551697 0.169922
vt 0.409997 0.907687
vt 0.465359 0.907685
vt 0.499745 0.954424
vt 0.470097 0.994238
vt 0.405811 0.994238
vt 0.375776 0.954424
vt 0.689201 0.408869
vt 0.689201 0.706011
vt 0.00576192 0.408869
vt 0.00792289 0.706011
vt 0.161976 0.408869
vt 0.161976 0.706011
vt 0.680965 0.00576192
vt 0.749706 0.0914461
vt 0.519942 0.907686
vt 0.601688 0.907686
vt 0.519942 0.907686
vt 0.651691 0.907686
vt 0.345873 0.907686
vt 0.27042 0.907686
vt 0.345873 0.907686
vt 0.161976 0.169921
vt 0.327527 0.169921
vt 0.0155666 0.169921
vt 0.161976 0.169921
vt 0.83862 0.169921
vt 0.971659 0.169921
vt 0.689201 0.16992
vt 0.83862 0.169921
vt 0.689201 0.16992
vn 0.08798508 0.04352002 0.9951707
vn -0.09337697 0.2059574 0.9740956
vn -0.3822706 -0.2084311 0.9002365
vn -0.3160732 -0.2745163 0.9081512
vn 0.6206741 -0.3598262 0.6966268
vn 0.6291468 -0.2228815 0.7446464
vn 0.3035606 -0.534346 -0.7888761
vn 0.7696459 0.005888881 -0.6384438
vn -0.3905641 0.1627306 -0.9060786
vn 0.07964242 0.6096553 -0.7886555
vn -0.6929157 0.5370882 0.4810447
vn -0.8066619 0.4983025 0.317791
vn -0.4171968 -0.4933667 0.7632406
vn -0.4952189 -0.2443054 0.8337104
vn -0.7945769 -0.290763 -0.5330144
vn -0.4336798 -0.7804936 -0.4502794
vn -0.08330632 -0.996272 0.0224117
vn -0.5132875 -0.06401917 0.8558256
vn -0.01377191 0.1486734 0.9887905
vn -0.4451006 -0.3509492 0.8238447
vn 0.1367968 -0.03942643 0.9898142
vn 0.8792939 0.4715532 0.06693193
vn 0.5524332 0.8311167 -0.06373923
vn -0.008968796 0.9595326 0.281455
vn 0.6206741 -0.3598262 0.6966268
vn 0.6291468 -0.2228815 0.7446464
vn -0.3905641 0.1627306 -0.9060786
vn 0.07964242 0.6096553 -0.7886555
vn -0.6929157 0.5370882 0.4810447
vn -0.8066619 0.4983025 0.317791
vn -0.7945769 -0.290763 -0.5330144
vn -0.4336798 -0.7804936 -0.4502794
vn 0.1367968 -0.03942643 0.9898142
vn 0.8792939 0.4715532 0.06693193
vn 0.1367968 -0.03942643 0.9898142
vn 0.5524332 0.8311167 -0.06373923
vn -0.008968796 0.9595326 0.281455
vn 0.5524332 0.8311167 -0.06373923
vn -0.008968796 0.9595326 0.281455
vn -0.4952189 -0.2443054 0.8337104
vn -0.4171968 -0.4933667 0.7632406
vn -0.7945769 -0.290763 -0.5330144
vn -0.4952189 -0.2443054 0.8337104
vn -0.4336798 -0.7804936 -0.4502794
vn -0.7945769 -0.290763 -0.5330144
vn -0.08330632 -0.996272 0.0224117
vn -0.4336798 -0.7804936 -0.4502794
vn -0.08330632 -0.996272 0.0224117
g TheLCatEar_0
f 15/15/15 13/13/13 14/14/14
f 18/18/18 32/32/32 17/17/17
f 16/16/16 13/13/13 31/31/31
f 16/16/16 18/18/18 13/13/13
f 19/19/19 23/23/23 24/24/24
f 19/19/19 22/22/22 23/23/23
f 21/21/21 22/22/22 19/19/19
f 7/7/7 46/46/46 47/47/47
f 7/7/7 25/25/25 46/46/46
f 8/8/8 25/25/25 7/7/7
f 8/8/8 26/26/26 25/25/25
f 34/34/34 26/26/26 8/8/8
f 34/34/34 35/35/35 26/26/26
f 11/11/11 42/42/42 43/43/43
f 11/11/11 27/27/27 42/42/42
f 12/12/12 27/27/27 11/11/11
f 12/12/12 28/28/28 27/27/27
f 37/37/37 28/28/28 12/12/12
f 37/37/37 38/38/38 28/28/28
f 33/33/33 3/3/3 6/6/6
f 20/20/20 3/3/3 33/33/33
f 20/20/20 4/4/4 3/3/3
f 19/19/19 4/4/4 20/20/20
f 19/19/19 30/30/30 4/4/4
f 39/39/39 30/30/30 19/19/19
f 8/8/8 36/36/36 34/34/34
f 8/8/8 10/10/10 36/36/36
f 7/7/7 10/10/10 8/8/8
f 7/7/7 9/9/9 10/10/10
f 44/44/44 9/9/9 7/7/7
f 44/44/44 45/45/45 9/9/9
f 40/40/40 1/1/1 29/29/29
f 41/41/41 1/1/1 40/40/40
f 41/41/41 2/2/2 1/1/1
f 18/18/18 2/2/2 41/41/41
f 18/18/18 5/5/5 2/2/2
f 48/48/48 5/5/5 18/18/18
f 29/29/29 4/4/4 30/30/30
f 1/1/1 4/4/4 29/29/29
f 1/1/1 3/3/3 4/4/4
f 2/2/2 3/3/3 1/1/1
f 2/2/2 6/6/6 3/3/3
f 5/5/5 6/6/6 2/2/2
f 21/21/21 19/19/19 20/20/20
