g TheLRabbitEar
v 0.2163135 2.404488 -0.01992112
v 0.3395228 2.355848 -0.009987381
v 0.4138666 2.526807 -0.03192689
v 0.2819141 2.578901 -0.04256563
v 0.4002786 2.332141 0.008534705
v 0.4792065 2.501222 -0.01643863
v 0.3456767 2.351398 -0.1080894
v 0.4198132 2.522506 -0.1267517
v 0.2224662 2.400038 -0.1180231
v 0.287861 2.5746 -0.1373892
v 0.1538582 2.429424 -0.01133268
v 0.2152997 2.605409 -0.03771565
v 0.4892314 2.982172 0.09421764
v 0.517401 2.971053 0.09648839
v 0.5340553 2.968975 0.097422
v 0.5347228 3.007254 0.07354672
v 0.5065532 3.018373 0.07127595
v 0.4777192 2.991216 0.09288049
v 0.3604077 2.749135 -0.01970395
v 0.4697699 2.705959 -0.01088675
v 0.4973056 2.836655 0.02453942
v 0.4233062 2.86587 0.01857293
v 0.5240244 2.684678 0.0003046765
v 0.535433 2.82392 0.03081741
v 0.4755093 2.701805 -0.1024332
v 0.508891 2.852663 -0.03270047
v 0.3661471 2.74498 -0.1112502
v 0.4348917 2.881878 -0.03866662
v 0.3052999 2.771028 -0.01732968
v 0.3874313 2.88235 0.01888513
v 0.1109652 2.256599 0.01793157
v 0.1619268 2.236065 0.001684194
v 0.1666089 2.232678 -0.07297064
v 0.2659923 2.193441 -0.06495775
v 0.3097317 2.178128 0.03395685
v 0.2613102 2.196828 0.009696877
v 0.1890025 2.036033 0.04385858
v 0.1695142 2.042675 -0.008982334
v 0.1241405 2.060588 -0.01264082
v 0.09825319 2.07186 0.03654217
v 0.1220441 2.062103 0.02078053
v 0.1674181 2.04419 0.02443889
v 0.3456767 2.351398 -0.1080894
v 0.4198132 2.522506 -0.1267517
v 0.1538582 2.429424 -0.01133268
v 0.2152997 2.605409 -0.03771565
v 0.4892314 2.982172 0.09421764
v 0.5240244 2.684678 0.0003046765
v 0.535433 2.82392 0.03081741
v 0.4755093 2.701805 -0.1024332
v 0.508891 2.852663 -0.03270047
v 0.1109652 2.256599 0.01793157
v 0.2659923 2.193441 -0.06495775
v 0.2152997 2.605409 -0.03771565
v 0.517401 2.971053 0.09648839
v 0.5065532 3.018373 0.07127595
v 0.5347228 3.007254 0.07354672
v 0.5347228 3.007254 0.07354672
v 0.1695142 2.042675 -0.008982334
v 0.1890025 2.036033 0.04385858
vt 0.419503 0.421716
vt 0.521462 0.328302
vt 0.655391 0.469845
vt 0.546198 0.569887
vt 0.564053 0.250679
vt 0.708434 0.387213
vt 0.613437 0.158736
vt 0.759276 0.285877
vt 0.303434 0.517462
vt 0.427748 0.67631
vt 0.369319 0.471058
vt 0.489753 0.618884
vt 0.89312 0.892007
vt 0.916429 0.870651
vt 0.938671 0.856772
vt 0.946322 0.900043
vt 0.923013 0.921398
vt 0.877608 0.918709
vt 0.68389 0.709184
vt 0.774388 0.62627
vt 0.848352 0.745263
vt 0.787115 0.801368
vt 0.822597 0.578688
vt 0.883451 0.715172
vt 0.882553 0.521506
vt 0.937592 0.683824
vt 0.573709 0.814504
vt 0.717471 0.912849
vt 0.636194 0.755537
vt 0.760344 0.839252
vt 0.260666 0.321356
vt 0.305853 0.275332
vt 0.191499 0.369106
vt 0.109099 0.441281
vt 0.428722 0.138134
vt 0.388094 0.199983
vt 0.275593 0.0572186
vt 0.303156 0.00887126
vt 0.0945802 0.214102
vt 0.151147 0.171532
vt 0.204274 0.11814
vt 0.241822 0.0837386
vt 0.197858 0.606735
vt 0.318537 0.776297
vt 0.369319 0.471058
vt 0.489753 0.618884
vt 0.89312 0.892007
vt 0.822597 0.578688
vt 0.883451 0.715172
vt 0.466253 0.905097
vt 0.675172 0.981829
vt 0.260666 0.321356
vt 0.477769 0.0739313
vt 0.489753 0.618884
vt 0.916429 0.870651
vt 0.855426 0.952276
vt 0.841085 0.99241
vt 0.982997 0.837653
vt 0.0170032 0.277509
vt 0.275593 0.0572186
vn 0.1061457 0.1090906 0.9883483
vn -0.09618421 0.1846575 0.9780849
vn -0.1191775 0.04954864 0.9916358
vn 0.01648189 -0.004681946 0.9998533
vn 0.7240021 -0.2500264 0.6428902
vn 0.7887443 -0.1632785 0.5926402
vn 0.4424518 -0.3719827 -0.8160057
vn 0.5021623 -0.180268 -0.8457756
vn -0.4611151 -0.01962947 -0.8871232
vn -0.3790819 0.1806438 -0.9075597
vn -0.798677 0.3021925 0.5203794
vn -0.8361111 0.2707148 0.4771077
vn -0.05506925 0.01054889 0.9984268
vn -0.1599564 -0.3544385 0.9212965
vn 0.1843701 -0.1103887 0.9766381
vn 0.8219035 0.5284426 0.2126569
vn 0.06132564 0.9979747 -0.01689913
vn -0.6050038 0.6221506 0.4968893
vn -0.07871011 -0.2014903 0.9763229
vn -0.1772142 -0.1595924 0.9711464
vn -0.194637 -0.3568101 0.9136755
vn -0.167772 -0.3745723 0.9118925
vn 0.7644591 -0.1795219 0.6191723
vn 0.6950439 -0.2577564 0.6711748
vn 0.600905 0.1027913 -0.7926836
vn 0.6597751 0.3006185 -0.6887127
vn -0.2844758 0.4363029 -0.853647
vn -0.2342585 0.6461322 -0.7263857
vn -0.824441 0.308422 0.4745239
vn -0.8389255 0.3123958 0.4456598
vn -0.7801331 0.1703431 0.6019762
vn 0.1931239 0.07787842 0.9780788
vn -0.5054187 -0.1189208 -0.8546401
vn 0.3943364 -0.4898569 -0.7775211
vn 0.6078914 -0.3046252 0.7332608
vn -0.1549512 0.2080709 0.9657621
vn 0.7788879 -0.6271446 -0.004849189
vn 0.2332886 -0.4714642 -0.8504693
vn -0.6762124 -0.1036773 -0.7293749
vn -0.004631978 0.04228848 0.9990947
vn 0.1695845 0.07096275 0.9829574
vn -0.2903976 0.3054897 0.9068325
vn 0.4424518 -0.3719827 -0.8160057
vn 0.5021623 -0.180268 -0.8457756
vn -0.798677 0.3021925 0.5203794
vn -0.8361111 0.2707148 0.4771077
vn -0.05506925 0.01054889 0.9984268
vn 0.7644591 -0.1795219 0.6191723
vn 0.6950439 -0.2577564 0.6711748
vn 0.600905 0.1027913 -0.7926836
vn 0.6597751 0.3006185 -0.6887127
vn -0.7801331 0.1703431 0.6019762
vn 0.3943364 -0.4898569 -0.7775211
vn -0.8361111 0.2707148 0.4771077
vn -0.1599564 -0.3544385 0.9212965
vn 0.06132564 0.9979747 -0.01689913
vn 0.8219035 0.5284426 0.2126569
vn 0.8219035 0.5284426 0.2126569
vn 0.2332886 -0.4714642 -0.8504693
vn 0.7788879 -0.6271446 -0.004849189
g TheLRabbitEar_0
f 15/15/15 13/13/13 14/14/14
f 8/8/8 5/5/5 7/7/7
f 6/6/6 5/5/5 8/8/8
f 6/6/6 2/2/2 5/5/5
f 3/3/3 2/2/2 6/6/6
f 3/3/3 1/1/1 2/2/2
f 4/4/4 1/1/1 3/3/3
f 4/4/4 45/45/45 1/1/1
f 46/46/46 45/45/45 4/4/4
f 47/47/47 17/17/17 18/18/18
f 47/47/47 16/16/16 17/17/17
f 15/15/15 16/16/16 47/47/47
f 33/33/33 59/59/59 39/39/39
f 33/33/33 34/34/34 59/59/59
f 9/9/9 34/34/34 33/33/33
f 9/9/9 43/43/43 34/34/34
f 10/10/10 43/43/43 9/9/9
f 10/10/10 44/44/44 43/43/43
f 27/27/27 44/44/44 10/10/10
f 27/27/27 50/50/50 44/44/44
f 28/28/28 50/50/50 27/27/27
f 28/28/28 51/51/51 50/50/50
f 56/56/56 51/51/51 28/28/28
f 56/56/56 57/57/57 51/51/51
f 25/25/25 6/6/6 8/8/8
f 25/25/25 48/48/48 6/6/6
f 26/26/26 48/48/48 25/25/25
f 26/26/26 49/49/49 48/48/48
f 58/58/58 49/49/49 26/26/26
f 58/58/58 15/15/15 49/49/49
f 35/35/35 7/7/7 5/5/5
f 35/35/35 53/53/53 7/7/7
f 37/37/37 53/53/53 35/35/35
f 37/37/37 38/38/38 53/53/53
f 28/28/28 18/18/18 56/56/56
f 28/28/28 30/30/30 18/18/18
f 27/27/27 30/30/30 28/28/28
f 27/27/27 29/29/29 30/30/30
f 10/10/10 29/29/29 27/27/27
f 10/10/10 12/12/12 29/29/29
f 9/9/9 12/12/12 10/10/10
f 9/9/9 11/11/11 12/12/12
f 33/33/33 11/11/11 9/9/9
f 33/33/33 52/52/52 11/11/11
f 39/39/39 52/52/52 33/33/33
f 39/39/39 40/40/40 52/52/52
f 40/40/40 32/32/32 31/31/31
f 41/41/41 32/32/32 40/40/40
f 41/41/41 36/36/36 32/32/32
f 42/42/42 36/36/36 41/41/41
f 42/42/42 35/35/35 36/36/36
f 60/60/60 35/35/35 42/42/42
f 29/29/29 22/22/22 30/30/30
f 19/19/19 22/22/22 29/29/29
f 19/19/19 21/21/21 22/22/22
f 20/20/20 21/21/21 19/19/19
f 20/20/20 24/24/24 21/21/21
f 23/23/23 24/24/24 20/20/20
f 5/5/5 36/36/36 35/35/35
f 2/2/2 36/36/36 5/5/5
f 2/2/2 32/32/32 36/36/36
f 1/1/1 32/32/32 2/2/2
f 1/1/1 31/31/31 32/32/32
f 45/45/45 31/31/31 1/1/1
f 54/54/54 19/19/19 29/29/29
f 4/4/4 19/19/19 54/54/54
f 4/4/4 20/20/20 19/19/19
f 3/3/3 20/20/20 4/4/4
f 3/3/3 23/23/23 20/20/20
f 6/6/6 23/23/23 3/3/3
f 30/30/30 47/47/47 18/18/18
f 22/22/22 47/47/47 30/30/30
f 22/22/22 55/55/55 47/47/47
f 21/21/21 55/55/55 22/22/22
f 21/21/21 15/15/15 55/55/55
f 24/24/24 15/15/15 21/21/21
