g TheLAntenna
v 0.121133 2.1732 -0.006143274
v 0.2004691 2.472885 0.01175333
v 0.100677 2.182411 -0.01302715
v 0.1800121 2.482093 0.004869454
v 0.1008507 2.183764 -0.03645347
v 0.1801868 2.483446 -0.01855647
v 0.1214146 2.175391 -0.04404787
v 0.2007504 2.475076 -0.02615077
v 0.1339498 2.168862 -0.02531531
v 0.2132859 2.468551 -0.007418497
v 0.4130985 2.808991 0.03271997
v 0.4237452 2.802971 0.0149355
v 0.396685 2.821649 0.02670529
v 0.3971879 2.823457 0.005203119
v 0.4139123 2.811914 -0.002070866
v 0.3356854 2.756916 -0.001608094
v 0.3533455 2.743639 -0.009507626
v 0.3355117 2.755563 0.02181838
v 0.3530651 2.741451 0.02839706
v 0.3640897 2.734081 0.00903671
v 0.3365723 2.783571 0.03474446
v 0.3713165 2.756773 0.04747626
v 0.3376361 2.787396 -0.01077032
v 0.3730386 2.762963 -0.02616824
v 0.3938534 2.744035 0.009830958
v 0.100677 2.182411 -0.01302715
v 0.1800121 2.482093 0.004869454
v 0.1008507 2.183764 -0.03645347
v 0.1801868 2.483446 -0.01855647
v 0.1214146 2.175391 -0.04404787
v 0.2007504 2.475076 -0.02615077
v 0.1339498 2.168862 -0.02531531
v 0.121133 2.1732 -0.006143274
v 0.2132859 2.468551 -0.007418497
v 0.2004691 2.472885 0.01175333
v 0.1801868 2.483446 -0.01855647
v 0.2007504 2.475076 -0.02615077
v 0.1800121 2.482093 0.004869454
v 0.1801868 2.483446 -0.01855647
v 0.3356854 2.756916 -0.001608094
v 0.3355117 2.755563 0.02181838
v 0.1800121 2.482093 0.004869454
v 0.2004691 2.472885 0.01175333
v 0.2004691 2.472885 0.01175333
v 0.3530651 2.741451 0.02839706
v 0.2132859 2.468551 -0.007418497
v 0.2132859 2.468551 -0.007418497
v 0.3533455 2.743639 -0.009507626
v 0.3640897 2.734081 0.00903671
v 0.3355117 2.755563 0.02181838
v 0.3530651 2.741451 0.02839706
v 0.3365723 2.783571 0.03474446
v 0.3356854 2.756916 -0.001608094
v 0.3355117 2.755563 0.02181838
v 0.3376361 2.787396 -0.01077032
v 0.3356854 2.756916 -0.001608094
v 0.3533455 2.743639 -0.009507626
v 0.3730386 2.762963 -0.02616824
v 0.3533455 2.743639 -0.009507626
v 0.3640897 2.734081 0.00903671
v 0.3713165 2.756773 0.04747626
v 0.3938534 2.744035 0.009830958
v 0.3530651 2.741451 0.02839706
v 0.3640897 2.734081 0.00903671
v 0.3365723 2.783571 0.03474446
v 0.396685 2.821649 0.02670529
v 0.3713165 2.756773 0.04747626
v 0.4130985 2.808991 0.03271997
v 0.3365723 2.783571 0.03474446
v 0.3376361 2.787396 -0.01077032
v 0.396685 2.821649 0.02670529
v 0.3971879 2.823457 0.005203119
v 0.3376361 2.787396 -0.01077032
v 0.3730386 2.762963 -0.02616824
v 0.3971879 2.823457 0.005203119
v 0.4139123 2.811914 -0.002070866
v 0.3730386 2.762963 -0.02616824
v 0.3938534 2.744035 0.009830958
v 0.4139123 2.811914 -0.002070866
v 0.4237452 2.802971 0.0149355
v 0.3713165 2.756773 0.04747626
v 0.4130985 2.808991 0.03271997
v 0.3938534 2.744035 0.009830958
v 0.4237452 2.802971 0.0149355
vt 0.063318 0.00662708
vt 0.308889 0.464444
vt 0 0.0206968
vt 0.245568 0.478512
vt 0.000538051 0.0227625
vt 0.246108 0.480579
vt 0.0641899 0.00997263
vt 0.30976 0.467788
vt 0.102991 -1.19209E-07
vt 0.348561 0.457816
vt 0.967042 0.977898
vt 1 0.968707
vt 0.916241 0.997239
vt 0.917795 1
vt 0.969562 0.982365
vt 0.727423 0.898349
vt 0.782094 0.878066
vt 0.726885 0.896282
vt 0.781223 0.874722
vt 0.815343 0.863463
vt 0.730173 0.939067
vt 0.837716 0.89813
vt 0.733469 0.944911
vt 0.843048 0.907584
vt 0.907477 0.878672
vt 0 0.0206968
vt 0.245568 0.478512
vt 0.000538051 0.0227625
vt 0.246108 0.480579
vt 0.0641899 0.00997263
vt 0.30976 0.467788
vt 0.102991 -1.19209E-07
vt 0.063318 0.00662708
vt 0.348561 0.457816
vt 0.308889 0.464444
vt 0.246108 0.480579
vt 0.30976 0.467788
vt 0.245568 0.478512
vt 0.246108 0.480579
vt 0.727423 0.898349
vt 0.726885 0.896282
vt 0.245568 0.478512
vt 0.308889 0.464444
vt 0.308889 0.464444
vt 0.781223 0.874722
vt 0.348561 0.457816
vt 0.348561 0.457816
vt 0.782094 0.878066
vt 0.815343 0.863463
vt 0.726885 0.896282
vt 0.781223 0.874722
vt 0.730173 0.939067
vt 0.727423 0.898349
vt 0.726885 0.896282
vt 0.733469 0.944911
vt 0.727423 0.898349
vt 0.782094 0.878066
vt 0.843048 0.907584
vt 0.782094 0.878066
vt 0.815343 0.863463
vt 0.837716 0.89813
vt 0.907477 0.878672
vt 0.781223 0.874722
vt 0.815343 0.863463
vt 0.730173 0.939067
vt 0.916241 0.997239
vt 0.837716 0.89813
vt 0.967042 0.977898
vt 0.730173 0.939067
vt 0.733469 0.944911
vt 0.916241 0.997239
vt 0.917795 1
vt 0.733469 0.944911
vt 0.843048 0.907584
vt 0.917795 1
vt 0.969562 0.982365
vt 0.843048 0.907584
vt 0.907477 0.878672
vt 0.969562 0.982365
vt 1 0.968707
vt 0.837716 0.89813
vt 0.967042 0.977898
vt 0.907477 0.878672
vt 1 0.968707
vn -0.3009631 0.3685142 0.8795559
vn -0.2512633 0.3562615 0.8999692
vn -0.2512633 0.3562615 0.8999692
vn -0.2008004 0.3429269 0.9176493
vn -0.9665204 0.2441488 -0.07892831
vn -0.9653829 0.2566575 -0.04650585
vn -0.3003395 -0.2111245 -0.9301734
vn -0.3407077 -0.1931353 -0.920118
vn 0.7841967 -0.3796159 -0.4908436
vn 0.757006 -0.3809499 -0.5308665
vn 0.5949454 0.7478779 0.2944804
vn 0.5949939 0.747765 0.2946689
vn 0.5949817 0.7477937 0.2946205
vn 0.5950181 0.7477086 0.2947632
vn 0.5950184 0.7477074 0.2947657
vn -0.4291932 0.2215343 -0.875623
vn -0.3509364 0.1666998 -0.9214417
vn -0.8622402 0.5013992 0.07169925
vn -0.1697256 0.1418571 0.975228
vn 0.7843814 -0.4247192 0.4520613
vn -0.5409895 -0.5306446 0.6524928
vn -0.5430248 -0.5224152 0.657424
vn -0.9977998 0.06624098 0.002739672
vn -0.5181408 0.03370157 -0.8546311
vn 0.2709263 -0.5941607 -0.7573453
vn -0.9653829 0.2566575 -0.04650585
vn -0.9630784 0.2688558 -0.01402718
vn -0.3407077 -0.1931353 -0.920118
vn -0.380376 -0.1747493 -0.9081722
vn 0.757006 -0.3809499 -0.5308665
vn 0.7280416 -0.3813915 -0.5696455
vn 0.7846739 -0.02012237 0.6195821
vn 0.8019117 -0.03515397 0.5964074
vn 0.8019117 -0.03515397 0.5964074
vn 0.8182994 -0.0501483 0.5726005
vn -0.3509364 0.1666998 -0.9214417
vn -0.2687384 0.1099931 -0.9569123
vn -0.8618939 0.5065214 -0.02398173
vn -0.8622402 0.5013992 0.07169925
vn -0.85467 0.4916734 0.1667219
vn -0.07072087 0.07357827 0.9947788
vn -0.1697256 0.1418571 0.975228
vn -0.2662107 0.2080299 0.9411989
vn 0.6994088 -0.3823699 0.6038382
vn 0.7448853 -0.4051711 0.5300776
vn 0.7448853 -0.4051711 0.5300776
vn 0.6382602 -0.3975693 -0.6592135
vn 0.6382602 -0.3975693 -0.6592135
vn 0.559854 -0.3670733 -0.7428463
vn -0.5430248 -0.5224152 0.657424
vn -0.5450079 -0.5141356 0.6622922
vn -0.998426 0.05568769 0.006677199
vn -0.998426 0.05568769 0.006677199
vn -0.9989248 0.04512729 0.01061387
vn -0.515242 0.02109694 -0.8567851
vn -0.5181408 0.03370157 -0.8546311
vn -0.5209505 0.0463004 -0.8523303
vn 0.2724145 -0.5905584 -0.7596257
vn 0.2709263 -0.5941607 -0.7573453
vn 0.2694327 -0.5977511 -0.7550494
vn 0.2526124 -0.9485044 0.1911184
vn 0.2585916 -0.9434754 0.2073267
vn 0.2585916 -0.9434754 0.2073267
vn 0.2644871 -0.938141 0.2234679
vn -0.080862 0.06576778 0.9945531
vn -0.08100446 0.0658211 0.994538
vn -0.08100446 0.0658211 0.994538
vn -0.08114692 0.06587443 0.9945229
vn -0.5231944 0.8011479 0.2905674
vn -0.5230685 0.8013231 0.2903112
vn -0.5230685 0.8013231 0.2903112
vn -0.5229425 0.8014982 0.290055
vn -0.05309308 0.6981204 -0.714009
vn -0.0528792 0.6980664 -0.7140777
vn -0.0528792 0.6980664 -0.7140777
vn -0.0526653 0.6980124 -0.7141464
vn 0.7323503 -0.1510371 -0.6639659
vn 0.7324346 -0.1510717 -0.6638651
vn 0.7324346 -0.1510717 -0.6638651
vn 0.7325189 -0.1511063 -0.6637643
vn 0.7134581 -0.5536779 0.4294395
vn 0.7132692 -0.5537629 0.4296438
vn 0.7132692 -0.5537629 0.4296438
vn 0.7130802 -0.5538478 0.4298479
g TheLAntenna_0
f 3/3/3 2/2/2 4/4/4
f 3/3/3 1/1/1 2/2/2
f 6/6/6 26/26/26 27/27/27
f 6/6/6 5/5/5 26/26/26
f 8/8/8 28/28/28 29/29/29
f 8/8/8 7/7/7 28/28/28
f 10/10/10 30/30/30 31/31/31
f 10/10/10 9/9/9 30/30/30
f 33/33/33 34/34/34 35/35/35
f 33/33/33 32/32/32 34/34/34
f 12/12/12 13/13/13 11/11/11
f 12/12/12 14/14/14 13/13/13
f 15/15/15 14/14/14 12/12/12
f 36/36/36 17/17/17 37/37/37
f 36/36/36 16/16/16 17/17/17
f 39/39/39 18/18/18 40/40/40
f 39/39/39 38/38/38 18/18/18
f 19/19/19 42/42/42 43/43/43
f 19/19/19 41/41/41 42/42/42
f 45/45/45 46/46/46 20/20/20
f 45/45/45 44/44/44 46/46/46
f 47/47/47 48/48/48 49/49/49
f 47/47/47 31/31/31 48/48/48
f 22/22/22 50/50/50 51/51/51
f 22/22/22 21/21/21 50/50/50
f 52/52/52 53/53/53 54/54/54
f 52/52/52 23/23/23 53/53/53
f 56/56/56 24/24/24 57/57/57
f 56/56/56 55/55/55 24/24/24
f 59/59/59 25/25/25 60/60/60
f 59/59/59 58/58/58 25/25/25
f 62/62/62 63/63/63 64/64/64
f 62/62/62 61/61/61 63/63/63
f 66/66/66 67/67/67 68/68/68
f 66/66/66 65/65/65 67/67/67
f 70/70/70 71/71/71 72/72/72
f 70/70/70 69/69/69 71/71/71
f 74/74/74 75/75/75 76/76/76
f 74/74/74 73/73/73 75/75/75
f 78/78/78 79/79/79 80/80/80
f 78/78/78 77/77/77 79/79/79
f 82/82/82 83/83/83 84/84/84
f 82/82/82 81/81/81 83/83/83
