g TheLeftFoot
v 0.6853672 0.1001859 -0.2705115
v 0.5933907 0.2290675 -0.3298881
v 0.5860115 0.1952287 -0.00905067
v 0.6590173 0.1003444 -0.0002499933
v 0.292085 0.1005334 0.1418073
v 0.3398307 0.2135014 -0.00905061
v 0.2206331 0.1705642 -0.00905061
v 0.1676769 0.1136035 0.001006093
v 0.1363139 0.101207 -0.2427156
v 0.2280136 0.2290831 -0.3288761
v 0.2736129 0.2015959 -0.741874
v 0.2331882 0.1004877 -0.8458474
v 0.4692243 0.1002012 -0.8985931
v 0.4411888 0.2445301 -0.741874
v 0.5330312 0.2015959 -0.741874
v 0.5587136 0.1003231 -0.8355909
v 0.4948001 0.000162926 -0.2424632
v 0.7238299 0.000162926 -0.2417009
v 0.6853672 0.000162926 0.01995489
v 0.4960468 0.000162926 0.1418073
v 0.3469142 0.272002 -0.3292053
v 0.5779191 0.000162926 -0.8374318
v 0.4639788 0.272002 -0.3295467
v 0.09990369 0.000162926 -0.2432252
v 0.141326 0.002238597 0.02121094
v 0.2924184 0.000162926 -0.2428442
v 0.2121606 0.000162926 -0.8476915
v 0.3245815 0.000162926 -0.8985931
v 0.4564014 0.2204539 -0.009050639
v 0.4963028 0.1003048 0.1418073
v 0.3576279 0.2445301 -0.741874
v 0.2923386 0.000162926 0.1418073
v 0.4682703 0.000162926 -0.8985931
v 0.3244078 0.1003414 -0.8985931
v 0.2280136 0.2290831 -0.3288761
v 0.7238299 0.000162926 -0.2417009
v 0.09990369 0.000162926 -0.2432252
v 0.6853672 0.000162926 0.01995489
v 0.4960468 0.000162926 0.1418073
v 0.141326 0.002238597 0.02121094
v 0.5779191 0.000162926 -0.8374318
v 0.2121606 0.000162926 -0.8476915
v 0.3245815 0.000162926 -0.8985931
v 0.4682703 0.000162926 -0.8985931
v 0.4682703 0.000162926 -0.8985931
v 0.2923386 0.000162926 0.1418073
v 0.4960468 0.000162926 0.1418073
v 0.2280136 0.2290831 -0.3288761
v 0.1676769 0.1136035 0.001006093
vt 0.478368 0.504546
vt 0.420334 0.511512
vt 0.452186 0.700361
vt 0.501329 0.797713
vt 0.275402 0.885395
vt 0.303287 0.764736
vt 0.226658 0.764736
vt 0.122714 0.854049
vt 0.127033 0.514995
vt 0.180479 0.514995
vt 0.156734 0.208382
vt 0.112558 0.158022
vt 0.337721 0.0898441
vt 0.337721 0.211865
vt 0.385823 0.211865
vt 0.445553 0.156968
vt 0.68344 0.489235
vt 0.537278 0.504841
vt 0.580178 0.872125
vt 0.739607 0.88105
vt 0.262663 0.514995
vt 0.523966 0.116993
vt 0.346266 0.514995
vt 0.0371219 0.49758
vt 0.0119275 0.885395
vt 0.811813 0.463602
vt 0.787679 0.0512464
vt 0.71622 0.0655155
vt 0.378229 0.764736
vt 0.378184 0.885395
vt 0.252006 0.211865
vt 0.870349 0.855526
vt 0.625075 0.0837152
vt 0.252006 0.0899082
vt 0.180479 0.514995
vt 0.537278 0.504841
vt 0.933627 0.439279
vt 0.580178 0.872125
vt 0.41757 0.988072
vt 0.988073 0.784983
vt 0.523966 0.116993
vt 0.0771958 0.111878
vt 0.252006 0.0119274
vt 0.337721 0.0119727
vt 0.337721 0.0119727
vt 0.192961 0.988073
vt 0.41757 0.988072
vt 0.180479 0.514995
vt 0.122714 0.854049
vn 0.7180365 0.4437421 -0.5362058
vn 0.5184873 0.7831005 -0.3434013
vn 0.6383417 0.7683161 -0.047012
vn 0.8757256 0.4429485 -0.192097
vn 0.2287541 0.4343252 0.8712252
vn 0.11091 0.918548 0.3794317
vn -0.2132161 0.8313202 0.5132695
vn -0.4246943 0.444787 0.7885425
vn -0.7400846 0.4220577 0.5235858
vn -0.4756173 0.7960192 0.3743549
vn -0.6787357 0.6961081 0.2339902
vn -0.8712857 0.4842741 0.07962399
vn -0.3002608 0.3978361 -0.8669313
vn -0.0926703 0.9232911 -0.3727542
vn 0.2729614 0.7873132 -0.5528382
vn 0.3751131 0.3366963 -0.8636699
vn -0.01865914 -0.9995806 -0.0221475
vn 0.6555287 -0.5816008 -0.4816874
vn 0.8806354 -0.4725635 0.03413199
vn 0.4902758 -0.7290778 0.4775723
vn -0.1011148 0.982792 0.1545824
vn 0.4811012 -0.1404123 -0.8653473
vn 0.1741104 0.9836515 -0.0459941
vn -0.6842238 -0.5975546 0.4180506
vn -0.5720294 -0.05344936 0.8184898
vn -0.01792609 -0.9996065 -0.02157517
vn -0.836394 -0.5247113 -0.158503
vn -0.4857187 -0.7030856 -0.5193726
vn 0.2849484 0.9361941 0.2057794
vn 0.7059906 0.5097727 0.491639
vn -0.4157747 0.9013895 -0.1209471
vn 0.06388053 -0.710924 0.7003614
vn -0.1711067 -0.6961905 -0.6971666
vn -0.6905867 0.428665 -0.5825258
vn -0.4756173 0.7960192 0.3743549
vn 0.6555287 -0.5816008 -0.4816874
vn -0.6842238 -0.5975546 0.4180506
vn 0.8806354 -0.4725635 0.03413199
vn 0.4902758 -0.7290778 0.4775723
vn -0.5720294 -0.05344936 0.8184898
vn 0.4811012 -0.1404123 -0.8653473
vn -0.836394 -0.5247113 -0.158503
vn -0.4857187 -0.7030856 -0.5193726
vn -0.1711067 -0.6961905 -0.6971666
vn -0.1711067 -0.6961905 -0.6971666
vn 0.06388053 -0.710924 0.7003614
vn 0.4902758 -0.7290778 0.4775723
vn -0.4756173 0.7960192 0.3743549
vn -0.4246943 0.444787 0.7885425
g TheLeftFoot_0
f 10/10/10 9/9/9 49/49/49
f 11/11/11 9/9/9 10/10/10
f 11/11/11 12/12/12 9/9/9
f 31/31/31 12/12/12 11/11/11
f 31/31/31 34/34/34 12/12/12
f 14/14/14 34/34/34 31/31/31
f 14/14/14 13/13/13 34/34/34
f 15/15/15 13/13/13 14/14/14
f 15/15/15 16/16/16 13/13/13
f 2/2/2 16/16/16 15/15/15
f 2/2/2 1/1/1 16/16/16
f 3/3/3 1/1/1 2/2/2
f 3/3/3 4/4/4 1/1/1
f 30/30/30 4/4/4 3/3/3
f 30/30/30 38/38/38 4/4/4
f 39/39/39 38/38/38 30/30/30
f 19/19/19 17/17/17 18/18/18
f 20/20/20 17/17/17 19/19/19
f 20/20/20 26/26/26 17/17/17
f 32/32/32 26/26/26 20/20/20
f 32/32/32 37/37/37 26/26/26
f 40/40/40 37/37/37 32/32/32
f 27/27/27 26/26/26 37/37/37
f 28/28/28 26/26/26 27/27/27
f 28/28/28 17/17/17 26/26/26
f 33/33/33 17/17/17 28/28/28
f 33/33/33 18/18/18 17/17/17
f 41/41/41 18/18/18 33/33/33
f 36/36/36 4/4/4 38/38/38
f 36/36/36 1/1/1 4/4/4
f 22/22/22 1/1/1 36/36/36
f 22/22/22 16/16/16 1/1/1
f 45/45/45 16/16/16 22/22/22
f 44/44/44 13/13/13 16/16/16
f 43/43/43 13/13/13 44/44/44
f 43/43/43 34/34/34 13/13/13
f 42/42/42 34/34/34 43/43/43
f 42/42/42 12/12/12 34/34/34
f 24/24/24 12/12/12 42/42/42
f 24/24/24 9/9/9 12/12/12
f 25/25/25 9/9/9 24/24/24
f 25/25/25 8/8/8 9/9/9
f 46/46/46 8/8/8 25/25/25
f 46/46/46 5/5/5 8/8/8
f 39/39/39 5/5/5 46/46/46
f 35/35/35 31/31/31 11/11/11
f 35/35/35 21/21/21 31/31/31
f 7/7/7 21/21/21 35/35/35
f 7/7/7 6/6/6 21/21/21
f 5/5/5 6/6/6 7/7/7
f 5/5/5 30/30/30 6/6/6
f 47/47/47 30/30/30 5/5/5
f 8/8/8 7/7/7 48/48/48
f 8/8/8 5/5/5 7/7/7
f 23/23/23 15/15/15 14/14/14
f 23/23/23 2/2/2 15/15/15
f 29/29/29 2/2/2 23/23/23
f 29/29/29 3/3/3 2/2/2
f 30/30/30 3/3/3 29/29/29
f 21/21/21 14/14/14 31/31/31
f 21/21/21 23/23/23 14/14/14
f 6/6/6 23/23/23 21/21/21
f 6/6/6 29/29/29 23/23/23
f 30/30/30 29/29/29 6/6/6
