g ThePigNose
v 0.06827368 1.775707 0.451616
v 6.819199E-08 1.799341 0.451616
v -4.36056E-05 1.799362 0.5737372
v 0.06823131 1.776002 0.5705063
v -0.06827368 1.775707 0.451616
v -0.06831269 1.775844 0.5714451
v -0.09655363 1.718645 0.451616
v -0.09658502 1.71923 0.5649712
v -0.06827368 1.661584 0.4957359
v -0.06829867 1.662678 0.5581132
v 7.697541E-08 1.637949 0.5097841
v -2.368735E-05 1.639318 0.5548823
v 0.06827368 1.661584 0.4957359
v 0.06824533 1.662833 0.5571774
v 0.09655363 1.718645 0.451616
v 0.09651736 1.71945 0.5636483
v 0.05578358 1.764225 0.5790133
v 2.56861E-05 1.783302 0.5816529
v -0.0557275 1.764097 0.5797814
v -0.0788164 1.717862 0.5744962
v -0.05571591 1.671679 0.568894
v 4.195267E-05 1.652601 0.5662544
v 0.05579486 1.671804 0.5681289
v 0.07888376 1.718042 0.5734141
v 6.819199E-08 1.799341 0.451616
v -4.36056E-05 1.799362 0.5737372
v -0.06827368 1.775707 0.451616
v -0.06831269 1.775844 0.5714451
v -0.09655363 1.718645 0.451616
v -0.09658502 1.71923 0.5649712
v -0.06827368 1.661584 0.4957359
v -0.06829867 1.662678 0.5581132
v 7.697541E-08 1.637949 0.5097841
v -2.368735E-05 1.639318 0.5548823
v 0.06827368 1.661584 0.4957359
v 0.06824533 1.662833 0.5571774
v 0.09655363 1.718645 0.451616
v 0.06823131 1.776002 0.5705063
v 0.06827368 1.775707 0.451616
v 0.09651736 1.71945 0.5636483
v 0.06823131 1.776002 0.5705063
v 2.56861E-05 1.783302 0.5816529
v -4.36056E-05 1.799362 0.5737372
v 0.05578358 1.764225 0.5790133
v -4.36056E-05 1.799362 0.5737372
v -0.0557275 1.764097 0.5797814
v -0.06831269 1.775844 0.5714451
v 2.56861E-05 1.783302 0.5816529
v -0.06831269 1.775844 0.5714451
v -0.0788164 1.717862 0.5744962
v -0.09658502 1.71923 0.5649712
v -0.0557275 1.764097 0.5797814
v -0.09658502 1.71923 0.5649712
v -0.05571591 1.671679 0.568894
v -0.06829867 1.662678 0.5581132
v -0.0788164 1.717862 0.5744962
v -0.06829867 1.662678 0.5581132
v 4.195267E-05 1.652601 0.5662544
v -2.368735E-05 1.639318 0.5548823
v -0.05571591 1.671679 0.568894
v -2.368735E-05 1.639318 0.5548823
v 0.05579486 1.671804 0.5681289
v 0.06824533 1.662833 0.5571774
v 4.195267E-05 1.652601 0.5662544
v 0.06824533 1.662833 0.5571774
v 0.07888376 1.718042 0.5734141
v 0.09651736 1.71945 0.5636483
v 0.05579486 1.671804 0.5681289
v 0.09651736 1.71945 0.5636483
v 0.05578358 1.764225 0.5790133
v 0.06823131 1.776002 0.5705063
v 0.07888376 1.718042 0.5734141
vt 0.712012 0.764095
vt 0.712012 0.63318
vt 0.946179 0.633096
vt 0.939987 0.764014
vt 0.712012 0.502265
vt 0.941783 0.50219
vt 0.71185 0.392849
vt 0.929213 0.393647
vt 0.796291 0.283308
vt 0.915895 0.285229
vt 0.825282 0.15283
vt 0.911749 0.15423
vt 0.800398 0.0215089
vt 0.918195 0.0234089
vt 0.71178 0.87351
vt 0.926604 0.872424
vt 0.16075 0.652205
vt 0.0806 0.417658
vt 0.161284 0.183713
vt 0.349165 0.0867095
vt 0.54957 0.183762
vt 0.62972 0.417658
vt 0.549035 0.652254
vt 0.349165 0.749257
vt 0.712012 0.63318
vt 0.946179 0.633096
vt 0.712012 0.502265
vt 0.941783 0.50219
vt 0.71185 0.392849
vt 0.929213 0.393647
vt 0.796291 0.283308
vt 0.915895 0.285229
vt 0.825282 0.15283
vt 0.911749 0.15423
vt 0.796147 0.983105
vt 0.913965 0.980959
vt 0.71178 0.87351
vt 0.939987 0.764014
vt 0.712012 0.764095
vt 0.926604 0.872424
vt 0.111274 0.704502
vt 0.0806 0.417658
vt 0.0131322 0.417658
vt 0.16075 0.652205
vt 0.0131322 0.417658
vt 0.161284 0.183713
vt 0.111928 0.130839
vt 0.0806 0.417658
vt 0.111928 0.130839
vt 0.349165 0.0867095
vt 0.349165 0.0120584
vt 0.161284 0.183713
vt 0.349165 0.0120584
vt 0.54957 0.183762
vt 0.587381 0.130897
vt 0.349165 0.0867095
vt 0.587381 0.130897
vt 0.62972 0.417658
vt 0.685523 0.417658
vt 0.54957 0.183762
vt 0.685523 0.417658
vt 0.549035 0.652254
vt 0.586727 0.704562
vt 0.62972 0.417658
vt 0.586727 0.704562
vt 0.349165 0.749257
vt 0.349165 0.823342
vt 0.549035 0.652254
vt 0.349165 0.823342
vt 0.16075 0.652205
vt 0.111274 0.704502
vt 0.349165 0.749257
vn 0.3305489 0.9437767 -0.004787523
vn 0.3322977 0.9431673 -0.003696801
vn 0.3305489 0.9437767 -0.004787523
vn 0.3287985 0.9443818 -0.005878223
vn -0.3219372 0.946759 -0.001920412
vn -0.3212239 0.9470021 -0.001469336
vn -0.8935479 0.4489678 0.0004311917
vn -0.8928443 0.4503636 0.00129483
vn -0.9005771 -0.4345199 0.01238359
vn -0.8986428 -0.438573 0.009739124
vn -0.3372453 -0.9408691 0.0321109
vn -0.3326762 -0.9426796 0.02611015
vn 0.325518 -0.9453233 0.0200462
vn 0.3225663 -0.9462212 0.02482641
vn 0.8946242 -0.4468191 0.0004812335
vn 0.8931938 -0.4496583 0.003521423
vn 0.01075339 -0.1147452 0.9933368
vn 0.01078094 -0.1147783 0.9933326
vn 0.01078107 -0.1147714 0.9933334
vn 0.01077722 -0.1147524 0.9933356
vn 0.01078156 -0.11475 0.9933358
vn 0.01074361 -0.114737 0.9933379
vn 0.01069753 -0.1147143 0.9933409
vn 0.01069773 -0.1147141 0.9933409
vn -0.3212239 0.9470021 -0.001469336
vn -0.3205102 0.9472445 -0.001018259
vn -0.8928443 0.4503636 0.00129483
vn -0.8921379 0.4517578 0.002158465
vn -0.8986428 -0.438573 0.009739124
vn -0.8966841 -0.442614 0.007094388
vn -0.3326762 -0.9426796 0.02611015
vn -0.328087 -0.9444335 0.02010782
vn 0.3225663 -0.9462212 0.02482641
vn 0.3196042 -0.9470885 0.02960583
vn 0.8931938 -0.4496583 0.003521423
vn 0.891746 -0.4524888 0.006561546
vn 0.897525 0.4409097 -0.006886444
vn 0.897525 0.4409097 -0.006886444
vn 0.8984066 0.4391263 -0.0058153
vn 0.8966389 0.4426909 -0.007957554
vn 0.1966983 0.4356148 0.878379
vn 0.1966983 0.4356148 0.878379
vn 0.1966978 0.4356381 0.8783674
vn 0.1966987 0.4355914 0.8783904
vn -0.1729159 0.4373386 0.8825163
vn -0.1729159 0.4373386 0.8825163
vn -0.172934 0.4373598 0.8825023
vn -0.1728977 0.4373173 0.8825305
vn -0.4560014 0.134198 0.8798031
vn -0.4560014 0.134198 0.8798031
vn -0.4560447 0.1342041 0.8797798
vn -0.4559581 0.1341918 0.8798266
vn -0.4634653 -0.3278107 0.8232497
vn -0.4634653 -0.3278107 0.8232497
vn -0.4634362 -0.3277825 0.8232773
vn -0.4634945 -0.327839 0.823222
vn -0.1833615 -0.6361027 0.7495012
vn -0.1833615 -0.6361027 0.7495012
vn -0.1833626 -0.6360911 0.7495107
vn -0.1833605 -0.6361142 0.7494916
vn 0.1947046 -0.6378119 0.7451751
vn 0.1947046 -0.6378119 0.7451751
vn 0.1947255 -0.637842 0.7451439
vn 0.1946837 -0.6377819 0.7452064
vn 0.4790387 -0.3320817 0.8125538
vn 0.4790387 -0.3320817 0.8125538
vn 0.4790398 -0.3320827 0.8125528
vn 0.4790374 -0.3320808 0.8125549
vn 0.4769176 0.1299421 0.8692897
vn 0.4769176 0.1299421 0.8692897
vn 0.4768842 0.1299087 0.8693131
vn 0.476951 0.1299757 0.8692665
g ThePigNose_0
f 3/3/3 1/1/1 2/2/2
f 3/3/3 4/4/4 1/1/1
f 6/6/6 25/25/25 5/5/5
f 6/6/6 26/26/26 25/25/25
f 8/8/8 27/27/27 7/7/7
f 8/8/8 28/28/28 27/27/27
f 10/10/10 29/29/29 9/9/9
f 10/10/10 30/30/30 29/29/29
f 12/12/12 31/31/31 11/11/11
f 12/12/12 32/32/32 31/31/31
f 14/14/14 33/33/33 13/13/13
f 14/14/14 34/34/34 33/33/33
f 16/16/16 35/35/35 15/15/15
f 16/16/16 36/36/36 35/35/35
f 38/38/38 37/37/37 39/39/39
f 38/38/38 40/40/40 37/37/37
f 17/17/17 20/20/20 21/21/21
f 17/17/17 19/19/19 20/20/20
f 18/18/18 19/19/19 17/17/17
f 17/17/17 23/23/23 24/24/24
f 17/17/17 22/22/22 23/23/23
f 21/21/21 22/22/22 17/17/17
f 42/42/42 41/41/41 43/43/43
f 42/42/42 44/44/44 41/41/41
f 46/46/46 45/45/45 47/47/47
f 46/46/46 48/48/48 45/45/45
f 50/50/50 49/49/49 51/51/51
f 50/50/50 52/52/52 49/49/49
f 54/54/54 53/53/53 55/55/55
f 54/54/54 56/56/56 53/53/53
f 58/58/58 57/57/57 59/59/59
f 58/58/58 60/60/60 57/57/57
f 62/62/62 61/61/61 63/63/63
f 62/62/62 64/64/64 61/61/61
f 66/66/66 65/65/65 67/67/67
f 66/66/66 68/68/68 65/65/65
f 70/70/70 69/69/69 71/71/71
f 70/70/70 72/72/72 69/69/69
