g TheRHorn
v -0.249217 2.121822 0.09540758
v -0.2912815 2.052764 0.05896508
v -0.1851572 1.994892 0.1185245
v -0.1595311 2.080997 0.1474001
v -0.2567916 2.039066 -0.02158956
v -0.1473485 1.980258 0.03331342
v -0.1934108 2.099654 -0.03493282
v -0.0983553 2.057321 0.009525579
v -0.1887294 2.150803 0.03737519
v -0.1058845 2.119579 0.08003499
v -0.2592982 2.308933 -0.01890187
v -0.2620685 2.303748 -0.04210781
v -0.2855382 2.302584 -0.04667677
v -0.2972727 2.30705 -0.02629473
v -0.2810555 2.310972 -0.009128882
v -0.3074456 2.193758 0.0374017
v -0.3498403 2.158682 0.0008353014
v -0.3220212 2.148096 -0.05814547
v -0.2624362 2.176632 -0.05803118
v -0.2534284 2.20485 0.001020394
v -0.249217 2.121822 0.09540758
v -0.2912815 2.052764 0.05896508
v -0.1851572 1.994892 0.1185245
v -0.2567916 2.039066 -0.02158956
v -0.1473485 1.980258 0.03331342
v -0.1934108 2.099654 -0.03493282
v -0.0983553 2.057321 0.009525579
v -0.1887294 2.150803 0.03737519
v -0.1595311 2.080997 0.1474001
v -0.249217 2.121822 0.09540758
v -0.1058845 2.119579 0.08003499
v -0.2912815 2.052764 0.05896508
v -0.249217 2.121822 0.09540758
v -0.3498403 2.158682 0.0008353014
v -0.2567916 2.039066 -0.02158956
v -0.2912815 2.052764 0.05896508
v -0.3220212 2.148096 -0.05814547
v -0.1934108 2.099654 -0.03493282
v -0.2567916 2.039066 -0.02158956
v -0.2624362 2.176632 -0.05803118
v -0.1887294 2.150803 0.03737519
v -0.1934108 2.099654 -0.03493282
v -0.2534284 2.20485 0.001020394
v -0.249217 2.121822 0.09540758
v -0.3074456 2.193758 0.0374017
v -0.1887294 2.150803 0.03737519
v -0.249217 2.121822 0.09540758
v -0.2810555 2.310972 -0.009128882
v -0.3498403 2.158682 0.0008353014
v -0.2972727 2.30705 -0.02629473
v -0.2810555 2.310972 -0.009128882
v -0.3074456 2.193758 0.0374017
v -0.2972727 2.30705 -0.02629473
v -0.3220212 2.148096 -0.05814547
v -0.2855382 2.302584 -0.04667677
v -0.3498403 2.158682 0.0008353014
v -0.2855382 2.302584 -0.04667677
v -0.2624362 2.176632 -0.05803118
v -0.2620685 2.303748 -0.04210781
v -0.3220212 2.148096 -0.05814547
v -0.2620685 2.303748 -0.04210781
v -0.2534284 2.20485 0.001020394
v -0.2592982 2.308933 -0.01890187
v -0.2624362 2.176632 -0.05803118
v -0.2592982 2.308933 -0.01890187
v -0.3074456 2.193758 0.0374017
v -0.2810555 2.310972 -0.009128882
v -0.2534284 2.20485 0.001020394
vt 0.131995 0.416054
vt 0.265043 0.311085
vt 0.207139 0.0690482
vt 0.0126301 0.199659
vt 0.406227 0.254366
vt 0.39132 0.0126301
vt 0.594228 0.294962
vt 0.66449 0.0374076
vt 0.738039 0.371785
vt 0.855119 0.17502
vt 0.363066 0.970703
vt 0.40538 0.98737
vt 0.430966 0.938348
vt 0.405063 0.891099
vt 0.361902 0.911666
vt 0.237066 0.611095
vt 0.325811 0.562907
vt 0.421573 0.542558
vt 0.534182 0.542558
vt 0.632744 0.592044
vt 0.131995 0.416054
vt 0.265043 0.311085
vt 0.207139 0.0690482
vt 0.406227 0.254366
vt 0.39132 0.0126301
vt 0.594228 0.294962
vt 0.66449 0.0374076
vt 0.738039 0.371785
vt 0.98737 0.372309
vt 0.845871 0.512252
vt 0.855119 0.17502
vt 0.265043 0.311085
vt 0.131995 0.416054
vt 0.325811 0.562907
vt 0.406227 0.254366
vt 0.265043 0.311085
vt 0.421573 0.542558
vt 0.594228 0.294962
vt 0.406227 0.254366
vt 0.534182 0.542558
vt 0.738039 0.371785
vt 0.594228 0.294962
vt 0.632744 0.592044
vt 0.845871 0.512252
vt 0.710473 0.670082
vt 0.738039 0.371785
vt 0.845871 0.512252
vt 0.361902 0.911666
vt 0.325811 0.562907
vt 0.405063 0.891099
vt 0.361902 0.911666
vt 0.237066 0.611095
vt 0.405063 0.891099
vt 0.421573 0.542558
vt 0.443456 0.89432
vt 0.325811 0.562907
vt 0.443456 0.89432
vt 0.534182 0.542558
vt 0.484676 0.895505
vt 0.421573 0.542558
vt 0.484676 0.895505
vt 0.632744 0.592044
vt 0.529872 0.913439
vt 0.534182 0.542558
vt 0.529872 0.913439
vt 0.710473 0.670082
vt 0.565208 0.948645
vt 0.632744 0.592044
vn -0.5328377 -0.1133768 0.838588
vn -0.5306346 -0.11199 0.8401697
vn -0.5328377 -0.1133768 0.838588
vn -0.5350357 -0.1147625 0.8369984
vn -0.4607486 -0.8866364 -0.03983277
vn -0.4611253 -0.8863002 -0.04284212
vn 0.2150704 -0.428077 -0.8777784
vn 0.2149741 -0.4222879 -0.8806015
vn 0.5229788 0.6762133 -0.5188727
vn 0.5316108 0.6656754 -0.5237042
vn -0.001727927 0.9755972 -0.219561
vn -0.001725222 0.9755917 -0.2195854
vn -0.001723778 0.9755917 -0.2195852
vn -0.00172928 0.9756 -0.2195489
vn -0.001736226 0.9756081 -0.2195127
vn -0.6738373 0.04014171 0.7377885
vn -0.6663585 0.04199348 0.7444481
vn -0.7882077 -0.5556347 -0.2645727
vn 0.09375186 -0.206084 -0.9740328
vn 0.710938 0.5828236 -0.3935529
vn -0.5328377 -0.1133768 0.838588
vn -0.4611253 -0.8863002 -0.04284212
vn -0.4614978 -0.8859558 -0.04585108
vn 0.2149741 -0.4222879 -0.8806015
vn 0.2148689 -0.4164815 -0.883388
vn 0.5316108 0.6656754 -0.5237042
vn 0.5401319 0.6549985 -0.5284265
vn 0.07567322 0.8513467 0.5191169
vn 0.07567322 0.8513467 0.5191169
vn 0.09493333 0.8522023 0.5145279
vn 0.05638339 0.8501568 0.5235019
vn -0.6738373 0.04014171 0.7377885
vn -0.6812463 0.03828579 0.7310524
vn -0.7900067 -0.5597094 -0.2502294
vn -0.7900067 -0.5597094 -0.2502294
vn -0.7916276 -0.5636577 -0.2358298
vn 0.07752524 -0.2450067 -0.9664168
vn 0.07752524 -0.2450067 -0.9664168
vn 0.06115625 -0.2834796 -0.9570262
vn 0.7234092 0.5548284 -0.410907
vn 0.7234092 0.5548284 -0.410907
vn 0.7349831 0.526145 -0.4277515
vn 0.2716241 0.7298476 0.62733
vn 0.2716241 0.7298476 0.62733
vn 0.2804789 0.7281259 0.6254313
vn 0.2627461 0.7315073 0.6291754
vn 0.2716241 0.7298476 0.62733
vn -0.7368252 0.376779 0.5613609
vn -0.7368252 0.376779 0.5613609
vn -0.7126567 0.3682091 0.5971119
vn -0.7368252 0.376779 0.5613609
vn -0.7595676 0.3846197 0.5245233
vn -0.8443014 0.2322466 -0.4829251
vn -0.8443014 0.2322466 -0.4829251
vn -0.8210474 0.235776 -0.5198951
vn -0.8659343 0.2282714 -0.445028
vn 0.0696328 0.1002264 -0.992525
vn 0.0696328 0.1002264 -0.992525
vn 0.1801448 0.1184018 -0.976488
vn -0.04177057 0.08076803 -0.9958573
vn 0.9890175 0.0187031 -0.1466106
vn 0.9890175 0.0187031 -0.1466106
vn 0.9911684 0.02616136 -0.1300036
vn 0.9865342 0.01123856 -0.1631683
vn 0.4748759 0.2207117 0.8519268
vn 0.4748759 0.2207117 0.8519268
vn 0.4213359 0.252768 0.8709674
vn 0.5263946 0.1877158 0.8292596
g TheRHorn_0
f 3/3/3 1/1/1 2/2/2
f 4/4/4 21/21/21 3/3/3
f 44/44/44 43/43/43 45/45/45
f 46/46/46 43/43/43 47/47/47
f 49/49/49 48/48/48 50/50/50
f 52/52/52 51/51/51 49/49/49
f 6/6/6 22/22/22 5/5/5
f 6/6/6 23/23/23 22/22/22
f 8/8/8 24/24/24 7/7/7
f 8/8/8 25/25/25 24/24/24
f 10/10/10 26/26/26 9/9/9
f 10/10/10 27/27/27 26/26/26
f 29/29/29 28/28/28 30/30/30
f 29/29/29 31/31/31 28/28/28
f 11/11/11 14/14/14 15/15/15
f 11/11/11 13/13/13 14/14/14
f 12/12/12 13/13/13 11/11/11
f 32/32/32 16/16/16 17/17/17
f 32/32/32 33/33/33 16/16/16
f 35/35/35 34/34/34 18/18/18
f 35/35/35 36/36/36 34/34/34
f 38/38/38 37/37/37 19/19/19
f 38/38/38 39/39/39 37/37/37
f 41/41/41 40/40/40 20/20/20
f 41/41/41 42/42/42 40/40/40
f 54/54/54 53/53/53 55/55/55
f 54/54/54 56/56/56 53/53/53
f 58/58/58 57/57/57 59/59/59
f 58/58/58 60/60/60 57/57/57
f 62/62/62 61/61/61 63/63/63
f 62/62/62 64/64/64 61/61/61
f 66/66/66 65/65/65 67/67/67
f 66/66/66 68/68/68 65/65/65
