g TheRCatEar
v -0.2097094 2.183136 -0.08781257
v -0.3155533 2.284772 -0.0818129
v -0.3976268 2.207112 -0.06763359
v -0.3029087 2.094948 -0.07171121
v -0.4381043 2.16892 -0.05379415
v -0.3483894 2.052133 -0.0501716
v -0.405195 2.198474 -0.1587334
v -0.3110149 2.085691 -0.1693344
v -0.3231185 2.276137 -0.1729121
v -0.2178165 2.173882 -0.1854351
v -0.2739555 2.324243 -0.08215275
v -0.1619902 2.228512 -0.08237403
v -0.1164802 1.978121 -0.0411928
v -0.1468724 1.949799 -0.008736635
v -0.1207118 1.97329 -0.09215049
v -0.0781687 2.013545 -0.09950013
v -0.03908999 2.051789 -0.02735735
v -0.07393716 2.018376 -0.04854245
v -0.406021 2.342485 0.03721181
v -0.3970142 2.353266 0.03523519
v -0.4195755 2.351157 0.01501951
v -0.4414631 2.330446 0.01880064
v -0.4407865 2.311847 0.04279727
v -0.4279087 2.321774 0.04099286
v -0.3483894 2.052133 -0.0501716
v -0.4381043 2.16892 -0.05379415
v -0.2178165 2.173882 -0.1854351
v -0.3231185 2.276137 -0.1729121
v -0.1619902 2.228512 -0.08237403
v -0.2739555 2.324243 -0.08215275
v -0.1207118 1.97329 -0.09215049
v -0.0781687 2.013545 -0.09950013
v -0.4407865 2.311847 0.04279727
v -0.4414631 2.330446 0.01880064
v -0.4407865 2.311847 0.04279727
v -0.4195755 2.351157 0.01501951
v -0.3970142 2.353266 0.03523519
v -0.4195755 2.351157 0.01501951
v -0.3970142 2.353266 0.03523519
v -0.03908999 2.051789 -0.02735735
v -0.07393716 2.018376 -0.04854245
v -0.0781687 2.013545 -0.09950013
v -0.03908999 2.051789 -0.02735735
v -0.1207118 1.97329 -0.09215049
v -0.0781687 2.013545 -0.09950013
v -0.1468724 1.949799 -0.008736635
v -0.1207118 1.97329 -0.09215049
v -0.1468724 1.949799 -0.008736635
vt 0.327527 0.408869
vt 0.327527 0.706011
vt 0.551697 0.706011
vt 0.551697 0.408869
vt 0.689201 0.706011
vt 0.689201 0.408869
vt 0.860154 0.706011
vt 0.860154 0.408869
vt 0.994238 0.706011
vt 0.994238 0.408869
vt 0.161976 0.706011
vt 0.161976 0.408869
vt 0.551697 0.169922
vt 0.689201 0.16992
vt 0.749706 0.0914461
vt 0.680965 0.00576192
vt 0.564683 0.00576192
vt 0.500362 0.091446
vt 0.409997 0.907687
vt 0.375776 0.954424
vt 0.405811 0.994238
vt 0.470097 0.994238
vt 0.499745 0.954424
vt 0.465359 0.907685
vt 0.689201 0.408869
vt 0.689201 0.706011
vt 0.00576192 0.408869
vt 0.00792289 0.706011
vt 0.161976 0.408869
vt 0.161976 0.706011
vt 0.749706 0.0914461
vt 0.680965 0.00576192
vt 0.519942 0.907686
vt 0.601688 0.907686
vt 0.519942 0.907686
vt 0.651691 0.907686
vt 0.345873 0.907686
vt 0.27042 0.907686
vt 0.345873 0.907686
vt 0.161976 0.169921
vt 0.327527 0.169921
vt 0.0155666 0.169921
vt 0.161976 0.169921
vt 0.83862 0.169921
vt 0.971659 0.169921
vt 0.689201 0.16992
vt 0.83862 0.169921
vt 0.689201 0.16992
vn -0.07860783 0.04443556 0.9959148
vn 0.3211373 -0.2780173 0.905305
vn 0.387984 -0.2126631 0.8967959
vn 0.1043329 0.2048717 0.9732124
vn -0.6248806 -0.2159902 0.7502483
vn -0.6183432 -0.353017 0.7021614
vn -0.7752075 0.01437736 -0.631543
vn -0.3164494 -0.5309389 -0.7861066
vn -0.07998038 0.6105322 -0.7879425
vn 0.3842187 0.1584726 -0.9095397
vn 0.8149 0.489388 0.3105434
vn 0.7030457 0.5294174 0.4748095
vn 0.6320885 -0.2593828 0.730195
vn 0.07254967 -0.9971283 0.02171626
vn 0.3353931 -0.7640114 -0.5511788
vn 0.7987199 -0.4052474 -0.4447708
vn 0.4999334 -0.2497724 0.8292649
vn 0.2803091 -0.3598463 0.8899086
vn 0.02423841 0.1484598 0.9886214
vn 0.02203066 0.9593612 0.2813196
vn -0.5438161 0.8371392 -0.05883867
vn -0.8734257 0.4811839 0.07476357
vn -0.1283761 -0.03796605 0.9909986
vn 0.448557 -0.355858 0.8198547
vn -0.6183432 -0.353017 0.7021614
vn -0.6248806 -0.2159902 0.7502483
vn 0.3842187 0.1584726 -0.9095397
vn -0.07998038 0.6105322 -0.7879425
vn 0.7030457 0.5294174 0.4748095
vn 0.8149 0.489388 0.3105434
vn 0.3353931 -0.7640114 -0.5511788
vn 0.7987199 -0.4052474 -0.4447708
vn -0.1283761 -0.03796605 0.9909986
vn -0.8734257 0.4811839 0.07476357
vn -0.1283761 -0.03796605 0.9909986
vn -0.5438161 0.8371392 -0.05883867
vn 0.02203066 0.9593612 0.2813196
vn -0.5438161 0.8371392 -0.05883867
vn 0.02203066 0.9593612 0.2813196
vn 0.4999334 -0.2497724 0.8292649
vn 0.2803091 -0.3598463 0.8899086
vn 0.7987199 -0.4052474 -0.4447708
vn 0.4999334 -0.2497724 0.8292649
vn 0.3353931 -0.7640114 -0.5511788
vn 0.7987199 -0.4052474 -0.4447708
vn 0.07254967 -0.9971283 0.02171626
vn 0.3353931 -0.7640114 -0.5511788
vn 0.07254967 -0.9971283 0.02171626
g TheRCatEar_0
f 15/15/15 13/13/13 14/14/14
f 18/18/18 32/32/32 17/17/17
f 16/16/16 13/13/13 31/31/31
f 16/16/16 18/18/18 13/13/13
f 19/19/19 22/22/22 23/23/23
f 19/19/19 21/21/21 22/22/22
f 20/20/20 21/21/21 19/19/19
f 46/46/46 8/8/8 47/47/47
f 25/25/25 8/8/8 46/46/46
f 25/25/25 7/7/7 8/8/8
f 26/26/26 7/7/7 25/25/25
f 26/26/26 34/34/34 7/7/7
f 35/35/35 34/34/34 26/26/26
f 42/42/42 12/12/12 43/43/43
f 27/27/27 12/12/12 42/42/42
f 27/27/27 11/11/11 12/12/12
f 28/28/28 11/11/11 27/27/27
f 28/28/28 37/37/37 11/11/11
f 38/38/38 37/37/37 28/28/28
f 40/40/40 1/1/1 41/41/41
f 29/29/29 1/1/1 40/40/40
f 29/29/29 2/2/2 1/1/1
f 30/30/30 2/2/2 29/29/29
f 30/30/30 19/19/19 2/2/2
f 39/39/39 19/19/19 30/30/30
f 36/36/36 7/7/7 34/34/34
f 9/9/9 7/7/7 36/36/36
f 9/9/9 8/8/8 7/7/7
f 10/10/10 8/8/8 9/9/9
f 10/10/10 44/44/44 8/8/8
f 45/45/45 44/44/44 10/10/10
f 33/33/33 3/3/3 24/24/24
f 5/5/5 3/3/3 33/33/33
f 5/5/5 4/4/4 3/3/3
f 6/6/6 4/4/4 5/5/5
f 6/6/6 13/13/13 4/4/4
f 48/48/48 13/13/13 6/6/6
f 24/24/24 19/19/19 23/23/23
f 24/24/24 2/2/2 19/19/19
f 3/3/3 2/2/2 24/24/24
f 3/3/3 1/1/1 2/2/2
f 4/4/4 1/1/1 3/3/3
f 4/4/4 41/41/41 1/1/1
f 13/13/13 41/41/41 4/4/4
