g TheRAntenna
v -0.121133 2.1732 -0.006143213
v -0.100677 2.182411 -0.01302712
v -0.2004691 2.472885 0.01175339
v -0.1800121 2.482093 0.004869515
v -0.1008507 2.183764 -0.03645347
v -0.1801868 2.483446 -0.01855641
v -0.1214146 2.175391 -0.04404787
v -0.2007504 2.475076 -0.02615071
v -0.1339498 2.168862 -0.02531525
v -0.2132859 2.468551 -0.007418436
v -0.4130985 2.808991 0.03271997
v -0.396685 2.821649 0.02670542
v -0.4237452 2.802971 0.01493563
v -0.3971879 2.823457 0.005203241
v -0.4139123 2.811914 -0.002070744
v -0.3356854 2.756916 -0.001607991
v -0.3533455 2.743639 -0.009507504
v -0.3355117 2.755563 0.0218185
v -0.3530651 2.741451 0.02839718
v -0.3640897 2.734081 0.009036832
v -0.3365723 2.783571 0.03474446
v -0.3713165 2.756773 0.04747626
v -0.3376361 2.787396 -0.0107702
v -0.3730386 2.762963 -0.02616812
v -0.3938534 2.744035 0.00983108
v -0.100677 2.182411 -0.01302712
v -0.1800121 2.482093 0.004869515
v -0.1008507 2.183764 -0.03645347
v -0.1801868 2.483446 -0.01855641
v -0.1214146 2.175391 -0.04404787
v -0.2007504 2.475076 -0.02615071
v -0.1339498 2.168862 -0.02531525
v -0.2132859 2.468551 -0.007418436
v -0.121133 2.1732 -0.006143213
v -0.2004691 2.472885 0.01175339
v -0.1801868 2.483446 -0.01855641
v -0.2007504 2.475076 -0.02615071
v -0.1800121 2.482093 0.004869515
v -0.1801868 2.483446 -0.01855641
v -0.3356854 2.756916 -0.001607991
v -0.3355117 2.755563 0.0218185
v -0.1800121 2.482093 0.004869515
v -0.2004691 2.472885 0.01175339
v -0.2004691 2.472885 0.01175339
v -0.2132859 2.468551 -0.007418436
v -0.3530651 2.741451 0.02839718
v -0.3533455 2.743639 -0.009507504
v -0.2132859 2.468551 -0.007418436
v -0.3640897 2.734081 0.009036832
v -0.3355117 2.755563 0.0218185
v -0.3530651 2.741451 0.02839718
v -0.3356854 2.756916 -0.001607991
v -0.3365723 2.783571 0.03474446
v -0.3355117 2.755563 0.0218185
v -0.3376361 2.787396 -0.0107702
v -0.3356854 2.756916 -0.001607991
v -0.3533455 2.743639 -0.009507504
v -0.3730386 2.762963 -0.02616812
v -0.3533455 2.743639 -0.009507504
v -0.3640897 2.734081 0.009036832
v -0.3713165 2.756773 0.04747626
v -0.3530651 2.741451 0.02839718
v -0.3938534 2.744035 0.00983108
v -0.3640897 2.734081 0.009036832
v -0.3365723 2.783571 0.03474446
v -0.3713165 2.756773 0.04747626
v -0.396685 2.821649 0.02670542
v -0.4130985 2.808991 0.03271997
v -0.3365723 2.783571 0.03474446
v -0.396685 2.821649 0.02670542
v -0.3376361 2.787396 -0.0107702
v -0.3971879 2.823457 0.005203241
v -0.3376361 2.787396 -0.0107702
v -0.3971879 2.823457 0.005203241
v -0.3730386 2.762963 -0.02616812
v -0.4139123 2.811914 -0.002070744
v -0.3730386 2.762963 -0.02616812
v -0.4139123 2.811914 -0.002070744
v -0.3938534 2.744035 0.00983108
v -0.4237452 2.802971 0.01493563
v -0.3713165 2.756773 0.04747626
v -0.3938534 2.744035 0.00983108
v -0.4130985 2.808991 0.03271997
v -0.4237452 2.802971 0.01493563
vt 0.063318 0.00662708
vt 0 0.0206968
vt 0.308889 0.464444
vt 0.245568 0.478512
vt 0.000538051 0.0227625
vt 0.246108 0.480579
vt 0.0641899 0.00997263
vt 0.30976 0.467788
vt 0.102991 -1.19209E-07
vt 0.348561 0.457816
vt 0.967042 0.977898
vt 0.916241 0.997239
vt 1 0.968707
vt 0.917795 1
vt 0.969562 0.982365
vt 0.727423 0.898349
vt 0.782094 0.878066
vt 0.726885 0.896282
vt 0.781223 0.874722
vt 0.815343 0.863463
vt 0.730173 0.939067
vt 0.837716 0.89813
vt 0.733469 0.944911
vt 0.843048 0.907584
vt 0.907477 0.878672
vt 0 0.0206968
vt 0.245568 0.478512
vt 0.000538051 0.0227625
vt 0.246108 0.480579
vt 0.0641899 0.00997263
vt 0.30976 0.467788
vt 0.102991 -1.19209E-07
vt 0.348561 0.457816
vt 0.063318 0.00662708
vt 0.308889 0.464444
vt 0.246108 0.480579
vt 0.30976 0.467788
vt 0.245568 0.478512
vt 0.246108 0.480579
vt 0.727423 0.898349
vt 0.726885 0.896282
vt 0.245568 0.478512
vt 0.308889 0.464444
vt 0.308889 0.464444
vt 0.348561 0.457816
vt 0.781223 0.874722
vt 0.782094 0.878066
vt 0.348561 0.457816
vt 0.815343 0.863463
vt 0.726885 0.896282
vt 0.781223 0.874722
vt 0.727423 0.898349
vt 0.730173 0.939067
vt 0.726885 0.896282
vt 0.733469 0.944911
vt 0.727423 0.898349
vt 0.782094 0.878066
vt 0.843048 0.907584
vt 0.782094 0.878066
vt 0.815343 0.863463
vt 0.837716 0.89813
vt 0.781223 0.874722
vt 0.907477 0.878672
vt 0.815343 0.863463
vt 0.730173 0.939067
vt 0.837716 0.89813
vt 0.916241 0.997239
vt 0.967042 0.977898
vt 0.730173 0.939067
vt 0.916241 0.997239
vt 0.733469 0.944911
vt 0.917795 1
vt 0.733469 0.944911
vt 0.917795 1
vt 0.843048 0.907584
vt 0.969562 0.982365
vt 0.843048 0.907584
vt 0.969562 0.982365
vt 0.907477 0.878672
vt 1 0.968707
vt 0.837716 0.89813
vt 0.907477 0.878672
vt 0.967042 0.977898
vt 1 0.968707
vn 0.3129322 0.3652248 0.8767464
vn 0.263292 0.3534968 0.8976176
vn 0.263292 0.3534968 0.8976176
vn 0.2128522 0.3406951 0.9157624
vn 0.9683 0.2338387 -0.08783152
vn 0.9675899 0.246398 -0.0552963
vn 0.2894534 -0.21426 -0.9329038
vn 0.3301089 -0.196701 -0.9232209
vn -0.7926396 -0.3712158 -0.4836541
vn -0.765795 -0.3728361 -0.5239764
vn -0.5838953 0.7545332 0.2995762
vn -0.5839351 0.7544408 0.2997315
vn -0.5839509 0.7544118 0.2997737
vn -0.5839786 0.754351 0.2998725
vn -0.5839825 0.7543537 0.2998581
vn 0.4238865 0.2167697 -0.8793924
vn 0.3445803 0.1628102 -0.9245308
vn 0.8684673 0.4915955 0.06401815
vn 0.1800076 0.1398262 0.9736766
vn -0.7851112 -0.4158735 0.4589659
vn 0.5406932 -0.5367719 0.6477088
vn 0.5428767 -0.5285168 0.6526521
vn 0.9984645 0.05506549 -0.006051736
vn 0.510948 0.02794939 -0.8591571
vn -0.2842286 -0.5910553 -0.7548959
vn 0.9675899 0.246398 -0.0552963
vn 0.9657025 0.2586575 -0.02269381
vn 0.3301089 -0.196701 -0.9232209
vn 0.3700859 -0.1787378 -0.9116409
vn -0.765795 -0.3728361 -0.5239764
vn -0.7371513 -0.3735805 -0.5630679
vn -0.7790834 -0.01179993 0.6268092
vn -0.7967269 -0.02667353 0.6037508
vn -0.7967269 -0.02667353 0.6037508
vn -0.8135223 -0.04151875 0.5800496
vn 0.3445803 0.1628102 -0.9245308
vn 0.2614015 0.107021 -0.9592788
vn 0.8673236 0.4967331 -0.03171666
vn 0.8684673 0.4915955 0.06401815
vn 0.8616274 0.4819388 0.1591645
vn 0.08036857 0.07263967 0.9941148
vn 0.1800076 0.1398262 0.9736766
vn 0.2769717 0.2049349 0.9387695
vn -0.698259 -0.3744767 0.6100833
vn -0.7446785 -0.39677 0.536682
vn -0.7446785 -0.39677 0.536682
vn -0.6485828 -0.3902579 -0.6534822
vn -0.6485828 -0.3902579 -0.6534822
vn -0.5705618 -0.3606343 -0.7378361
vn 0.5428767 -0.5285168 0.6526521
vn 0.5450074 -0.5202102 0.6575319
vn 0.9990068 0.04450726 -0.0021222
vn 0.9990068 0.04450726 -0.0021222
vn 0.9994221 0.03394338 0.001807606
vn 0.5079017 0.01539105 -0.8612775
vn 0.510948 0.02794939 -0.8591571
vn 0.5139067 0.04050294 -0.8568894
vn -0.2857033 -0.587424 -0.7571701
vn -0.2842286 -0.5910553 -0.7548959
vn -0.2827479 -0.5946744 -0.7526061
vn -0.2615563 -0.945604 0.1934465
vn -0.2673213 -0.9405201 0.2096692
vn -0.2673213 -0.9405201 0.2096692
vn -0.2730003 -0.9351332 0.2258243
vn 0.09028103 0.06485876 0.9938021
vn 0.09040174 0.06490245 0.9937883
vn 0.09040174 0.06490245 0.9937883
vn 0.09052243 0.06494614 0.9937744
vn 0.5346788 0.7951976 0.285971
vn 0.5345221 0.7954163 0.2856556
vn 0.5345221 0.7954163 0.2856556
vn 0.5343654 0.7956347 0.2853402
vn 0.05465396 0.697492 -0.7145054
vn 0.05446695 0.6974545 -0.7145561
vn 0.05446695 0.6974545 -0.7145561
vn 0.05427994 0.6974172 -0.7146069
vn -0.7397775 -0.1428516 -0.6575124
vn -0.7398609 -0.1428859 -0.6574111
vn -0.7398609 -0.1428859 -0.6574111
vn -0.7399444 -0.1429203 -0.6573098
vn -0.7158297 -0.5456256 0.4357527
vn -0.7156343 -0.5457107 0.4359672
vn -0.7156343 -0.5457107 0.4359672
vn -0.7154389 -0.5457956 0.4361815
g TheRAntenna_0
f 3/3/3 2/2/2 4/4/4
f 3/3/3 1/1/1 2/2/2
f 26/26/26 6/6/6 27/27/27
f 26/26/26 5/5/5 6/6/6
f 28/28/28 8/8/8 29/29/29
f 28/28/28 7/7/7 8/8/8
f 30/30/30 10/10/10 31/31/31
f 30/30/30 9/9/9 10/10/10
f 33/33/33 34/34/34 35/35/35
f 33/33/33 32/32/32 34/34/34
f 13/13/13 14/14/14 15/15/15
f 13/13/13 12/12/12 14/14/14
f 11/11/11 12/12/12 13/13/13
f 17/17/17 36/36/36 37/37/37
f 17/17/17 16/16/16 36/36/36
f 18/18/18 39/39/39 40/40/40
f 18/18/18 38/38/38 39/39/39
f 42/42/42 19/19/19 43/43/43
f 42/42/42 41/41/41 19/19/19
f 45/45/45 46/46/46 20/20/20
f 45/45/45 44/44/44 46/46/46
f 47/47/47 48/48/48 49/49/49
f 47/47/47 31/31/31 48/48/48
f 50/50/50 22/22/22 51/51/51
f 50/50/50 21/21/21 22/22/22
f 52/52/52 53/53/53 54/54/54
f 52/52/52 23/23/23 53/53/53
f 24/24/24 56/56/56 57/57/57
f 24/24/24 55/55/55 56/56/56
f 25/25/25 59/59/59 60/60/60
f 25/25/25 58/58/58 59/59/59
f 62/62/62 63/63/63 64/64/64
f 62/62/62 61/61/61 63/63/63
f 66/66/66 67/67/67 68/68/68
f 66/66/66 65/65/65 67/67/67
f 70/70/70 71/71/71 72/72/72
f 70/70/70 69/69/69 71/71/71
f 74/74/74 75/75/75 76/76/76
f 74/74/74 73/73/73 75/75/75
f 78/78/78 79/79/79 80/80/80
f 78/78/78 77/77/77 79/79/79
f 82/82/82 83/83/83 84/84/84
f 82/82/82 81/81/81 83/83/83
