g TheRRabbitEar
v -0.2163135 2.404488 -0.01992106
v -0.2819141 2.578901 -0.04256563
v -0.4138666 2.526807 -0.03192689
v -0.3395228 2.355848 -0.009987259
v -0.4792065 2.501222 -0.0164385
v -0.4002786 2.332141 0.008534826
v -0.4198132 2.522506 -0.1267517
v -0.3456767 2.351398 -0.1080894
v -0.287861 2.5746 -0.1373892
v -0.2224662 2.400038 -0.1180231
v -0.2152997 2.605409 -0.03771565
v -0.1538582 2.429424 -0.01133262
v -0.4892314 2.982172 0.09421764
v -0.4777192 2.991216 0.09288049
v -0.5065532 3.018373 0.07127595
v -0.5347228 3.007254 0.07354672
v -0.5340553 2.968975 0.097422
v -0.517401 2.971053 0.09648839
v -0.3604077 2.749135 -0.01970383
v -0.4233062 2.86587 0.01857305
v -0.4973056 2.836655 0.02453954
v -0.4697699 2.705959 -0.01088663
v -0.535433 2.82392 0.03081741
v -0.5240244 2.684678 0.0003048335
v -0.508891 2.852663 -0.03270047
v -0.4755093 2.701805 -0.1024332
v -0.4348917 2.881878 -0.03866662
v -0.3661471 2.74498 -0.1112502
v -0.3874313 2.88235 0.01888525
v -0.3052999 2.771028 -0.01732956
v -0.1619268 2.236065 0.001684242
v -0.1109652 2.256599 0.01793163
v -0.1666089 2.232678 -0.07297064
v -0.2659923 2.193441 -0.06495775
v -0.3097317 2.178128 0.03395685
v -0.2613102 2.196828 0.009696937
v -0.1695142 2.042675 -0.008982273
v -0.1890025 2.036033 0.04385858
v -0.1241405 2.060588 -0.01264076
v -0.09825319 2.07186 0.03654217
v -0.1220441 2.062103 0.02078059
v -0.1674181 2.04419 0.02443895
v -0.3456767 2.351398 -0.1080894
v -0.4198132 2.522506 -0.1267517
v -0.1538582 2.429424 -0.01133262
v -0.2152997 2.605409 -0.03771565
v -0.4892314 2.982172 0.09421764
v -0.5240244 2.684678 0.0003048335
v -0.535433 2.82392 0.03081741
v -0.4755093 2.701805 -0.1024332
v -0.508891 2.852663 -0.03270047
v -0.1109652 2.256599 0.01793163
v -0.2659923 2.193441 -0.06495775
v -0.2152997 2.605409 -0.03771565
v -0.517401 2.971053 0.09648839
v -0.5065532 3.018373 0.07127595
v -0.5347228 3.007254 0.07354672
v -0.5347228 3.007254 0.07354672
v -0.1695142 2.042675 -0.008982273
v -0.1890025 2.036033 0.04385858
vt 0.419503 0.421716
vt 0.546198 0.569887
vt 0.655391 0.469845
vt 0.521462 0.328302
vt 0.708434 0.387213
vt 0.564053 0.250679
vt 0.759276 0.285877
vt 0.613437 0.158736
vt 0.427748 0.67631
vt 0.303434 0.517462
vt 0.489753 0.618884
vt 0.369319 0.471058
vt 0.89312 0.892007
vt 0.877608 0.918709
vt 0.923013 0.921398
vt 0.946322 0.900043
vt 0.938671 0.856772
vt 0.916429 0.870651
vt 0.68389 0.709184
vt 0.787115 0.801368
vt 0.848352 0.745263
vt 0.774388 0.62627
vt 0.883451 0.715172
vt 0.822597 0.578688
vt 0.937592 0.683824
vt 0.882553 0.521506
vt 0.717471 0.912849
vt 0.573709 0.814504
vt 0.760344 0.839252
vt 0.636194 0.755537
vt 0.305853 0.275332
vt 0.260666 0.321356
vt 0.191499 0.369106
vt 0.109099 0.441281
vt 0.428722 0.138134
vt 0.388094 0.199983
vt 0.303156 0.00887126
vt 0.275593 0.0572186
vt 0.0945802 0.214102
vt 0.151147 0.171532
vt 0.204274 0.11814
vt 0.241822 0.0837386
vt 0.197858 0.606735
vt 0.318537 0.776297
vt 0.369319 0.471058
vt 0.489753 0.618884
vt 0.89312 0.892007
vt 0.822597 0.578688
vt 0.883451 0.715172
vt 0.466253 0.905097
vt 0.675172 0.981829
vt 0.260666 0.321356
vt 0.477769 0.0739313
vt 0.489753 0.618884
vt 0.916429 0.870651
vt 0.855426 0.952276
vt 0.841085 0.99241
vt 0.982997 0.837653
vt 0.0170032 0.277509
vt 0.275593 0.0572186
vn -0.09574498 0.1097985 0.9893317
vn -0.006729882 -0.004943686 0.9999652
vn 0.1296684 0.04796694 0.9903965
vn 0.1073201 0.1827346 0.9772873
vn -0.7844147 -0.155883 0.6003281
vn -0.7209109 -0.24221 0.6493241
vn -0.5125404 -0.17411 -0.8408258
vn -0.4538795 -0.3669635 -0.8119922
vn 0.3720324 0.1775389 -0.9110827
vn 0.4529128 -0.02425315 -0.8912249
vn 0.8434348 0.2610084 0.4695662
vn 0.8064294 0.2939697 0.5130823
vn 0.06401785 0.009123738 0.997907
vn 0.6161377 0.6150482 0.4920264
vn -0.05032796 0.9986123 -0.01550899
vn -0.8141076 0.5372908 0.2203346
vn -0.176963 -0.1093434 0.9781249
vn 0.1641369 -0.3570522 0.9195504
vn 0.08526401 -0.2036134 0.9753315
vn 0.1715097 -0.377357 0.9100472
vn 0.1985199 -0.35988 0.9116339
vn 0.1842178 -0.1619722 0.9694477
vn -0.6920291 -0.2507366 0.6769245
vn -0.7608912 -0.1709972 0.6259428
vn -0.6623763 0.3084889 -0.6827096
vn -0.606683 0.1095349 -0.7873613
vn 0.2351055 0.6441881 -0.7278373
vn 0.2812862 0.4338923 -0.8559297
vn 0.8461312 0.3028182 0.4385923
vn 0.8318835 0.2989897 0.4675202
vn -0.1836015 0.08001629 0.9797387
vn 0.7872517 0.1618929 0.5950004
vn 0.496364 -0.1241514 -0.8591911
vn -0.4063363 -0.4857132 -0.7739338
vn -0.6043015 -0.2989029 0.738564
vn 0.1655824 0.2065421 0.9643251
vn -0.24607 -0.4688057 -0.8483341
vn -0.7857513 -0.6185396 0.001931544
vn 0.6685004 -0.1111477 -0.7353594
vn 0.01406621 0.04206266 0.9990159
vn -0.1599577 0.07273899 0.9844402
vn 0.3017583 0.3021896 0.9042252
vn -0.4538795 -0.3669635 -0.8119922
vn -0.5125404 -0.17411 -0.8408258
vn 0.8064294 0.2939697 0.5130823
vn 0.8434348 0.2610084 0.4695662
vn 0.06401785 0.009123738 0.997907
vn -0.7608912 -0.1709972 0.6259428
vn -0.6920291 -0.2507366 0.6769245
vn -0.606683 0.1095349 -0.7873613
vn -0.6623763 0.3084889 -0.6827096
vn 0.7872517 0.1618929 0.5950004
vn -0.4063363 -0.4857132 -0.7739338
vn 0.8434348 0.2610084 0.4695662
vn 0.1641369 -0.3570522 0.9195504
vn -0.05032796 0.9986123 -0.01550899
vn -0.8141076 0.5372908 0.2203346
vn -0.8141076 0.5372908 0.2203346
vn -0.24607 -0.4688057 -0.8483341
vn -0.7857513 -0.6185396 0.001931544
g TheRRabbitEar_0
f 18/18/18 47/47/47 17/17/17
f 6/6/6 7/7/7 8/8/8
f 6/6/6 5/5/5 7/7/7
f 4/4/4 5/5/5 6/6/6
f 4/4/4 3/3/3 5/5/5
f 1/1/1 3/3/3 4/4/4
f 1/1/1 2/2/2 3/3/3
f 45/45/45 2/2/2 1/1/1
f 45/45/45 46/46/46 2/2/2
f 13/13/13 16/16/16 17/17/17
f 13/13/13 15/15/15 16/16/16
f 14/14/14 15/15/15 13/13/13
f 59/59/59 33/33/33 39/39/39
f 34/34/34 33/33/33 59/59/59
f 34/34/34 10/10/10 33/33/33
f 43/43/43 10/10/10 34/34/34
f 43/43/43 9/9/9 10/10/10
f 44/44/44 9/9/9 43/43/43
f 44/44/44 28/28/28 9/9/9
f 50/50/50 28/28/28 44/44/44
f 50/50/50 27/27/27 28/28/28
f 51/51/51 27/27/27 50/50/50
f 51/51/51 56/56/56 27/27/27
f 57/57/57 56/56/56 51/51/51
f 14/14/14 27/27/27 56/56/56
f 14/14/14 29/29/29 27/27/27
f 13/13/13 29/29/29 14/14/14
f 13/13/13 20/20/20 29/29/29
f 55/55/55 20/20/20 13/13/13
f 55/55/55 21/21/21 20/20/20
f 17/17/17 21/21/21 55/55/55
f 17/17/17 23/23/23 21/21/21
f 58/58/58 23/23/23 17/17/17
f 25/25/25 49/49/49 58/58/58
f 25/25/25 48/48/48 49/49/49
f 26/26/26 48/48/48 25/25/25
f 26/26/26 5/5/5 48/48/48
f 7/7/7 5/5/5 26/26/26
f 8/8/8 35/35/35 6/6/6
f 53/53/53 35/35/35 8/8/8
f 53/53/53 38/38/38 35/35/35
f 37/37/37 38/38/38 53/53/53
f 29/29/29 28/28/28 27/27/27
f 30/30/30 28/28/28 29/29/29
f 30/30/30 9/9/9 28/28/28
f 11/11/11 9/9/9 30/30/30
f 11/11/11 10/10/10 9/9/9
f 12/12/12 10/10/10 11/11/11
f 12/12/12 33/33/33 10/10/10
f 52/52/52 33/33/33 12/12/12
f 52/52/52 39/39/39 33/33/33
f 40/40/40 39/39/39 52/52/52
f 31/31/31 40/40/40 32/32/32
f 31/31/31 41/41/41 40/40/40
f 36/36/36 41/41/41 31/31/31
f 36/36/36 42/42/42 41/41/41
f 35/35/35 42/42/42 36/36/36
f 35/35/35 60/60/60 42/42/42
f 20/20/20 30/30/30 29/29/29
f 20/20/20 19/19/19 30/30/30
f 21/21/21 19/19/19 20/20/20
f 21/21/21 22/22/22 19/19/19
f 23/23/23 22/22/22 21/21/21
f 23/23/23 24/24/24 22/22/22
f 36/36/36 6/6/6 35/35/35
f 36/36/36 4/4/4 6/6/6
f 31/31/31 4/4/4 36/36/36
f 31/31/31 1/1/1 4/4/4
f 32/32/32 1/1/1 31/31/31
f 32/32/32 45/45/45 1/1/1
f 19/19/19 54/54/54 30/30/30
f 19/19/19 2/2/2 54/54/54
f 22/22/22 2/2/2 19/19/19
f 22/22/22 3/3/3 2/2/2
f 24/24/24 3/3/3 22/22/22
f 24/24/24 5/5/5 3/3/3
