g TheTongue
v -0.01314993 1.561317 0.5139903
v 0.08344661 1.580117 0.5145542
v -0.01320134 1.576788 0.5491551
v -0.01401163 1.569927 0.3833835
v 0.1225817 1.59731 0.383792
v -0.01513542 1.577648 0.2029782
v -0.01642649 1.593595 0.01604126
v 0.08020385 1.605034 0.001564517
v 0.08995684 1.607658 0.2033119
v -0.01717365 1.629714 -0.01491905
v -0.01602584 1.634307 0.2051852
v -0.1102843 1.577032 0.5156271
v -0.1513951 1.592946 0.3853098
v -0.1324722 1.601901 0.2047497
v -0.1135267 1.601946 0.002639239
v -0.01374529 1.599441 0.5161514
v -0.01485927 1.623935 0.3856848
v 0.08344661 1.580117 0.5145542
v -0.01314993 1.561317 0.5139903
v -0.01513542 1.577648 0.2029782
v 0.08020385 1.605034 0.001564517
v 0.08995684 1.607658 0.2033119
v 0.08020385 1.605034 0.001564517
v -0.1102843 1.577032 0.5156271
v -0.01642649 1.593595 0.01604126
v -0.1324722 1.601901 0.2047497
v -0.01513542 1.577648 0.2029782
v -0.01642649 1.593595 0.01604126
v 0.1225817 1.59731 0.383792
v 0.08344661 1.580117 0.5145542
v -0.01320134 1.576788 0.5491551
v -0.1102843 1.577032 0.5156271
v -0.1513951 1.592946 0.3853098
v -0.01602584 1.634307 0.2051852
v -0.1135267 1.601946 0.002639239
v -0.01717365 1.629714 -0.01491905
v -0.1324722 1.601901 0.2047497
v -0.01513542 1.577648 0.2029782
v -0.1513951 1.592946 0.3853098
v -0.01401163 1.569927 0.3833835
v -0.01513542 1.577648 0.2029782
v -0.1324722 1.601901 0.2047497
v -0.1513951 1.592946 0.3853098
v 0.08995684 1.607658 0.2033119
v -0.01401163 1.569927 0.3833835
v 0.08995684 1.607658 0.2033119
v -0.01513542 1.577648 0.2029782
v -0.01401163 1.569927 0.3833835
v -0.1324722 1.601901 0.2047497
v -0.01485927 1.623935 0.3856848
v -0.1513951 1.592946 0.3853098
v -0.01602584 1.634307 0.2051852
v -0.01602584 1.634307 0.2051852
v 0.1225817 1.59731 0.383792
v -0.01485927 1.623935 0.3856848
v 0.08995684 1.607658 0.2033119
vt 0.22347 0.921619
vt 0.0487394 0.90142
vt 0.215566 0.98658
vt 0.252797 0.680598
vt 0.00577694 0.651322
vt 0.293308 0.347662
vt 0.332451 0.0259757
vt 0.15772 0.00577694
vt 0.102991 0.325179
vt 0.684304 0.0349231
vt 0.715092 0.357722
vt 0.397691 0.946012
vt 0.499268 0.714385
vt 0.503654 0.376752
vt 0.507893 0.0503856
vt 0.769983 0.933222
vt 0.746956 0.691805
vt 0.0487394 0.90142
vt 0.22347 0.921619
vt 0.293308 0.347662
vt 0.15772 0.00577694
vt 0.905515 0.336127
vt 0.859101 0.0153445
vt 0.397691 0.946012
vt 0.332451 0.0259757
vt 0.503654 0.376752
vt 0.293308 0.347662
vt 0.332451 0.0259757
vt 0.994223 0.664807
vt 0.94478 0.913643
vt 0.775801 0.994223
vt 0.594794 0.948701
vt 0.499268 0.714385
vt 0.715092 0.357722
vt 0.507893 0.0503856
vt 0.684304 0.0349231
vt 0.503654 0.376752
vt 0.293308 0.347662
vt 0.499268 0.714385
vt 0.252797 0.680598
vt 0.293308 0.347662
vt 0.503654 0.376752
vt 0.499268 0.714385
vt 0.102991 0.325179
vt 0.252797 0.680598
vt 0.102991 0.325179
vt 0.293308 0.347662
vt 0.252797 0.680598
vt 0.503654 0.376752
vt 0.746956 0.691805
vt 0.499268 0.714385
vt 0.715092 0.357722
vt 0.715092 0.357722
vt 0.994223 0.664807
vt 0.746956 0.691805
vt 0.905515 0.336127
vn 0.01448282 -0.8468098 0.5316986
vn 0.1994607 -0.8304084 0.5202281
vn 0.01448282 -0.8468098 0.5316986
vn 0.07774829 -0.9843299 -0.1582714
vn 0.1356153 -0.9838941 -0.1164509
vn 0.08632496 -0.9921698 0.0902612
vn 0.08632496 -0.9921698 0.0902612
vn 0.08632496 -0.9921698 0.0902612
vn 0.265276 -0.9432853 0.1996032
vn 0.2399543 0.9416143 -0.2361875
vn 0.2485859 0.9380211 -0.2414981
vn -0.1709964 -0.8338969 0.5247629
vn -0.1599206 -0.9783939 -0.1310377
vn -0.0840544 -0.9768395 0.1967728
vn -0.0840544 -0.9768395 0.1967728
vn 0.04466209 0.9417128 0.3334402
vn -0.06208053 0.9611523 0.2689468
vn 0.1745638 -0.9736047 -0.1470425
vn -0.03600538 -0.9882079 -0.1488251
vn 0.265276 -0.9432853 0.1996032
vn 0.265276 -0.9432853 0.1996032
vn 0.2399543 0.9416143 -0.2361875
vn 0.2399543 0.9416143 -0.2361875
vn -0.2013498 -0.9757848 -0.08545429
vn -0.0840544 -0.9768395 0.1967728
vn -0.1998477 -0.9753962 0.09307632
vn -0.1998477 -0.9753962 0.09307632
vn -0.1998477 -0.9753962 0.09307632
vn 0.1959124 0.9509529 0.2393886
vn 0.1525456 0.9350312 0.3200726
vn -0.003124086 0.8976848 0.4406269
vn -0.1889034 0.9290273 0.318157
vn -0.2480239 0.9419888 0.2261445
vn -0.2632242 0.9358782 -0.2341898
vn -0.2632242 0.9358782 -0.2341898
vn -0.2632242 0.9358782 -0.2341898
vn -0.2669151 0.9355046 -0.2314898
vn -0.1219544 -0.9923342 0.01999746
vn -0.1219544 -0.9923342 0.01999746
vn -0.1219544 -0.9923342 0.01999746
vn -0.1959103 -0.9793088 -0.05072672
vn -0.1959103 -0.9793088 -0.05072672
vn -0.1959103 -0.9793088 -0.05072672
vn 0.1377974 -0.987878 -0.07147841
vn 0.1377974 -0.987878 -0.07147841
vn 0.2599006 -0.9655245 0.01463602
vn 0.2599006 -0.9655245 0.01463602
vn 0.2599006 -0.9655245 0.01463602
vn -0.2610617 0.9653075 -0.005324854
vn -0.2610617 0.9653075 -0.005324854
vn -0.2610617 0.9653075 -0.005324854
vn -0.2702523 0.9627855 0.002753357
vn 0.242654 0.9701052 -0.003869648
vn 0.242654 0.9701052 -0.003869648
vn 0.242654 0.9701052 -0.003869648
vn 0.257035 0.9662285 -0.01831294
g TheTongue_0
f 8/8/8 6/6/6 7/7/7
f 9/9/9 20/20/20 21/21/21
f 25/25/25 14/14/14 15/15/15
f 27/27/27 26/26/26 28/28/28
f 39/39/39 38/38/38 40/40/40
f 42/42/42 41/41/41 43/43/43
f 45/45/45 44/44/44 5/5/5
f 47/47/47 46/46/46 48/48/48
f 3/3/3 1/1/1 2/2/2
f 3/3/3 12/12/12 1/1/1
f 13/13/13 19/19/19 24/24/24
f 4/4/4 19/19/19 13/13/13
f 4/4/4 18/18/18 19/19/19
f 5/5/5 18/18/18 4/4/4
f 10/10/10 22/22/22 23/23/23
f 10/10/10 11/11/11 22/22/22
f 29/29/29 16/16/16 30/30/30
f 17/17/17 16/16/16 29/29/29
f 17/17/17 32/32/32 16/16/16
f 33/33/33 32/32/32 17/17/17
f 35/35/35 34/34/34 36/36/36
f 35/35/35 37/37/37 34/34/34
f 50/50/50 49/49/49 51/51/51
f 50/50/50 52/52/52 49/49/49
f 54/54/54 53/53/53 55/55/55
f 54/54/54 56/56/56 53/53/53
f 31/31/31 16/16/16 32/32/32
f 31/31/31 30/30/30 16/16/16
