g tt_m_hos_rocketDoor
v -71.24483 -56.88861 -0.005870803
v -34.88273 -56.88922 -0.005905135
v -63.91115 45.64896 0.00481035
v -73.66108 26.71973 0.002838151
v -37.65227 56.88977 0.005908982
v -11.43865 43.11795 0.004405992
v 1.479358 -56.8898 -0.005916579
v -0.02188945 18.9964 0.00191118
v -34.88273 -56.88922 -5.11813
v -71.24483 -56.88861 -5.118095
v -63.91115 45.64896 -5.107414
v -73.66108 26.71973 -5.109386
v -37.65227 56.88977 -5.106319
v -11.43865 43.11795 -5.107815
v 1.479358 -56.8898 -5.118141
v -0.02188945 18.9964 -5.110313
v -71.24483 -56.88861 -0.005870803
v -34.88273 -56.88922 -5.11813
v -71.24483 -56.88861 -5.118095
v -34.88273 -56.88922 -0.005905135
v -63.91115 45.64896 0.00481035
v -73.66108 26.71973 -5.109386
v -63.91115 45.64896 -5.107414
v -73.66108 26.71973 0.002838151
v -73.66108 26.71973 0.002838151
v -71.24483 -56.88861 -5.118095
v -73.66108 26.71973 -5.109386
v -71.24483 -56.88861 -0.005870803
v -37.65227 56.88977 0.005908982
v -63.91115 45.64896 -5.107414
v -37.65227 56.88977 -5.106319
v -63.91115 45.64896 0.00481035
v -11.43865 43.11795 0.004405992
v -37.65227 56.88977 -5.106319
v -11.43865 43.11795 -5.107815
v -37.65227 56.88977 0.005908982
v 1.479358 -56.8898 -5.118141
v 1.479358 -56.8898 -0.005916579
v 1.479358 -56.8898 -0.005916579
v -0.02188945 18.9964 -5.110313
v 1.479358 -56.8898 -5.118141
v -0.02188945 18.9964 0.00191118
v -0.02188945 18.9964 0.00191118
v -11.43865 43.11795 -5.107815
v -0.02188945 18.9964 -5.110313
v -11.43865 43.11795 0.004405992
vt 0.8414955 0.7268033
vt 0.9080887 0.7268033
vt 0.8618419 0.9141445
vt 0.8427093 0.8795596
vt 0.9099826 0.9346851
vt 0.9565248 0.9095259
vt 0.974682 0.7268033
vt 0.9761066 0.8654541
vt 0.9080887 0.7268033
vt 0.8414955 0.7268033
vt 0.8618419 0.9141445
vt 0.8427093 0.8795596
vt 0.9099826 0.9346851
vt 0.9565248 0.9095259
vt 0.974682 0.7268033
vt 0.9761066 0.8654541
vt 0.8414955 0.7268033
vt 0.9080887 0.7268033
vt 0.8414955 0.7268033
vt 0.9080887 0.7268033
vt 0.8618419 0.9141445
vt 0.8427093 0.8795596
vt 0.8618419 0.9141445
vt 0.8427093 0.8795596
vt 0.8427093 0.8795596
vt 0.8414955 0.7268033
vt 0.8427093 0.8795596
vt 0.8414955 0.7268033
vt 0.9099826 0.9346851
vt 0.8618419 0.9141445
vt 0.9099826 0.9346851
vt 0.8618419 0.9141445
vt 0.9565248 0.9095259
vt 0.9099826 0.9346851
vt 0.9565248 0.9095259
vt 0.9099826 0.9346851
vt 0.974682 0.7268033
vt 0.974682 0.7268033
vt 0.974682 0.7268033
vt 0.9761066 0.8654541
vt 0.974682 0.7268033
vt 0.9761066 0.8654541
vt 0.9761066 0.8654541
vt 0.9565248 0.9095259
vt 0.9761066 0.8654541
vt 0.9565248 0.9095259
vn 0 -0.0001042224 1
vn 0 -0.0001042224 1
vn 0 -0.0001042224 1
vn 0 -0.0001042224 1
vn 0 -0.0001037709 1
vn 0 -0.0001037652 1
vn 0 -0.0001031702 1
vn 0 -0.0001031702 1
vn 0 0.0001042224 -1
vn 0 0.0001042224 -1
vn 0 0.0001042224 -1
vn 0 0.0001042224 -1
vn 0 0.0001037343 -1
vn 0 0.0001037384 -1
vn 0 0.0001032 -1
vn 0 0.0001032 -1
vn -1.67854E-05 -1 0
vn -1.67854E-05 -1 0
vn -1.67854E-05 -1 0
vn -1.67854E-05 -1 0
vn -0.8890032 0.4579011 0
vn -0.8890032 0.4579011 0
vn -0.8890032 0.4579011 0
vn -0.8890032 0.4579011 0
vn -0.9995827 -0.0288876 0
vn -0.9995827 -0.0288876 0
vn -0.9995827 -0.0288876 0
vn -0.9995827 -0.0288876 0
vn -0.3935352 0.9193095 0
vn -0.3935352 0.9193095 0
vn -0.3935352 0.9193095 0
vn -0.3935352 0.9193095 0
vn 0.46509 0.8852634 0
vn 0.46509 0.8852634 0
vn 0.46509 0.8852634 0
vn 0.46509 0.8852634 0
vn -1.594613E-05 -1 0
vn -1.594613E-05 -1 0
vn 0.9998044 0.01977899 0
vn 0.9998044 0.01977899 0
vn 0.9998044 0.01977899 0
vn 0.9998044 0.01977899 0
vn 0.9038719 0.4278033 0
vn 0.9038719 0.4278033 0
vn 0.9038719 0.4278033 0
vn 0.9038719 0.4278033 0
g tt_m_hos_rocketDoor_0
f 9/9/9 13/13/13 14/14/14
f 9/9/9 11/11/11 13/13/13
f 10/10/10 11/11/11 9/9/9
f 10/10/10 12/12/12 11/11/11
f 9/9/9 16/16/16 15/15/15
f 9/9/9 14/14/14 16/16/16
f 5/5/5 2/2/2 6/6/6
f 3/3/3 2/2/2 5/5/5
f 3/3/3 1/1/1 2/2/2
f 4/4/4 1/1/1 3/3/3
f 8/8/8 2/2/2 7/7/7
f 8/8/8 6/6/6 2/2/2
f 20/20/20 37/37/37 38/38/38
f 20/20/20 18/18/18 37/37/37
f 17/17/17 18/18/18 20/20/20
f 17/17/17 19/19/19 18/18/18
f 22/22/22 21/21/21 23/23/23
f 22/22/22 24/24/24 21/21/21
f 26/26/26 25/25/25 27/27/27
f 26/26/26 28/28/28 25/25/25
f 30/30/30 29/29/29 31/31/31
f 30/30/30 32/32/32 29/29/29
f 34/34/34 33/33/33 35/35/35
f 34/34/34 36/36/36 33/33/33
f 40/40/40 39/39/39 41/41/41
f 40/40/40 42/42/42 39/39/39
f 44/44/44 43/43/43 45/45/45
f 44/44/44 46/46/46 43/43/43
