g FLIPPY:dog_eyelashes
v 0.1271536 1.520032 0.1293562
v 0.1303797 1.517868 0.1255111
v 0.1479395 1.537009 0.1207569
v 0.08090634 1.500191 0.1156694
v 0.08911271 1.494807 0.1129257
v 0.1087798 1.503057 0.1223768
v 0.102496 1.507582 0.1272838
v 0.1401127 1.499176 0.1193764
v 0.1433295 1.495332 0.1187909
v 0.1691808 1.51136 0.1112518
v 0.09017243 1.490638 0.1057943
v 0.09621278 1.483456 0.1038844
v 0.1165707 1.486938 0.1174059
v 0.1140349 1.493732 0.1184748
v 0.1498355 1.479155 0.1012523
v 0.1505743 1.475568 0.1006032
v 0.1840343 1.488052 0.09377211
v 0.0997244 1.48155 0.09398834
v 0.1007078 1.474161 0.09588845
v 0.1237479 1.472374 0.09787147
v 0.1234641 1.479835 0.09901037
v 0.08911272 1.494807 0.1129257
v 0.1479395 1.537009 0.1207569
v 0.1271536 1.520032 0.1293561
v 0.1303798 1.517868 0.1255111
v 0.1087799 1.503057 0.1223769
v 0.102496 1.507582 0.1272837
v 0.0901725 1.490638 0.1057943
v 0.09621284 1.483456 0.1038844
v 0.1691809 1.51136 0.1112517
v 0.1401128 1.499176 0.1193764
v 0.1433296 1.495332 0.1187908
v 0.1165707 1.486938 0.117406
v 0.1140349 1.493732 0.1184748
v 0.09972445 1.48155 0.09398834
v 0.1007078 1.474161 0.09588842
v 0.1840344 1.488052 0.09377205
v 0.1498356 1.479155 0.1012523
v 0.1505744 1.475568 0.1006032
v 0.123748 1.472374 0.09787144
v 0.1234641 1.479835 0.09901033
v -0.1271536 1.520032 0.1293562
v -0.1303797 1.517868 0.1255111
v -0.1479395 1.537009 0.1207569
v -0.08090634 1.500191 0.1156694
v -0.08911271 1.494807 0.1129257
v -0.1087798 1.503057 0.1223768
v -0.102496 1.507582 0.1272838
v -0.1401127 1.499176 0.1193764
v -0.1433295 1.495332 0.1187909
v -0.1691808 1.51136 0.1112518
v -0.09017243 1.490638 0.1057943
v -0.09621278 1.483456 0.1038844
v -0.1165707 1.486938 0.1174059
v -0.1140349 1.493732 0.1184748
v -0.1498355 1.479155 0.1012523
v -0.1505743 1.475568 0.1006032
v -0.1840343 1.488052 0.09377211
v -0.0997244 1.48155 0.09398834
v -0.1007078 1.474161 0.09588845
v -0.1237479 1.472374 0.09787147
v -0.1234641 1.479835 0.09901037
v -0.08911272 1.494807 0.1129257
v -0.1479395 1.537009 0.1207569
v -0.1271536 1.520032 0.1293561
v -0.1303798 1.517868 0.1255111
v -0.1087799 1.503057 0.1223769
v -0.102496 1.507582 0.1272837
v -0.0901725 1.490638 0.1057943
v -0.09621284 1.483456 0.1038844
v -0.1691809 1.51136 0.1112517
v -0.1401128 1.499176 0.1193764
v -0.1433296 1.495332 0.1187908
v -0.1165707 1.486938 0.117406
v -0.1140349 1.493732 0.1184748
v -0.09972445 1.48155 0.09398834
v -0.1007078 1.474161 0.09588842
v -0.1840344 1.488052 0.09377205
v -0.1498356 1.479155 0.1012523
v -0.1505744 1.475568 0.1006032
v -0.123748 1.472374 0.09787144
v -0.1234641 1.479835 0.09901033
v 0.08090634 1.500191 0.1156694
v -0.08090634 1.500191 0.1156694
vt 0.5499827 0.8605289
vt 0.5500476 0.8589811
vt 0.5576165 0.8626187
vt 0.5323917 0.8685699
vt 0.5336122 0.8620396
vt 0.5415516 0.8591787
vt 0.5412672 0.8626668
vt 0.5499827 0.8605289
vt 0.5500476 0.8589811
vt 0.5576165 0.8626187
vt 0.5323917 0.8685699
vt 0.5336122 0.8620396
vt 0.5415516 0.8591787
vt 0.5412672 0.8626668
vt 0.5499827 0.8605289
vt 0.5500476 0.8589811
vt 0.5576165 0.8626187
vt 0.5323917 0.8685699
vt 0.5336122 0.8620396
vt 0.5415516 0.8591787
vt 0.5412672 0.8626668
vt 0.5336122 0.8620396
vt 0.5576165 0.8626187
vt 0.5499827 0.8605289
vt 0.5500476 0.8589811
vt 0.5415516 0.8591787
vt 0.5412672 0.8626668
vt 0.5323917 0.8685699
vt 0.5336122 0.8620396
vt 0.5576165 0.8626187
vt 0.5499827 0.8605289
vt 0.5500476 0.8589811
vt 0.5415516 0.8591787
vt 0.5412672 0.8626668
vt 0.5323917 0.8685699
vt 0.5336122 0.8620396
vt 0.5576165 0.8626187
vt 0.5499827 0.8605289
vt 0.5500476 0.8589811
vt 0.5415516 0.8591787
vt 0.5412672 0.8626668
vt 0.5499827 0.8605289
vt 0.5500476 0.8589811
vt 0.5576165 0.8626187
vt 0.5323917 0.8685699
vt 0.5336122 0.8620396
vt 0.5415516 0.8591787
vt 0.5412672 0.8626668
vt 0.5499827 0.8605289
vt 0.5500476 0.8589811
vt 0.5576165 0.8626187
vt 0.5323917 0.8685699
vt 0.5336122 0.8620396
vt 0.5415516 0.8591787
vt 0.5412672 0.8626668
vt 0.5499827 0.8605289
vt 0.5500476 0.8589811
vt 0.5576165 0.8626187
vt 0.5323917 0.8685699
vt 0.5336122 0.8620396
vt 0.5415516 0.8591787
vt 0.5412672 0.8626668
vt 0.5336122 0.8620396
vt 0.5576165 0.8626187
vt 0.5499827 0.8605289
vt 0.5500476 0.8589811
vt 0.5415516 0.8591787
vt 0.5412672 0.8626668
vt 0.5323917 0.8685699
vt 0.5336122 0.8620396
vt 0.5576165 0.8626187
vt 0.5499827 0.8605289
vt 0.5500476 0.8589811
vt 0.5415516 0.8591787
vt 0.5412672 0.8626668
vt 0.5323917 0.8685699
vt 0.5336122 0.8620396
vt 0.5576165 0.8626187
vt 0.5499827 0.8605289
vt 0.5500476 0.8589811
vt 0.5415516 0.8591787
vt 0.5412672 0.8626668
vt 0.5323917 0.8685699
vt 0.5323917 0.8685699
vn -0.442598 0.4965548 -0.7466862
vn -0.442598 0.4965548 -0.7466862
vn -0.597522 0.3716687 -0.7105137
vn 0.09976387 0.695374 -0.7116897
vn 0.09976387 0.695374 -0.7116897
vn -0.0865063 0.6604964 -0.7458293
vn -0.0865063 0.6604964 -0.7458293
vn -0.1235432 0.04886153 -0.9911356
vn -0.1235432 0.04886153 -0.9911356
vn -0.2459497 -0.05842829 -0.9675199
vn 0.4136869 0.4253902 -0.8049262
vn 0.4136869 0.4253902 -0.8049262
vn 0.2155146 0.3006689 -0.9290596
vn 0.2155146 0.3006689 -0.9290596
vn -0.08048269 0.1474532 -0.9857891
vn -0.08048269 0.1474532 -0.9857891
vn -0.2427258 0.1240985 -0.9621245
vn 0.1451768 -0.03829018 -0.9886645
vn 0.1451768 -0.03829018 -0.9886645
vn 0.1152344 0.06460788 -0.991235
vn 0.1152344 0.06460788 -0.991235
vn -0.09976738 -0.6953452 0.7117172
vn 0.5975151 -0.3716554 0.7105265
vn 0.4425866 -0.4965366 0.7467051
vn 0.4425866 -0.4965366 0.7467051
vn 0.08649638 -0.6604692 0.7458544
vn 0.08649638 -0.6604692 0.7458544
vn -0.4136909 -0.4253912 0.8049237
vn -0.4136909 -0.4253912 0.8049237
vn 0.2459421 0.05841984 0.9675224
vn 0.12354 -0.04886305 0.9911358
vn 0.12354 -0.04886305 0.9911358
vn -0.2155162 -0.300667 0.9290598
vn -0.2155162 -0.300667 0.9290598
vn -0.1451779 0.03828899 0.9886644
vn -0.1451779 0.03828899 0.9886644
vn 0.2427275 -0.1240975 0.9621243
vn 0.08048277 -0.147452 0.9857892
vn 0.08048277 -0.147452 0.9857892
vn -0.1152357 -0.06460772 0.9912348
vn -0.1152357 -0.06460772 0.9912348
vn 0.4425938 0.4965527 -0.7466902
vn 0.4425938 0.4965527 -0.7466902
vn 0.5975142 0.3716653 -0.7105222
vn -0.09976412 0.6953757 -0.711688
vn -0.09976412 0.6953757 -0.711688
vn 0.08650617 0.6604972 -0.7458284
vn 0.08650617 0.6604972 -0.7458284
vn 0.1235417 0.04886255 -0.9911356
vn 0.1235417 0.04886255 -0.9911356
vn 0.2459468 -0.05842699 -0.9675208
vn -0.4136857 0.4253888 -0.8049276
vn -0.4136857 0.4253888 -0.8049276
vn -0.2155139 0.3006684 -0.9290599
vn -0.2155139 0.3006684 -0.9290599
vn 0.08048523 0.1474536 -0.9857888
vn 0.08048523 0.1474536 -0.9857888
vn 0.2427301 0.1241004 -0.9621232
vn -0.1451779 -0.03829049 -0.9886643
vn -0.1451779 -0.03829049 -0.9886643
vn -0.1152347 0.06460713 -0.991235
vn -0.1152347 0.06460713 -0.991235
vn 0.09976766 -0.6953467 0.7117158
vn -0.5975082 -0.3716511 0.7105346
vn -0.4425833 -0.4965351 0.746708
vn -0.4425833 -0.4965351 0.746708
vn -0.08649667 -0.6604711 0.7458528
vn -0.08649667 -0.6604711 0.7458528
vn 0.4136899 -0.4253898 0.8049249
vn 0.4136899 -0.4253898 0.8049249
vn -0.245941 0.0584191 0.9675227
vn -0.1235393 -0.0488636 0.9911358
vn -0.1235393 -0.0488636 0.9911358
vn 0.2155157 -0.3006664 0.9290601
vn 0.2155157 -0.3006664 0.9290601
vn 0.1451774 0.03828895 0.9886645
vn 0.1451774 0.03828895 0.9886645
vn -0.2427238 -0.1240953 0.9621255
vn -0.08048107 -0.1474504 0.9857896
vn -0.08048107 -0.1474504 0.9857896
vn 0.1152353 -0.06460737 0.9912349
vn 0.1152353 -0.06460737 0.9912349
vn -0.09976738 -0.6953452 0.7117172
vn 0.09976766 -0.6953467 0.7117158
g FLIPPY:dog_eyelashes_0
f 2/2/2 1/1/1 3/3/3
f 2/2/2 7/7/7 1/1/1
f 6/6/6 7/7/7 2/2/2
f 6/6/6 4/4/4 7/7/7
f 5/5/5 4/4/4 6/6/6
f 9/9/9 8/8/8 10/10/10
f 9/9/9 14/14/14 8/8/8
f 13/13/13 14/14/14 9/9/9
f 13/13/13 11/11/11 14/14/14
f 12/12/12 11/11/11 13/13/13
f 16/16/16 15/15/15 17/17/17
f 16/16/16 21/21/21 15/15/15
f 20/20/20 21/21/21 16/16/16
f 20/20/20 18/18/18 21/21/21
f 19/19/19 18/18/18 20/20/20
f 26/26/26 83/83/83 22/22/22
f 26/26/26 27/27/27 83/83/83
f 25/25/25 27/27/27 26/26/26
f 25/25/25 24/24/24 27/27/27
f 23/23/23 24/24/24 25/25/25
f 33/33/33 28/28/28 29/29/29
f 33/33/33 34/34/34 28/28/28
f 32/32/32 34/34/34 33/33/33
f 32/32/32 31/31/31 34/34/34
f 30/30/30 31/31/31 32/32/32
f 40/40/40 35/35/35 36/36/36
f 40/40/40 41/41/41 35/35/35
f 39/39/39 41/41/41 40/40/40
f 39/39/39 38/38/38 41/41/41
f 37/37/37 38/38/38 39/39/39
f 47/47/47 45/45/45 46/46/46
f 47/47/47 48/48/48 45/45/45
f 43/43/43 48/48/48 47/47/47
f 43/43/43 42/42/42 48/48/48
f 44/44/44 42/42/42 43/43/43
f 54/54/54 52/52/52 53/53/53
f 54/54/54 55/55/55 52/52/52
f 50/50/50 55/55/55 54/54/54
f 50/50/50 49/49/49 55/55/55
f 51/51/51 49/49/49 50/50/50
f 61/61/61 59/59/59 60/60/60
f 61/61/61 62/62/62 59/59/59
f 57/57/57 62/62/62 61/61/61
f 57/57/57 56/56/56 62/62/62
f 58/58/58 56/56/56 57/57/57
f 66/66/66 65/65/65 64/64/64
f 66/66/66 68/68/68 65/65/65
f 67/67/67 68/68/68 66/66/66
f 67/67/67 84/84/84 68/68/68
f 63/63/63 84/84/84 67/67/67
f 73/73/73 72/72/72 71/71/71
f 73/73/73 75/75/75 72/72/72
f 74/74/74 75/75/75 73/73/73
f 74/74/74 69/69/69 75/75/75
f 70/70/70 69/69/69 74/74/74
f 80/80/80 79/79/79 78/78/78
f 80/80/80 82/82/82 79/79/79
f 81/81/81 82/82/82 80/80/80
f 81/81/81 76/76/76 82/82/82
f 77/77/77 76/76/76 81/81/81
