g FLIPPY:duck_eyelashes
v 0.1610663 0.07716798 0.01564819
v 0.1650293 0.0745096 0.01028325
v 0.1865995 0.09802309 -0.002290621
v 0.1042568 0.05279634 0.0006880664
v 0.1143374 0.04618165 -0.00292676
v 0.1384963 0.05631685 0.009462127
v 0.1307773 0.06187471 0.01582883
v 0.1827249 0.04718004 0.00548727
v 0.1866764 0.0424576 0.005627479
v 0.2184318 0.06214616 -0.01041133
v 0.1213789 0.03941087 -0.01322061
v 0.1287988 0.02786989 -0.01422266
v 0.1538061 0.03214662 0.005768108
v 0.1506912 0.04049272 0.005573339
v 0.1991212 0.01403124 -0.01966498
v 0.2000288 0.009624649 -0.01969338
v 0.2411306 0.02495958 -0.03367079
v 0.1375654 0.01697313 -0.03156565
v 0.1387734 0.007897049 -0.0266117
v 0.1670757 0.005701004 -0.02305402
v 0.1667269 0.0148662 -0.02332195
v 0.1865995 0.09802309 -0.002290669
v 0.1610664 0.07716829 0.01564799
v 0.1650294 0.0745096 0.01028325
v 0.1384963 0.05631685 0.009462213
v 0.1307774 0.06187547 0.01582856
v 0.121379 0.03941087 -0.01322056
v 0.1287989 0.02786989 -0.01422262
v 0.2184319 0.06214616 -0.01041141
v 0.182725 0.04718034 0.005487194
v 0.1866765 0.04245775 0.005627394
v 0.1538062 0.03214662 0.005768146
v 0.1506913 0.04049272 0.00557333
v 0.1375655 0.01697282 -0.03156562
v 0.1387735 0.007897049 -0.02661172
v 0.2411308 0.02495989 -0.03367092
v 0.1991213 0.01403154 -0.01966502
v 0.2000289 0.009624649 -0.01969338
v 0.1670757 0.005701004 -0.02305408
v 0.166727 0.0148662 -0.02332199
v -0.1610663 0.07716798 0.01564819
v -0.1650293 0.0745096 0.01028325
v -0.1865995 0.09802309 -0.002290621
v -0.1042568 0.05279634 0.0006880664
v -0.1143374 0.04618165 -0.00292676
v -0.1384963 0.05631685 0.009462127
v -0.1307773 0.06187471 0.01582883
v -0.1827249 0.04718004 0.00548727
v -0.1866764 0.0424576 0.005627479
v -0.2184317 0.06214616 -0.01041133
v -0.1213789 0.03941087 -0.01322061
v -0.1287988 0.02786989 -0.01422266
v -0.1538061 0.03214662 0.005768108
v -0.1506912 0.04049272 0.005573339
v -0.1991212 0.01473863 -0.01966498
v -0.2000288 0.01033205 -0.01969338
v -0.2411307 0.02566698 -0.03367079
v -0.1375654 0.01768053 -0.03156565
v -0.1387734 0.008604446 -0.0266117
v -0.1670757 0.006408402 -0.02305402
v -0.166727 0.01557359 -0.02332195
v -0.1143374 0.04618165 -0.00292676
v -0.1865995 0.09802309 -0.002290669
v -0.1610664 0.07716829 0.01564799
v -0.1650294 0.0745096 0.01028325
v -0.1384964 0.05631685 0.009462213
v -0.1307774 0.06187547 0.01582856
v -0.121379 0.03941087 -0.01322056
v -0.1287989 0.02786989 -0.01422262
v -0.2184319 0.06214616 -0.01041141
v -0.182725 0.04718034 0.005487194
v -0.1866765 0.04245775 0.005627394
v -0.1538062 0.03214662 0.005768146
v -0.1506913 0.04049272 0.00557333
v -0.1375655 0.01768022 -0.03156562
v -0.1387735 0.008604446 -0.02661172
v -0.2411308 0.02566728 -0.03367092
v -0.1991213 0.01473894 -0.01966502
v -0.2000289 0.01033205 -0.01969338
v -0.1670757 0.006408402 -0.02305408
v -0.166727 0.01557359 -0.02332199
v 0.1042568 0.05279634 0.0006880664
v 0.1143374 0.04618165 -0.00292676
v -0.1042568 0.05279634 0.0006880664
vt 0.5499827 0.8605289
vt 0.5500476 0.8589811
vt 0.5576165 0.8626187
vt 0.5323917 0.8685699
vt 0.5336122 0.8620396
vt 0.5415516 0.8591787
vt 0.5412672 0.8626668
vt 0.5499827 0.8605289
vt 0.5500476 0.8589811
vt 0.5576165 0.8626187
vt 0.5323917 0.8685699
vt 0.5336122 0.8620396
vt 0.5415516 0.8591787
vt 0.5412672 0.8626668
vt 0.5499827 0.8605289
vt 0.5500476 0.8589811
vt 0.5576165 0.8626187
vt 0.5323917 0.8685699
vt 0.5336122 0.8620396
vt 0.5415516 0.8591787
vt 0.5412672 0.8626668
vt 0.5576165 0.8626187
vt 0.5499827 0.8605289
vt 0.5500476 0.8589811
vt 0.5415516 0.8591787
vt 0.5412672 0.8626668
vt 0.5323917 0.8685699
vt 0.5336122 0.8620396
vt 0.5576165 0.8626187
vt 0.5499827 0.8605289
vt 0.5500476 0.8589811
vt 0.5415516 0.8591787
vt 0.5412672 0.8626668
vt 0.5323917 0.8685699
vt 0.5336122 0.8620396
vt 0.5576165 0.8626187
vt 0.5499827 0.8605289
vt 0.5500476 0.8589811
vt 0.5415516 0.8591787
vt 0.5412672 0.8626668
vt 0.5499827 0.8605289
vt 0.5500476 0.8589811
vt 0.5576165 0.8626187
vt 0.5323917 0.8685699
vt 0.5336122 0.8620396
vt 0.5415516 0.8591787
vt 0.5412672 0.8626668
vt 0.5499827 0.8605289
vt 0.5500476 0.8589811
vt 0.5576165 0.8626187
vt 0.5323917 0.8685699
vt 0.5336122 0.8620396
vt 0.5415516 0.8591787
vt 0.5412672 0.8626668
vt 0.5499827 0.8605289
vt 0.5500476 0.8589811
vt 0.5576165 0.8626187
vt 0.5323917 0.8685699
vt 0.5336122 0.8620396
vt 0.5415516 0.8591787
vt 0.5412672 0.8626668
vt 0.5336122 0.8620396
vt 0.5576165 0.8626187
vt 0.5499827 0.8605289
vt 0.5500476 0.8589811
vt 0.5415516 0.8591787
vt 0.5412672 0.8626668
vt 0.5323917 0.8685699
vt 0.5336122 0.8620396
vt 0.5576165 0.8626187
vt 0.5499827 0.8605289
vt 0.5500476 0.8589811
vt 0.5415516 0.8591787
vt 0.5412672 0.8626668
vt 0.5323917 0.8685699
vt 0.5336122 0.8620396
vt 0.5576165 0.8626187
vt 0.5499827 0.8605289
vt 0.5500476 0.8589811
vt 0.5415516 0.8591787
vt 0.5412672 0.8626668
vt 0.5323917 0.8685699
vt 0.5336122 0.8620396
vt 0.5323917 0.8685699
vn -0.5308205 0.447668 -0.7195992
vn -0.5308205 0.447668 -0.7195992
vn -0.6966726 0.2876762 -0.6571831
vn 0.1031203 0.716517 -0.6899055
vn 0.1031203 0.716517 -0.6899055
vn -0.1189975 0.6672847 -0.7352351
vn -0.1189975 0.6672847 -0.7352351
vn -0.1483095 -0.1514684 -0.9772725
vn -0.1483095 -0.1514684 -0.9772725
vn -0.2935708 -0.2728437 -0.9161727
vn 0.5311652 0.31333 -0.7872025
vn 0.5311652 0.31333 -0.7872025
vn 0.2829387 0.1532522 -0.9468155
vn 0.2829387 0.1532522 -0.9468155
vn -0.09990525 -0.03261956 -0.9944621
vn -0.09990525 -0.03261956 -0.9944621
vn -0.3025936 -0.05619037 -0.9514619
vn 0.1759102 -0.2570168 -0.950262
vn 0.1759102 -0.2570168 -0.950262
vn 0.142753 -0.1334773 -0.9807168
vn 0.142753 -0.1334773 -0.9807168
vn 0.6966848 -0.2876614 0.6571767
vn 0.5308167 -0.4476456 0.7196159
vn 0.5308167 -0.4476456 0.7196159
vn 0.1189795 -0.6672575 0.7352628
vn 0.1189795 -0.6672575 0.7352628
vn -0.5311634 -0.3133267 0.7872051
vn -0.5311634 -0.3133267 0.7872051
vn 0.2935828 0.2728467 0.916168
vn 0.1483165 0.151472 0.9772709
vn 0.1483165 0.151472 0.9772709
vn -0.2829367 -0.1532483 0.9468166
vn -0.2829367 -0.1532483 0.9468166
vn -0.1759085 0.2570161 0.9502625
vn -0.1759085 0.2570161 0.9502625
vn 0.3026044 0.05619286 0.9514583
vn 0.09991001 0.0326218 0.9944616
vn 0.09991001 0.0326218 0.9944616
vn -0.142753 0.1334779 0.9807168
vn -0.142753 0.1334779 0.9807168
vn 0.5308191 0.4476672 -0.7196007
vn 0.5308191 0.4476672 -0.7196007
vn 0.6966694 0.2876744 -0.6571873
vn -0.1031203 0.7165174 -0.689905
vn -0.1031203 0.7165174 -0.689905
vn 0.118998 0.6672854 -0.7352345
vn 0.118998 0.6672854 -0.7352345
vn 0.1483114 -0.1514697 -0.977272
vn 0.1483114 -0.1514697 -0.977272
vn 0.2935745 -0.272846 -0.9161709
vn -0.5311671 0.313331 -0.7872008
vn -0.5311671 0.313331 -0.7872008
vn -0.2829398 0.1532527 -0.946815
vn -0.2829398 0.1532527 -0.946815
vn 0.09990977 -0.03261893 -0.9944617
vn 0.09990977 -0.03261893 -0.9944617
vn 0.3026036 -0.05618896 -0.9514588
vn -0.1759099 -0.2570165 -0.9502622
vn -0.1759099 -0.2570165 -0.9502622
vn -0.1427535 -0.1334772 -0.9807168
vn -0.1427535 -0.1334772 -0.9807168
vn 0.1031319 -0.7164919 0.6899298
vn -0.6966791 -0.2876579 0.6571842
vn -0.5308132 -0.4476431 0.7196201
vn -0.5308132 -0.4476431 0.7196201
vn -0.1189795 -0.6672546 0.7352654
vn -0.1189795 -0.6672546 0.7352654
vn 0.5311651 -0.313328 0.7872034
vn 0.5311651 -0.313328 0.7872034
vn -0.2935817 0.2728455 0.9161687
vn -0.1483159 0.1514714 0.9772711
vn -0.1483159 0.1514714 0.9772711
vn 0.2829378 -0.1532491 0.9468162
vn 0.2829378 -0.1532491 0.9468162
vn 0.1759091 0.2570171 0.9502622
vn 0.1759091 0.2570171 0.9502622
vn -0.3025903 0.05618991 0.951463
vn -0.09990174 0.03262036 0.9944624
vn -0.09990174 0.03262036 0.9944624
vn 0.1427542 0.1334785 0.9807164
vn 0.1427542 0.1334785 0.9807164
vn -0.1031326 -0.716496 0.6899256
vn -0.1031326 -0.716496 0.6899256
vn 0.1031319 -0.7164919 0.6899298
g FLIPPY:duck_eyelashes_0
f 2/2/2 1/1/1 3/3/3
f 2/2/2 7/7/7 1/1/1
f 6/6/6 7/7/7 2/2/2
f 6/6/6 4/4/4 7/7/7
f 5/5/5 4/4/4 6/6/6
f 9/9/9 8/8/8 10/10/10
f 9/9/9 14/14/14 8/8/8
f 13/13/13 14/14/14 9/9/9
f 13/13/13 11/11/11 14/14/14
f 12/12/12 11/11/11 13/13/13
f 16/16/16 15/15/15 17/17/17
f 16/16/16 21/21/21 15/15/15
f 20/20/20 21/21/21 16/16/16
f 20/20/20 18/18/18 21/21/21
f 19/19/19 18/18/18 20/20/20
f 25/25/25 82/82/82 83/83/83
f 25/25/25 26/26/26 82/82/82
f 24/24/24 26/26/26 25/25/25
f 24/24/24 23/23/23 26/26/26
f 22/22/22 23/23/23 24/24/24
f 32/32/32 27/27/27 28/28/28
f 32/32/32 33/33/33 27/27/27
f 31/31/31 33/33/33 32/32/32
f 31/31/31 30/30/30 33/33/33
f 29/29/29 30/30/30 31/31/31
f 39/39/39 34/34/34 35/35/35
f 39/39/39 40/40/40 34/34/34
f 38/38/38 40/40/40 39/39/39
f 38/38/38 37/37/37 40/40/40
f 36/36/36 37/37/37 38/38/38
f 46/46/46 44/44/44 45/45/45
f 46/46/46 47/47/47 44/44/44
f 42/42/42 47/47/47 46/46/46
f 42/42/42 41/41/41 47/47/47
f 43/43/43 41/41/41 42/42/42
f 53/53/53 51/51/51 52/52/52
f 53/53/53 54/54/54 51/51/51
f 49/49/49 54/54/54 53/53/53
f 49/49/49 48/48/48 54/54/54
f 50/50/50 48/48/48 49/49/49
f 60/60/60 58/58/58 59/59/59
f 60/60/60 61/61/61 58/58/58
f 56/56/56 61/61/61 60/60/60
f 56/56/56 55/55/55 61/61/61
f 57/57/57 55/55/55 56/56/56
f 65/65/65 64/64/64 63/63/63
f 65/65/65 67/67/67 64/64/64
f 66/66/66 67/67/67 65/65/65
f 66/66/66 84/84/84 67/67/67
f 62/62/62 84/84/84 66/66/66
f 72/72/72 71/71/71 70/70/70
f 72/72/72 74/74/74 71/71/71
f 73/73/73 74/74/74 72/72/72
f 73/73/73 68/68/68 74/74/74
f 69/69/69 68/68/68 73/73/73
f 79/79/79 78/78/78 77/77/77
f 79/79/79 81/81/81 78/78/78
f 80/80/80 81/81/81 79/79/79
f 80/80/80 75/75/75 81/81/81
f 76/76/76 75/75/75 80/80/80
