g lollipop_stick
v -0.005821843 -0.225236 0.00146841
v -0.003101202 -0.2251694 -0.005043983
v 0.003933412 -0.225139 -0.004468784
v 0.005560429 -0.2251867 0.002399158
v -0.0004686718 -0.2252467 0.006068496
v -0.006103929 0.04761171 0.001125555
v -0.0006050364 0.04745813 0.005849113
v 0.005588955 0.04719454 0.002077689
v 0.003918184 0.04718515 -0.004976707
v -0.003308423 0.04744299 -0.005565166
v -1.086137E-08 -0.2257664 2.810284E-17
v -0.003308423 0.04744299 -0.005565166
v -0.003101202 -0.2251694 -0.005043983
v -0.005821843 -0.225236 0.00146841
v -0.003101202 -0.2251694 -0.005043983
v 0.003933412 -0.225139 -0.004468784
v 0.005560429 -0.2251867 0.002399158
v -0.0004686718 -0.2252467 0.006068496
v -0.0004686718 -0.2252467 0.006068496
v -0.0006050364 0.04745813 0.005849113
v 0.005560429 -0.2251867 0.002399158
v 0.005588955 0.04719454 0.002077689
v 0.003933412 -0.225139 -0.004468784
v 0.003918184 0.04718515 -0.004976707
v -0.005821843 -0.225236 0.00146841
v -0.006103929 0.04761171 0.001125555
v -0.003101202 -0.2251694 -0.005043983
v -1.086137E-08 -0.2257664 2.810284E-17
v 0.003933412 -0.225139 -0.004468784
v -1.086137E-08 -0.2257664 2.810284E-17
v 0.005560429 -0.2251867 0.002399158
v -1.086137E-08 -0.2257664 2.810284E-17
v -0.0004686718 -0.2252467 0.006068496
v -1.086137E-08 -0.2257664 2.810284E-17
v -0.005821843 -0.225236 0.00146841
vt 0.1730226 0.6657203
vt 0.561938 0.6657853
vt 0.466961 0.6658144
vt 0.3734071 0.6657674
vt 0.2756282 0.6657094
vt 0.1678846 0.9623404
vt 0.2740372 0.9621894
vt 0.3774932 0.961931
vt 0.4707441 0.9619219
vt 0.560847 0.962175
vt 0.8416884 0.8222862
vt 0.07140601 0.962175
vt 0.07249701 0.6657853
vt 0.7063521 0.8564212
vt 0.7695971 0.7050319
vt 0.9331261 0.7184033
vt 0.9709483 0.8780577
vt 0.8307937 0.9633567
vt 0.2756282 0.6657094
vt 0.2740372 0.9621894
vt 0.3734071 0.6657674
vt 0.3774932 0.961931
vt 0.466961 0.6658144
vt 0.4707441 0.9619219
vt 0.1730226 0.6657203
vt 0.1678846 0.9623404
vt 0.7695971 0.7050319
vt 0.8416884 0.8222862
vt 0.9331261 0.7184033
vt 0.8416884 0.8222862
vt 0.9709483 0.8780577
vt 0.8416884 0.8222862
vt 0.8307937 0.9633567
vt 0.8416884 0.8222862
vt 0.7063521 0.8564212
vn -0.4855311 -0.6683264 0.5635597
vn 0.06383532 -0.6613068 -0.7473944
vn 0.7281403 -0.6621591 -0.1770794
vn 0.3924972 -0.6664708 0.6338475
vn -0.4855311 -0.6683264 0.5635597
vn -0.6516699 0.0002818567 0.7585027
vn -0.6516699 0.0002818567 0.7585027
vn 0.5199898 0.000950411 0.8541719
vn 0.9730738 -0.0003747154 -0.2304933
vn 0.08129629 -0.001849046 -0.9966883
vn -0.1040047 -0.9931313 -0.05360111
vn -0.9227111 -0.001438359 -0.3854896
vn -0.686599 -0.6651019 -0.2936346
vn -0.686599 -0.6651019 -0.2936346
vn -0.686599 -0.6651019 -0.2936346
vn 0.06383532 -0.6613068 -0.7473944
vn 0.7281403 -0.6621591 -0.1770794
vn 0.3924972 -0.6664708 0.6338475
vn 0.3924972 -0.6664708 0.6338475
vn 0.5199898 0.000950411 0.8541719
vn 0.7281403 -0.6621591 -0.1770794
vn 0.9730738 -0.0003747154 -0.2304933
vn 0.06383532 -0.6613068 -0.7473944
vn 0.08129629 -0.001849046 -0.9966883
vn -0.686599 -0.6651019 -0.2936346
vn -0.9227111 -0.001438359 -0.3854896
vn 0.06383532 -0.6613068 -0.7473944
vn 0.01462669 -0.9918723 -0.1263938
vn 0.7281403 -0.6621591 -0.1770794
vn 0.1185512 -0.9923315 -0.03498343
vn 0.3924972 -0.6664708 0.6338475
vn 0.06473368 -0.9938263 0.09010359
vn -0.4855311 -0.6683264 0.5635597
vn -0.07048864 -0.9943225 0.07971218
vn -0.4855311 -0.6683264 0.5635597
g lollipop_stick_0
f 11/11/11 14/14/14 15/15/15
f 28/28/28 27/27/27 16/16/16
f 30/30/30 29/29/29 17/17/17
f 32/32/32 31/31/31 18/18/18
f 34/34/34 33/33/33 35/35/35
f 1/1/1 7/7/7 6/6/6
f 1/1/1 5/5/5 7/7/7
f 19/19/19 8/8/8 20/20/20
f 19/19/19 4/4/4 8/8/8
f 21/21/21 9/9/9 22/22/22
f 21/21/21 3/3/3 9/9/9
f 23/23/23 10/10/10 24/24/24
f 23/23/23 2/2/2 10/10/10
f 12/12/12 25/25/25 26/26/26
f 12/12/12 13/13/13 25/25/25
