g PCANDY:candy
v 0.02083651 0.01360111 -1.505769E-09
v 0.007958837 0.02200706 -1.505769E-09
v -0.007958841 0.02200706 -1.505769E-09
v -0.02083651 0.01360111 -1.505769E-09
v -0.02575534 -1.115818E-09 -1.505769E-09
v -0.02083651 -0.01360111 -1.505769E-09
v -0.007958839 -0.02200706 -1.505769E-09
v 0.007958839 -0.02200706 -1.505769E-09
v 0.02083651 -0.01360111 -1.505769E-09
v 0.02575534 -2.663043E-25 -1.505769E-09
v 0.02481664 0.01619916 0.01309047
v 0.009479112 0.02621079 0.01309047
v -0.009479117 0.02621079 0.01309047
v -0.02481665 0.01619916 0.01309047
v -0.03067506 -1.199328E-09 0.01309047
v -0.02481665 -0.01619916 0.01309047
v -0.009479116 -0.02621079 0.01309047
v 0.009479116 -0.02621079 0.01309047
v 0.02481665 -0.01619916 0.01309047
v 0.03067506 2.369432E-18 0.01309047
v 0.03442554 0.0224714 0.01851272
v 0.01314938 0.03635949 0.01851272
v -0.01314939 0.03635949 0.01851272
v -0.03442554 0.02247139 0.01851272
v -0.04255231 -2.398656E-09 0.01851272
v -0.03442554 -0.0224714 0.01851272
v -0.01314939 -0.03635949 0.01851272
v 0.01314939 -0.03635949 0.01851272
v 0.03442554 -0.0224714 0.01851272
v 0.04255231 3.350883E-18 0.01851272
v 0.04403443 0.02874365 0.01309047
v 0.01681965 0.04650819 0.01309047
v -0.01681966 0.04650818 0.01309047
v -0.04403443 0.02874364 0.01309047
v -0.05442955 -2.398656E-09 0.01309047
v -0.04403443 -0.02874365 0.01309047
v -0.01681966 -0.04650819 0.01309047
v 0.01681966 -0.04650819 0.01309047
v 0.04403443 -0.02874364 0.01309047
v 0.05442955 2.369432E-18 0.01309047
v 0.04801456 0.03134169 -1.505769E-09
v 0.01833993 0.05071191 -1.505769E-09
v -0.01833994 0.05071191 -1.505769E-09
v -0.04801456 0.03134168 -1.505769E-09
v -0.05934927 -2.571233E-09 -1.505769E-09
v -0.04801456 -0.03134169 -1.505769E-09
v -0.01833993 -0.05071191 -1.505769E-09
v 0.01833993 -0.05071191 -1.505769E-09
v 0.04801456 -0.03134169 -1.505769E-09
v 0.05934927 -2.663043E-25 -1.505769E-09
v 0.04403443 0.02874365 -0.01309047
v 0.01681965 0.04650819 -0.01309047
v -0.01681966 0.04650819 -0.01309047
v -0.04403443 0.02874364 -0.01309047
v -0.05442955 -2.398656E-09 -0.01309047
v -0.04403443 -0.02874365 -0.01309047
v -0.01681966 -0.04650819 -0.01309047
v 0.01681966 -0.04650819 -0.01309047
v 0.04403443 -0.02874364 -0.01309047
v 0.05442955 -2.369433E-18 -0.01309047
v 0.03442554 0.0224714 -0.01851272
v 0.01314938 0.03635949 -0.01851272
v -0.01314939 0.03635949 -0.01851272
v -0.03442554 0.0224714 -0.01851272
v -0.04255231 -2.398656E-09 -0.01851272
v -0.03442554 -0.0224714 -0.01851272
v -0.01314939 -0.03635949 -0.01851272
v 0.01314939 -0.03635949 -0.01851272
v 0.03442554 -0.0224714 -0.01851272
v 0.04255231 -3.350883E-18 -0.01851272
v 0.02481664 0.01619916 -0.01309047
v 0.009479112 0.02621079 -0.01309047
v -0.009479117 0.02621079 -0.01309047
v -0.02481665 0.01619916 -0.01309047
v -0.03067506 -1.199328E-09 -0.01309047
v -0.02481665 -0.01619916 -0.01309047
v -0.009479116 -0.02621079 -0.01309047
v 0.009479116 -0.02621079 -0.01309047
v 0.02481665 -0.01619916 -0.01309047
v 0.03067506 -2.369433E-18 -0.01309047
v 0.02083651 0.01360111 -1.505769E-09
v 0.02481664 0.01619916 0.01309047
v 0.03442554 0.0224714 0.01851272
v 0.04403443 0.02874365 0.01309047
v 0.04801456 0.03134169 -1.505769E-09
v 0.04403443 0.02874365 -0.01309047
v 0.03442554 0.0224714 -0.01851272
v 0.02481664 0.01619916 -0.01309047
v 0.02083651 0.01360111 -1.505769E-09
v 0.007958837 0.02200706 -1.505769E-09
v -0.007958841 0.02200706 -1.505769E-09
v -0.02083651 0.01360111 -1.505769E-09
v -0.02575534 -1.115818E-09 -1.505769E-09
v -0.02083651 -0.01360111 -1.505769E-09
v -0.007958839 -0.02200706 -1.505769E-09
v 0.007958839 -0.02200706 -1.505769E-09
v 0.02083651 -0.01360111 -1.505769E-09
v 0.02575534 -2.663043E-25 -1.505769E-09
v 0.02083651 0.01360111 -1.505769E-09
vt 0.6200172 0.2730348
vt 0.6433697 0.2730348
vt 0.6667221 0.2730348
vt 0.6900746 0.2730348
vt 0.7134269 0.2730348
vt 0.7367794 0.2730348
vt 0.7601317 0.2730348
vt 0.7834842 0.2730348
vt 0.8068365 0.2730348
vt 0.830189 0.2730348
vt 0.6200172 0.2419934
vt 0.6433697 0.2419934
vt 0.6667221 0.2419934
vt 0.6900746 0.2419934
vt 0.7134269 0.2419934
vt 0.7367794 0.2419934
vt 0.7601317 0.2419934
vt 0.7834842 0.2419934
vt 0.8068365 0.2419934
vt 0.830189 0.2419934
vt 0.6200172 0.2109519
vt 0.6433697 0.2109519
vt 0.6667221 0.2109519
vt 0.6900746 0.2109519
vt 0.7134269 0.2109519
vt 0.7367794 0.2109519
vt 0.7601317 0.2109519
vt 0.7834842 0.2109519
vt 0.8068365 0.2109519
vt 0.830189 0.2109519
vt 0.6200172 0.1799105
vt 0.6433697 0.1799105
vt 0.6667221 0.1799105
vt 0.6900746 0.1799105
vt 0.7134269 0.1799105
vt 0.7367794 0.1799105
vt 0.7601317 0.1799105
vt 0.7834842 0.1799105
vt 0.8068365 0.1799105
vt 0.830189 0.1799105
vt 0.6200172 0.148869
vt 0.6433697 0.148869
vt 0.6667221 0.148869
vt 0.6900746 0.148869
vt 0.7134269 0.148869
vt 0.7367794 0.148869
vt 0.7601317 0.148869
vt 0.7834842 0.148869
vt 0.8068365 0.148869
vt 0.830189 0.148869
vt 0.6200172 0.1178276
vt 0.6433697 0.1178276
vt 0.6667221 0.1178276
vt 0.6900746 0.1178276
vt 0.7134269 0.1178276
vt 0.7367794 0.1178276
vt 0.7601317 0.1178276
vt 0.7834842 0.1178276
vt 0.8068365 0.1178276
vt 0.830189 0.1178276
vt 0.6200172 0.08678614
vt 0.6433697 0.08678614
vt 0.6667221 0.08678614
vt 0.6900746 0.08678614
vt 0.7134269 0.08678614
vt 0.7367794 0.08678614
vt 0.7601317 0.08678614
vt 0.7834842 0.08678614
vt 0.8068365 0.08678614
vt 0.830189 0.08678614
vt 0.6200172 0.0557447
vt 0.6433697 0.0557447
vt 0.6667221 0.0557447
vt 0.6900746 0.0557447
vt 0.7134269 0.0557447
vt 0.7367794 0.0557447
vt 0.7601317 0.0557447
vt 0.7834842 0.0557447
vt 0.8068365 0.0557447
vt 0.830189 0.0557447
vt 0.8535415 0.2730348
vt 0.8535415 0.2419934
vt 0.8535415 0.2109519
vt 0.8535415 0.1799105
vt 0.8535415 0.148869
vt 0.8535415 0.1178276
vt 0.8535415 0.08678614
vt 0.8535415 0.0557447
vt 0.6200172 0.02470325
vt 0.6433697 0.02470325
vt 0.6667221 0.02470325
vt 0.6900746 0.02470325
vt 0.7134269 0.02470325
vt 0.7367794 0.02470325
vt 0.7601317 0.02470325
vt 0.7834842 0.02470325
vt 0.8068365 0.02470325
vt 0.830189 0.02470325
vt 0.8535415 0.02470325
vn -0.7833058 -0.6216366 0
vn -0.2846676 -0.9586263 0
vn 0.2846678 -0.9586262 0
vn 0.7833058 -0.6216365 0
vn 1 0 0
vn 0.7833058 0.6216366 0
vn 0.2846676 0.9586263 0
vn -0.2846677 0.9586263 0
vn -0.7833058 0.6216366 0
vn -1 0 0
vn -0.5748687 -0.4583672 0.6778094
vn -0.2127174 -0.7193822 0.6612417
vn 0.2127175 -0.7193822 0.6612417
vn 0.5748689 -0.4583671 0.6778092
vn 0.724901 0 0.6888531
vn 0.5748687 0.4583671 0.6778094
vn 0.2127175 0.7193821 0.6612418
vn -0.2127175 0.7193822 0.6612418
vn -0.5748687 0.4583671 0.6778092
vn -0.724901 0 0.688853
vn 0 0 1
vn 0 0 1
vn 0 -1.009901E-07 1
vn 0 0 1
vn 0 0 1
vn 0 0 1
vn 0 -2.188119E-07 1
vn 0 -1.683168E-07 1
vn 0 0 1
vn 0 0 1
vn 0.5748689 0.4583673 0.6778091
vn 0.2127174 0.7193823 0.6612415
vn -0.2127176 0.7193823 0.6612417
vn -0.5748688 0.4583673 0.6778091
vn -0.7249011 0 0.688853
vn -0.5748689 -0.4583673 0.6778091
vn -0.2127175 -0.7193824 0.6612414
vn 0.2127175 -0.7193824 0.6612415
vn 0.5748688 -0.4583673 0.6778091
vn 0.7249011 0 0.688853
vn 0.7833058 0.6216365 0
vn 0.2846677 0.9586263 0
vn -0.2846678 0.9586262 0
vn -0.7833058 0.6216365 0
vn -1 0 0
vn -0.7833058 -0.6216365 0
vn -0.2846677 -0.9586263 0
vn 0.2846677 -0.9586262 0
vn 0.7833058 -0.6216365 0
vn 1 0 0
vn 0.5748689 0.4583673 -0.6778091
vn 0.2127174 0.7193823 -0.6612417
vn -0.2127176 0.7193822 -0.6612416
vn -0.5748688 0.4583673 -0.6778091
vn -0.7249011 0 -0.688853
vn -0.5748688 -0.4583672 -0.6778091
vn -0.2127175 -0.7193823 -0.6612415
vn 0.2127175 -0.7193823 -0.6612415
vn 0.5748688 -0.4583672 -0.6778091
vn 0.7249011 0 -0.688853
vn 0 0 -1
vn 0 0 -1
vn 0 0 -1
vn 0 0 -1
vn 0 0 -1
vn 0 0 -1
vn 0 0 -1
vn 0 0 -1
vn 0 0 -1
vn 0 0 -1
vn -0.5748687 -0.4583672 -0.6778093
vn -0.2127174 -0.7193822 -0.6612418
vn 0.2127175 -0.7193821 -0.6612418
vn 0.5748688 -0.4583671 -0.6778093
vn 0.724901 0 -0.688853
vn 0.5748687 0.4583671 -0.6778093
vn 0.2127175 0.7193821 -0.6612418
vn -0.2127175 0.7193821 -0.6612418
vn -0.5748687 0.4583671 -0.6778092
vn -0.724901 0 -0.688853
vn -0.7833058 -0.6216366 0
vn -0.5748687 -0.4583672 0.6778094
vn 0 0 1
vn 0.5748689 0.4583673 0.6778091
vn 0.7833058 0.6216365 0
vn 0.5748689 0.4583673 -0.6778091
vn 0 0 -1
vn -0.5748687 -0.4583672 -0.6778093
vn -0.7833058 -0.6216366 0
vn -0.2846676 -0.9586263 0
vn 0.2846678 -0.9586262 0
vn 0.7833058 -0.6216365 0
vn 1 0 0
vn 0.7833058 0.6216366 0
vn 0.2846676 0.9586263 0
vn -0.2846677 0.9586263 0
vn -0.7833058 0.6216366 0
vn -1 0 0
vn -0.7833058 -0.6216366 0
g PCANDY:candy_0
f 81/81/81 20/20/20 82/82/82
f 10/10/10 20/20/20 81/81/81
f 10/10/10 19/19/19 20/20/20
f 9/9/9 19/19/19 10/10/10
f 9/9/9 18/18/18 19/19/19
f 8/8/8 18/18/18 9/9/9
f 8/8/8 17/17/17 18/18/18
f 7/7/7 17/17/17 8/8/8
f 7/7/7 16/16/16 17/17/17
f 6/6/6 16/16/16 7/7/7
f 6/6/6 15/15/15 16/16/16
f 5/5/5 15/15/15 6/6/6
f 5/5/5 14/14/14 15/15/15
f 4/4/4 14/14/14 5/5/5
f 4/4/4 13/13/13 14/14/14
f 3/3/3 13/13/13 4/4/4
f 3/3/3 12/12/12 13/13/13
f 2/2/2 12/12/12 3/3/3
f 2/2/2 11/11/11 12/12/12
f 1/1/1 11/11/11 2/2/2
f 89/89/89 72/72/72 71/71/71
f 90/90/90 72/72/72 89/89/89
f 90/90/90 73/73/73 72/72/72
f 91/91/91 73/73/73 90/90/90
f 91/91/91 74/74/74 73/73/73
f 92/92/92 74/74/74 91/91/91
f 92/92/92 75/75/75 74/74/74
f 93/93/93 75/75/75 92/92/92
f 93/93/93 76/76/76 75/75/75
f 94/94/94 76/76/76 93/93/93
f 94/94/94 77/77/77 76/76/76
f 95/95/95 77/77/77 94/94/94
f 95/95/95 78/78/78 77/77/77
f 96/96/96 78/78/78 95/95/95
f 96/96/96 79/79/79 78/78/78
f 97/97/97 79/79/79 96/96/96
f 97/97/97 80/80/80 79/79/79
f 98/98/98 80/80/80 97/97/97
f 98/98/98 88/88/88 80/80/80
f 99/99/99 88/88/88 98/98/98
f 82/82/82 30/30/30 83/83/83
f 20/20/20 30/30/30 82/82/82
f 20/20/20 29/29/29 30/30/30
f 19/19/19 29/29/29 20/20/20
f 19/19/19 28/28/28 29/29/29
f 18/18/18 28/28/28 19/19/19
f 18/18/18 27/27/27 28/28/28
f 17/17/17 27/27/27 18/18/18
f 17/17/17 26/26/26 27/27/27
f 16/16/16 26/26/26 17/17/17
f 16/16/16 25/25/25 26/26/26
f 15/15/15 25/25/25 16/16/16
f 15/15/15 24/24/24 25/25/25
f 14/14/14 24/24/24 15/15/15
f 14/14/14 23/23/23 24/24/24
f 13/13/13 23/23/23 14/14/14
f 13/13/13 22/22/22 23/23/23
f 12/12/12 22/22/22 13/13/13
f 12/12/12 21/21/21 22/22/22
f 11/11/11 21/21/21 12/12/12
f 83/83/83 40/40/40 84/84/84
f 30/30/30 40/40/40 83/83/83
f 30/30/30 39/39/39 40/40/40
f 29/29/29 39/39/39 30/30/30
f 29/29/29 38/38/38 39/39/39
f 28/28/28 38/38/38 29/29/29
f 28/28/28 37/37/37 38/38/38
f 27/27/27 37/37/37 28/28/28
f 27/27/27 36/36/36 37/37/37
f 26/26/26 36/36/36 27/27/27
f 26/26/26 35/35/35 36/36/36
f 25/25/25 35/35/35 26/26/26
f 25/25/25 34/34/34 35/35/35
f 24/24/24 34/34/34 25/25/25
f 24/24/24 33/33/33 34/34/34
f 23/23/23 33/33/33 24/24/24
f 23/23/23 32/32/32 33/33/33
f 22/22/22 32/32/32 23/23/23
f 22/22/22 31/31/31 32/32/32
f 21/21/21 31/31/31 22/22/22
f 84/84/84 50/50/50 85/85/85
f 40/40/40 50/50/50 84/84/84
f 40/40/40 49/49/49 50/50/50
f 39/39/39 49/49/49 40/40/40
f 39/39/39 48/48/48 49/49/49
f 38/38/38 48/48/48 39/39/39
f 38/38/38 47/47/47 48/48/48
f 37/37/37 47/47/47 38/38/38
f 37/37/37 46/46/46 47/47/47
f 36/36/36 46/46/46 37/37/37
f 36/36/36 45/45/45 46/46/46
f 35/35/35 45/45/45 36/36/36
f 35/35/35 44/44/44 45/45/45
f 34/34/34 44/44/44 35/35/35
f 34/34/34 43/43/43 44/44/44
f 33/33/33 43/43/43 34/34/34
f 33/33/33 42/42/42 43/43/43
f 32/32/32 42/42/42 33/33/33
f 32/32/32 41/41/41 42/42/42
f 31/31/31 41/41/41 32/32/32
f 85/85/85 60/60/60 86/86/86
f 50/50/50 60/60/60 85/85/85
f 50/50/50 59/59/59 60/60/60
f 49/49/49 59/59/59 50/50/50
f 49/49/49 58/58/58 59/59/59
f 48/48/48 58/58/58 49/49/49
f 48/48/48 57/57/57 58/58/58
f 47/47/47 57/57/57 48/48/48
f 47/47/47 56/56/56 57/57/57
f 46/46/46 56/56/56 47/47/47
f 46/46/46 55/55/55 56/56/56
f 45/45/45 55/55/55 46/46/46
f 45/45/45 54/54/54 55/55/55
f 44/44/44 54/54/54 45/45/45
f 44/44/44 53/53/53 54/54/54
f 43/43/43 53/53/53 44/44/44
f 43/43/43 52/52/52 53/53/53
f 42/42/42 52/52/52 43/43/43
f 42/42/42 51/51/51 52/52/52
f 41/41/41 51/51/51 42/42/42
f 86/86/86 70/70/70 87/87/87
f 60/60/60 70/70/70 86/86/86
f 60/60/60 69/69/69 70/70/70
f 59/59/59 69/69/69 60/60/60
f 59/59/59 68/68/68 69/69/69
f 58/58/58 68/68/68 59/59/59
f 58/58/58 67/67/67 68/68/68
f 57/57/57 67/67/67 58/58/58
f 57/57/57 66/66/66 67/67/67
f 56/56/56 66/66/66 57/57/57
f 56/56/56 65/65/65 66/66/66
f 55/55/55 65/65/65 56/56/56
f 55/55/55 64/64/64 65/65/65
f 54/54/54 64/64/64 55/55/55
f 54/54/54 63/63/63 64/64/64
f 53/53/53 63/63/63 54/54/54
f 53/53/53 62/62/62 63/63/63
f 52/52/52 62/62/62 53/53/53
f 52/52/52 61/61/61 62/62/62
f 51/51/51 61/61/61 52/52/52
f 87/87/87 80/80/80 88/88/88
f 70/70/70 80/80/80 87/87/87
f 70/70/70 79/79/79 80/80/80
f 69/69/69 79/79/79 70/70/70
f 69/69/69 78/78/78 79/79/79
f 68/68/68 78/78/78 69/69/69
f 68/68/68 77/77/77 78/78/78
f 67/67/67 77/77/77 68/68/68
f 67/67/67 76/76/76 77/77/77
f 66/66/66 76/76/76 67/67/67
f 66/66/66 75/75/75 76/76/76
f 65/65/65 75/75/75 66/66/66
f 65/65/65 74/74/74 75/75/75
f 64/64/64 74/74/74 65/65/65
f 64/64/64 73/73/73 74/74/74
f 63/63/63 73/73/73 64/64/64
f 63/63/63 72/72/72 73/73/73
f 62/62/62 72/72/72 63/63/63
f 62/62/62 71/71/71 72/72/72
f 61/61/61 71/71/71 62/62/62
