g pCylinder1
v 0.4666904 0.1635401 0
v 0 0.1786492 0
v -0.4666904 0.1635401 0
v -0.6599998 0 0
v -0.4666904 -0.4666904 0
v 0 -0.6599998 0
v 0.4666904 -0.4666904 0
v 0.66 -0.127186 0
v 0.4666904 0.4666904 2.639683
v 0 0.6599998 2.639683
v -0.4666904 0.4666904 2.639683
v -0.6599998 6.653344E-14 2.639683
v -0.4666904 -0.4666904 2.639683
v 0 -0.6599998 2.639683
v 0.4666904 -0.4666904 2.639683
v 0.66 6.653344E-14 2.639683
v 0 -0.127186 0
v 0 6.653344E-14 2.639683
v -0.4666904 0.3155993 1.18163
v 0 0.5089087 1.1182
v 0.4666904 0.3155993 1.120509
v 0.66 2.815834E-14 1.117169
v 0.4666904 -0.4666904 1.113223
v 0 -0.6599998 1.140947
v -0.4666904 -0.4666904 1.132771
v -0.6599998 2.891153E-14 1.147051
v 0.4666904 0.3155993 1.120509
v 0.4666904 0.1635401 0
v 0 0.1786492 0
v 0.4666904 0.1635401 0
v -0.4666904 0.1635401 0
v -0.6599998 0 0
v -0.4666904 -0.4666904 0
v 0 -0.6599998 0
v 0.4666904 -0.4666904 0
v 0.66 -0.127186 0
v -0.4666904 0.4666904 2.639683
v 0 0.6599998 2.639683
v 0.4666904 0.4666904 2.639683
v 0.4666904 0.4666904 2.639683
v 0.66 6.653344E-14 2.639683
v 0.4666904 -0.4666904 2.639683
v 0 -0.6599998 2.639683
v -0.4666904 -0.4666904 2.639683
v -0.6599998 6.653344E-14 2.639683
v 0 0.5089087 1.1182
v -0.4666904 0.3155993 1.18163
v 0.4666904 0.3155993 1.120509
v 0.4666904 0.3155993 1.120509
v -0.6599998 2.891153E-14 1.147051
vt 0.375 0.3125
vt 0.40625 0.3125
vt 0.4375 0.3125
vt 0.46875 0.3125
vt 0.5 0.3125
vt 0.53125 0.3125
vt 0.5625 0.3125
vt 0.59375 0.3125
vt 0.6104854 0.9542354
vt 0.5 1
vt 0.3895146 0.9542354
vt 0.34375 0.84375
vt 0.3895146 0.7332646
vt 0.5 0.6875
vt 0.6104854 0.7332646
vt 0.65625 0.84375
vt 0.5 0.15
vt 0.5 0.8375
vt 0.4375 0.4807861
vt 0.40625 0.4717524
vt 0.375 0.4720813
vt 0.59375 0.4716056
vt 0.5625 0.4710437
vt 0.53125 0.474992
vt 0.5 0.4738277
vt 0.46875 0.4758614
vt 0.625 0.4720813
vt 0.625 0.3125
vt 0.5 1.862645E-08
vt 0.6104854 0.04576458
vt 0.3895146 0.04576458
vt 0.34375 0.15625
vt 0.3895146 0.2667354
vt 0.5 0.3125
vt 0.6104854 0.2667354
vt 0.65625 0.15625
vt 0.4375 0.6884398
vt 0.40625 0.6884398
vt 0.375 0.6884398
vt 0.625 0.6884398
vt 0.59375 0.6884398
vt 0.5625 0.6884398
vt 0.53125 0.6884398
vt 0.5 0.6884398
vt 0.46875 0.6884398
vt 0.40625 0.4717524
vt 0.4375 0.4807861
vt 0.375 0.4720813
vt 0.625 0.4720813
vt 0.46875 0.4758614
vn 0.3617489 0.5115474 -0.7793953
vn -0.004135753 0.621453 -0.7834405
vn -0.3432445 0.5417901 -0.7672331
vn -0.6372468 0.09241723 -0.7650983
vn -0.4798415 -0.4798415 -0.7345095
vn 0 -0.6785984 -0.7345095
vn 0.4723363 -0.4989008 -0.7266337
vn 0.6485627 0.03882983 -0.7601702
vn 0.4811782 0.5133622 0.710582
vn -0.001989712 0.7113579 0.7028272
vn -0.4830072 0.5128011 0.7097457
vn -0.6770119 0.02271983 0.7356213
vn -0.4798413 -0.4798415 0.7345096
vn -2.298459E-07 -0.6785983 0.7345095
vn 0.4798411 -0.4798416 0.7345097
vn 0.6769592 0.02244397 0.7356783
vn 0 0 -1
vn 0 0 1
vn -0.5308007 0.837836 -0.1275988
vn -0.006509371 0.9781213 -0.2079337
vn 0.5710552 0.8075263 -0.1476389
vn 0.9979194 0.05974603 -0.02423689
vn 0.6874496 -0.7261121 0.01320022
vn 0 -1 0
vn -0.7071066 -0.7071068 0
vn -0.9893638 0.1434833 -0.02391201
vn 0.5710552 0.8075263 -0.1476389
vn 0.3617489 0.5115474 -0.7793953
vn -0.004135753 0.621453 -0.7834405
vn 0.3617489 0.5115474 -0.7793953
vn -0.3432445 0.5417901 -0.7672331
vn -0.6372468 0.09241723 -0.7650983
vn -0.4798415 -0.4798415 -0.7345095
vn 0 -0.6785984 -0.7345095
vn 0.4723363 -0.4989008 -0.7266337
vn 0.6485627 0.03882983 -0.7601702
vn -0.4830072 0.5128011 0.7097457
vn -0.001989712 0.7113579 0.7028272
vn 0.4811782 0.5133622 0.710582
vn 0.4811782 0.5133622 0.710582
vn 0.6769592 0.02244397 0.7356783
vn 0.4798411 -0.4798416 0.7345097
vn -2.298459E-07 -0.6785983 0.7345095
vn -0.4798413 -0.4798415 0.7345096
vn -0.6770119 0.02271983 0.7356213
vn -0.002783399 0.994994 -0.09989603
vn -0.6843339 0.7265457 -0.06179382
vn 0.6826093 0.7282658 -0.06060873
vn 0.6826093 0.7282658 -0.06060873
vn -0.9993595 0.03353749 -0.01247867
g pCylinder1_0
f 27/27/27 8/8/8 28/28/28
f 22/22/22 8/8/8 27/27/27
f 22/22/22 7/7/7 8/8/8
f 23/23/23 7/7/7 22/22/22
f 23/23/23 6/6/6 7/7/7
f 24/24/24 6/6/6 23/23/23
f 24/24/24 5/5/5 6/6/6
f 25/25/25 5/5/5 24/24/24
f 25/25/25 4/4/4 5/5/5
f 26/26/26 4/4/4 25/25/25
f 26/26/26 3/3/3 4/4/4
f 19/19/19 3/3/3 26/26/26
f 19/19/19 2/2/2 3/3/3
f 20/20/20 2/2/2 19/19/19
f 20/20/20 1/1/1 2/2/2
f 21/21/21 1/1/1 20/20/20
f 40/40/40 22/22/22 49/49/49
f 41/41/41 22/22/22 40/40/40
f 41/41/41 23/23/23 22/22/22
f 42/42/42 23/23/23 41/41/41
f 42/42/42 24/24/24 23/23/23
f 43/43/43 24/24/24 42/42/42
f 43/43/43 25/25/25 24/24/24
f 44/44/44 25/25/25 43/43/43
f 44/44/44 50/50/50 25/25/25
f 45/45/45 50/50/50 44/44/44
f 45/45/45 47/47/47 50/50/50
f 37/37/37 47/47/47 45/45/45
f 37/37/37 46/46/46 47/47/47
f 38/38/38 46/46/46 37/37/37
f 38/38/38 48/48/48 46/46/46
f 39/39/39 48/48/48 38/38/38
f 17/17/17 30/30/30 36/36/36
f 17/17/17 29/29/29 30/30/30
f 31/31/31 29/29/29 17/17/17
f 17/17/17 32/32/32 31/31/31
f 17/17/17 33/33/33 32/32/32
f 34/34/34 33/33/33 17/17/17
f 17/17/17 35/35/35 34/34/34
f 17/17/17 36/36/36 35/35/35
f 18/18/18 10/10/10 11/11/11
f 18/18/18 9/9/9 10/10/10
f 16/16/16 9/9/9 18/18/18
f 18/18/18 13/13/13 14/14/14
f 18/18/18 12/12/12 13/13/13
f 11/11/11 12/12/12 18/18/18
f 18/18/18 15/15/15 16/16/16
f 18/18/18 14/14/14 15/15/15
