g tassel2
v 0.7984309 -0.7528142 -0.4030529
v 0.6969973 -0.4673223 -0.3462005
v 0.5548111 -0.7219354 -0.25943
v 0.5486584 -0.5435919 -0.257195
v 0.4296525 -0.8307145 -0.09954796
v 0.4313745 -0.6758252 -0.1009802
v 0.1866807 -0.8301404 0.0260479
v 0.2447563 -0.6990365 -0.003919525
v 0.02712929 -0.5794415 0.03109619
v 0.1540699 -0.5545104 -0.03437904
v 0.06919747 -0.3963736 -0.009411125
v 0.2374561 -0.3963736 0.009004058
v 0.7673112 -0.662211 -0.3854591
v 0.7021927 -0.5436615 -0.3503126
v 0.7984309 -0.7528142 -0.4055473
v 0.6969973 -0.4673223 -0.348695
v 0.5548111 -0.7219354 -0.2619244
v 0.5486584 -0.5435919 -0.2596894
v 0.4296525 -0.8307145 -0.1020424
v 0.4313745 -0.6758252 -0.1034747
v 0.1866807 -0.8301404 0.02355347
v 0.2447563 -0.6990365 -0.006413956
v 0.02712929 -0.5794415 0.02860172
v 0.1540699 -0.5545104 -0.03687347
v 0.07056316 -0.3963736 -0.01149853
v 0.2388218 -0.3963736 0.006916694
v 0.7673112 -0.662211 -0.3879535
v 0.7021927 -0.5436615 -0.352807
vt 0.86872 0.03005962
vt 0.9931375 0.03005962
vt 0.86872 0.1182028
vt 0.9931375 0.1182028
vt 0.86872 0.206346
vt 0.9931375 0.206346
vt 0.86872 0.2944891
vt 0.9931375 0.2944891
vt 0.86872 0.3826323
vt 0.9931375 0.3826323
vt 0.86872 0.4707754
vt 0.9931375 0.4707754
vt 0.9090157 0.03005962
vt 0.9510766 0.03005962
vt 0.86872 0.03005962
vt 0.9931375 0.03005962
vt 0.86872 0.1182028
vt 0.9931375 0.1182028
vt 0.86872 0.206346
vt 0.9931375 0.206346
vt 0.86872 0.2944891
vt 0.9931375 0.2944891
vt 0.86872 0.3826323
vt 0.9931375 0.3826323
vt 0.86872 0.4707754
vt 0.9931375 0.4707754
vt 0.9090157 0.03005962
vt 0.9510766 0.03005962
vn 0.5085422 0.007476075 0.8610047
vn 0.5185388 -0.01076513 0.8549863
vn 0.6130786 0.01057526 0.7899511
vn 0.6162006 0.004396512 0.7875769
vn 0.6400537 0.005275915 0.768312
vn 0.6400537 0.005275915 0.768312
vn 0.3742627 0.1205347 0.9194557
vn 0.3742627 0.1205347 0.9194557
vn 0.2244174 0.08566545 0.9707205
vn 0.2244174 0.08566545 0.9707205
vn 0.1626713 -0.06810734 0.9843269
vn 0.1626713 -0.06810734 0.9843269
vn 0.5102032 0.01110066 0.8599823
vn 0.5152429 0.001980136 0.8570419
vn -0.5085419 -0.007476198 -0.8610047
vn -0.518539 0.01076361 -0.8549863
vn -0.6130785 -0.01057531 -0.7899512
vn -0.6162006 -0.004397037 -0.787577
vn -0.6400537 -0.005275996 -0.768312
vn -0.6400537 -0.005275996 -0.768312
vn -0.3742627 -0.1205348 -0.9194558
vn -0.3742627 -0.1205348 -0.9194558
vn -0.2246163 -0.08378906 -0.9708382
vn -0.2246163 -0.08378906 -0.9708382
vn -0.1629381 0.07185505 -0.9840163
vn -0.1629381 0.07185505 -0.9840163
vn -0.510203 -0.01110077 -0.8599824
vn -0.515243 -0.001980945 -0.8570418
g tassel2_0
f 4/4/4 14/14/14 2/2/2
f 4/4/4 13/13/13 14/14/14
f 3/3/3 13/13/13 4/4/4
f 3/3/3 1/1/1 13/13/13
f 6/6/6 3/3/3 4/4/4
f 6/6/6 5/5/5 3/3/3
f 8/8/8 5/5/5 6/6/6
f 8/8/8 7/7/7 5/5/5
f 10/10/10 7/7/7 8/8/8
f 10/10/10 9/9/9 7/7/7
f 12/12/12 9/9/9 10/10/10
f 12/12/12 11/11/11 9/9/9
f 28/28/28 18/18/18 16/16/16
f 27/27/27 18/18/18 28/28/28
f 27/27/27 17/17/17 18/18/18
f 15/15/15 17/17/17 27/27/27
f 17/17/17 20/20/20 18/18/18
f 19/19/19 20/20/20 17/17/17
f 19/19/19 22/22/22 20/20/20
f 21/21/21 22/22/22 19/19/19
f 21/21/21 24/24/24 22/22/22
f 23/23/23 24/24/24 21/21/21
f 23/23/23 26/26/26 24/24/24
f 25/25/25 26/26/26 23/23/23
