g whistle
v -0.06493046 0.03365302 0.04262349
v -0.1058322 0.03646457 0.001785173
v -0.1058322 -0.03542701 0.001785173
v -0.06493046 -0.03365302 0.04262349
v 0.04330127 -0.04241666 -0.02499999
v 0.025 -0.04241666 -0.04330126
v 3.671798E-09 -0.04241666 -0.04999999
v -0.02499999 -0.04241666 -0.04330127
v -0.03981078 -0.04241666 -0.02856674
v -0.05808928 -0.04241666 -0.005940687
v -1.290478E-09 -0.04241666 0.04999999
v 0.025 -0.04241666 0.04330127
v 0.04330127 -0.04241666 0.025
v 0.05 -0.04241666 0
v 0.04330127 0.04241666 -0.02499999
v 0.025 0.04241666 -0.04330126
v 3.671798E-09 0.04241666 -0.04999999
v -0.02499999 0.04241666 -0.04330127
v -0.03981078 0.04241666 -0.02856674
v -0.05808928 0.04241666 -0.005940687
v -1.290478E-09 0.04241666 0.04999999
v 0.025 0.04241666 0.04330127
v 0.04330127 0.04241666 0.025
v 0.05 0.04241666 0
v 0 -0.04241666 0
v 0 0.04241666 0
v -0.1470149 -0.04241666 -2.381319E-09
v -0.1470149 0.04241666 -2.381319E-09
v -0.1459684 -0.04241666 0.04999999
v -0.1459684 0.04241666 0.04999999
v -0.03341668 -0.03063778 0.04999999
v -1.290478E-09 -0.03063778 0.04999999
v -0.03341668 0.03113061 0.04999999
v -1.290478E-09 0.03059996 0.04999999
v -0.01562029 -0.03063778 0.04321586
v -0.01562029 0.03135904 0.04321586
v -0.06493046 0.03365302 0.04262348
v -0.06493046 -0.03365302 0.04262348
v 0.01954065 -0.03063778 0.005302202
v 0.01954065 0.03059996 0.005302202
v -0.1058322 0.03646457 0.001785167
v -0.1058322 -0.03542701 0.001785167
v -0.1469067 0.03365302 0.005165209
v -0.1469067 -0.03365302 0.005165209
v -0.1460765 -0.03365302 0.04483479
v -0.1460765 0.03365302 0.04483479
v -0.1032069 0.03365302 0.002953907
v -0.1032069 -0.03365302 0.002953907
v -0.04898166 -0.04241666 -0.01329987
v -0.04898166 0.04241666 -0.01329987
v -0.02165707 0.03135904 0.04321586
v 0.05 -0.04241666 0
v 0.05 0.04241666 0
v 0.025 -0.04241666 -0.04330126
v 0.04330127 -0.04241666 -0.02499999
v 3.671798E-09 -0.04241666 -0.04999999
v -0.02499999 -0.04241666 -0.04330127
v -0.03981078 -0.04241666 -0.02856674
v -0.04898166 -0.04241666 -0.01329987
v -1.290478E-09 -0.04241666 0.04999999
v 0.025 -0.04241666 0.04330127
v 0.04330127 -0.04241666 0.025
v 0.05 -0.04241666 0
v 0.04330127 0.04241666 -0.02499999
v 0.025 0.04241666 -0.04330126
v 3.671798E-09 0.04241666 -0.04999999
v -0.02499999 0.04241666 -0.04330127
v -0.03981078 0.04241666 -0.02856674
v -0.04898166 0.04241666 -0.01329987
v -1.290478E-09 0.04241666 0.04999999
v 0.025 0.04241666 0.04330127
v 0.04330127 0.04241666 0.025
v 0.05 0.04241666 0
v -0.05808928 -0.04241666 -0.005940687
v -0.05808928 0.04241666 -0.005940687
v -0.1470149 -0.04241666 -2.381319E-09
v -0.1470149 0.04241666 -2.381319E-09
v -0.01562029 0.03135904 0.04321586
v -0.03341668 0.03113061 0.04999999
v -0.03341668 -0.03063778 0.04999999
v -0.06493046 0.03365302 0.04262348
v -0.03341668 -0.03063778 0.04999999
v -0.01562029 -0.03063778 0.04321586
v -1.290478E-09 -0.03063778 0.04999999
v -0.01562029 -0.03063778 0.04321586
v 0.01954065 0.03059996 0.005302202
v -0.01562029 0.03135904 0.04321586
v 0.01954065 -0.03063778 0.005302202
v -0.02165707 0.03135904 0.04321586
v -0.1058322 0.03646457 0.001785167
v -0.06493046 0.03365302 0.04262348
v 0.01954065 0.03059996 0.005302202
v -0.06493046 0.03365302 0.04262348
v -0.1058322 -0.03542701 0.001785167
v -0.1058322 0.03646457 0.001785167
v -0.06493046 -0.03365302 0.04262348
v -0.06493046 -0.03365302 0.04262348
v 0.01954065 -0.03063778 0.005302202
v -0.01562029 -0.03063778 0.04321586
v -0.1058322 -0.03542701 0.001785167
v -0.1470149 0.04241666 -2.381319E-09
v -0.1470149 -0.04241666 -2.381319E-09
v -0.1459684 -0.04241666 0.04999999
v -0.1459684 0.04241666 0.04999999
v -0.1469067 0.03365302 0.005165209
v -0.1469067 -0.03365302 0.005165209
v -0.1032069 -0.03365302 0.002953907
v -0.1460765 -0.03365302 0.04483479
v -0.1469067 -0.03365302 0.005165209
v -0.06493046 -0.03365302 0.04262348
v -0.1460765 -0.03365302 0.04483479
v -0.06493046 0.03365302 0.04262348
v -0.1460765 0.03365302 0.04483479
v -0.06493046 -0.03365302 0.04262348
v -0.1032069 0.03365302 0.002953907
v -0.1460765 0.03365302 0.04483479
v -0.06493046 0.03365302 0.04262348
v -0.1469067 0.03365302 0.005165209
v -0.1459684 0.04241666 0.04999999
v -0.03341668 0.03113061 0.04999999
v -0.1459684 -0.04241666 0.04999999
v -0.01562029 0.03135904 0.04321586
v -0.06493046 -0.03365302 0.04262348
v -1.290478E-09 0.03059996 0.04999999
v -1.290478E-09 -0.04241666 0.04999999
v -1.290478E-09 0.04241666 0.04999999
v -1.290478E-09 0.03059996 0.04999999
v -1.290478E-09 0.03059996 0.04999999
v -0.01562029 0.03135904 0.04321586
v -0.06493046 0.03365302 0.04262348
v -0.03341668 0.03113061 0.04999999
v -0.03341668 -0.03063778 0.04999999
v -0.1459684 -0.04241666 0.04999999
v -0.03341668 -0.03063778 0.04999999
v -0.03341668 0.03113061 0.04999999
v 0.01954065 0.03059996 0.005302202
v -0.03341668 -0.03063778 0.04999999
v -0.01562029 -0.03063778 0.04321586
v -0.01562029 0.03135904 0.04321586
v -0.03341668 0.03113061 0.04999999
vt 0.5172052 0.9531466
vt 0.5199451 0.8848755
vt 0.4014794 0.8848756
vt 0.4042192 0.9531466
vt 0.2471057 0.4712365
vt 0.2471057 0.4288097
vt 0.2471057 0.3708536
vt 0.2471057 0.3128974
vt 0.2471057 0.2785624
vt 0.4706397 0.7804819
vt 0.5167994 0.3680708
vt 0.5167995 0.4252247
vt 0.5167995 0.4670641
vt 0.5167995 0.4823784
vt 0.05044121 0.4712365
vt 0.05044127 0.4288097
vt 0.05044127 0.3708536
vt 0.05044127 0.3128974
vt 0.05044121 0.2785624
vt 0.4706397 0.7804819
vt 0.322858 0.3680709
vt 0.3228579 0.4252247
vt 0.3228579 0.4670641
vt 0.3228579 0.4823784
vt 0.7308574 0.75387
vt 0.7308574 0.75387
vt 0.0722878 0.75387
vt 0.05044124 0.03003705
vt 0.07697546 0.5298894
vt 0.07697546 0.5298894
vt 0.488626 0.2916754
vt 0.4931104 0.368071
vt 0.6853822 0.4478057
vt 0.3466335 0.3680708
vt 0.4902693 0.3290555
vt 0.3474476 0.3290556
vt 0.5821038 0.4926612
vt 0.8552175 0.3731149
vt 0.5209879 0.8914661
vt 0.5205677 0.949362
vt 0.4019962 0.9540462
vt 0.4024896 0.8860778
vt 0.6621746 0.1905572
vt 0.8688623 0.1905572
vt 0.8688623 0.293814
vt 0.6621746 0.293814
vt 0.3615083 0.9512072
vt 0.3615083 0.8908486
vt 0.2471057 0.257302
vt 0.05044124 0.257302
vt 0.7631348 0.4926612
vt 0.2471057 0.4867658
vt 0.05044121 0.4867659
vt 0.8428479 0.947843
vt 0.9248304 0.8658603
vt 0.7308574 0.9778507
vt 0.618867 0.947843
vt 0.5525205 0.881838
vt 0.5114385 0.8134484
vt 0.7308574 0.5298894
vt 0.8428479 0.559897
vt 0.9248304 0.6418797
vt 0.954838 0.75387
vt 0.9248304 0.8658603
vt 0.8428479 0.947843
vt 0.7308574 0.9778507
vt 0.618867 0.947843
vt 0.5525205 0.881838
vt 0.5114385 0.8134484
vt 0.7308574 0.5298894
vt 0.8428479 0.559897
vt 0.9248304 0.6418797
vt 0.954838 0.75387
vt 0.2471058 0.2361884
vt 0.05044121 0.2361884
vt 0.2471057 0.03003705
vt 0.0722878 0.75387
vt 0.803049 0.4926612
vt 0.6549528 0.4213189
vt 0.8438882 0.4213189
vt 0.6436232 0.3731149
vt 0.6853822 0.4478057
vt 0.803049 0.4926612
vt 0.9063276 0.4478057
vt 0.1066162 0.9524704
vt 0.241706 0.8688332
vt 0.2417061 0.9524704
vt 0.1066161 0.8688332
vt 0.8810573 0.02747476
vt 0.6835873 0.1246688
vt 0.8168257 0.02747476
vt 0.9777048 0.1164181
vt 0.5172052 0.9531466
vt 0.4014794 0.8848756
vt 0.5199451 0.8848755
vt 0.4042192 0.9531466
vt 0.8168257 0.02747476
vt 0.9777048 0.1164181
vt 0.8952193 0.02747476
vt 0.6835873 0.1246688
vt 0.6165049 0.1543584
vt 0.9145321 0.1543584
vt 0.9145321 0.3300128
vt 0.6165049 0.3300129
vt 0.2887383 0.9512072
vt 0.2887383 0.8908486
vt 0.5839919 0.1226954
vt 0.6822421 0.04157963
vt 0.5891795 0.04054805
vt 0.6770545 0.1237268
vt 0.2894828 0.8908486
vt 0.3622528 0.9512072
vt 0.2894828 0.9512072
vt 0.3622528 0.8908486
vt 0.5839919 0.1226954
vt 0.6822421 0.04157963
vt 0.6770545 0.1237268
vt 0.5891795 0.04054805
vt 0.3228579 0.03436524
vt 0.3486595 0.2916753
vt 0.5167995 0.03436542
vt 0.8952193 0.02747476
vt 0.5821038 0.4926612
vt 0.9063276 0.4478057
vt 0.5167994 0.3680708
vt 0.322858 0.3680709
vt 0.3466335 0.3680708
vt 0.3466335 0.3680708
vt 0.803049 0.4926612
vt 0.5821038 0.4926612
vt 0.3486595 0.2916753
vt 0.488626 0.2916754
vt 0.5167995 0.03436542
vt 0.488626 0.2916754
vt 0.3486595 0.2916753
vt 0.9777048 0.1164181
vt 0.6853822 0.4478057
vt 0.803049 0.4926612
vt 0.803049 0.4926612
vt 0.6853822 0.4478057
vn 0.7065582 0 -0.707655
vn 0.7065582 0 -0.707655
vn 0.7065582 0 -0.707655
vn 0.7065582 0 -0.707655
vn 0.6016682 -0.7192546 -0.3473733
vn 0.3473734 -0.7192546 -0.6016682
vn 0 -0.7192546 -0.6947467
vn -0.3466584 -0.7191349 -0.6022235
vn -0.5545377 -0.7098057 -0.4343545
vn -0.1955575 -0.8439509 -0.4995038
vn 0.06123652 -0.7097992 0.7017372
vn 0.3473732 -0.7192546 0.6016682
vn 0.6016682 -0.7192546 0.3473734
vn 0.6947466 -0.7192546 0
vn 0.6016682 0.7192546 -0.3473733
vn 0.3473734 0.7192546 -0.6016682
vn 0 0.7192546 -0.6947467
vn -0.3466584 0.7191349 -0.6022235
vn -0.5545377 0.7098057 -0.4343545
vn -0.1955575 0.8439509 -0.4995038
vn 0.06123652 0.7097992 0.7017372
vn 0.3473733 0.7192547 0.6016682
vn 0.6016682 0.7192546 0.3473734
vn 0.6947466 0.7192546 0
vn 0 -1 0
vn 0 1 0
vn -0.8309497 -0.40216 -0.3844346
vn -0.8309497 0.40216 -0.3844346
vn -0.6604071 -0.3302762 0.6743738
vn -0.6604071 0.3302762 0.6743738
vn 0 0.7071069 0.7071066
vn -0.04568058 0.3273495 0.9437984
vn 0.1806974 -0.9799658 -0.08375791
vn -0.05207355 -0.3341485 0.9410808
vn -0.2816872 0.7071069 0.648577
vn -0.3025013 -0.7281741 0.6150248
vn 0.05927162 -0.8717316 -0.4863855
vn 0.05455996 0.864705 -0.499308
vn -0.02804159 0 0.9996068
vn -0.02804159 0 0.9996068
vn -0.02804159 0 0.9996068
vn -0.02804159 0 0.9996068
vn -0.8036626 -0.4123406 0.4290705
vn -0.8036626 0.4123406 0.4290705
vn -0.8257019 0.4073909 -0.3901908
vn -0.8257019 -0.4073909 -0.3901908
vn 0.03573538 -0.7071068 0.7062032
vn 0.03573538 0.7071068 0.7062032
vn -0.5293136 -0.7125348 -0.4605662
vn -0.5293136 0.7125348 -0.4605662
vn -0.03089227 -0.9987543 -0.03918668
vn 0.6947466 -0.7192546 0
vn 0.6947466 0.7192546 0
vn 0.3473734 -0.7192546 -0.6016682
vn 0.6016682 -0.7192546 -0.3473733
vn 0 -0.7192546 -0.6947467
vn -0.3466584 -0.7191349 -0.6022235
vn -0.5545377 -0.7098057 -0.4343545
vn -0.5293136 -0.7125348 -0.4605662
vn 0.06123652 -0.7097992 0.7017372
vn 0.3473732 -0.7192546 0.6016682
vn 0.6016682 -0.7192546 0.3473734
vn 0.6947466 -0.7192546 0
vn 0.6016682 0.7192546 -0.3473733
vn 0.3473734 0.7192546 -0.6016682
vn 0 0.7192546 -0.6947467
vn -0.3466584 0.7191349 -0.6022235
vn -0.5545377 0.7098057 -0.4343545
vn -0.5293136 0.7125348 -0.4605662
vn 0.06123652 0.7097992 0.7017372
vn 0.3473733 0.7192547 0.6016682
vn 0.6016682 0.7192546 0.3473734
vn 0.6947466 0.7192546 0
vn -0.1955575 -0.8439509 -0.4995038
vn -0.1955575 0.8439509 -0.4995038
vn -0.8309497 -0.40216 -0.3844346
vn -0.8309497 0.40216 -0.3844346
vn -0.02247945 -0.9987028 -0.04568762
vn 0.1806974 -0.9799658 -0.08375791
vn 0.1679393 0.9777176 -0.1259555
vn 0.05927162 -0.8717316 -0.4863855
vn 0 0.7071069 0.7071066
vn -0.2816872 0.7071069 0.648577
vn -0.04568058 0.3273495 0.9437984
vn -0.7332234 0 -0.6799877
vn -0.7332234 0 -0.6799877
vn -0.7332234 0 -0.6799877
vn -0.7332234 0 -0.6799877
vn -0.03089227 -0.9987543 -0.03918668
vn -0.04766688 -0.9985196 -0.02620289
vn 0.05927162 -0.8717316 -0.4863855
vn -0.04766688 -0.9985196 -0.02620289
vn -0.7065582 0 0.707655
vn -0.7065582 0 0.707655
vn -0.7065582 0 0.707655
vn -0.7065582 0 0.707655
vn 0.05455996 0.864705 -0.499308
vn -0.04417238 0.9988379 -0.01928003
vn -0.05144231 0.9949196 -0.08653694
vn -0.04417238 0.9988379 -0.01928003
vn -0.8309497 0.40216 -0.3844346
vn -0.8309497 -0.40216 -0.3844346
vn -0.6604071 -0.3302762 0.6743738
vn -0.6604071 0.3302762 0.6743738
vn -0.8036626 -0.4123406 0.4290705
vn -0.8036626 0.4123406 0.4290705
vn 0.03573538 0.7071068 0.7062032
vn -0.8257019 0.4073909 -0.3901908
vn -0.8036626 0.4123406 0.4290705
vn -0.01926215 0.7071066 -0.7068444
vn -0.8257019 0.4073909 -0.3901908
vn -0.01926215 -0.7071066 -0.7068444
vn -0.8257019 -0.4073909 -0.3901908
vn -0.01926215 0.7071066 -0.7068444
vn 0.03573538 -0.7071068 0.7062032
vn -0.8257019 -0.4073909 -0.3901908
vn -0.01926215 -0.7071066 -0.7068444
vn -0.8036626 -0.4123406 0.4290705
vn -0.6604071 0.3302762 0.6743738
vn 0 0 1
vn 0 0 1
vn -0.02247945 -0.9987028 -0.04568762
vn 0.05455996 0.864705 -0.499308
vn -0.05207355 -0.3341485 0.9410808
vn 0.06123652 -0.7097992 0.7017372
vn 0.06123652 0.7097992 0.7017372
vn -0.05207355 -0.3341485 0.9410808
vn -0.05207355 -0.3341485 0.9410808
vn -0.02247945 -0.9987028 -0.04568762
vn 0.05927162 -0.8717316 -0.4863855
vn 0.1806974 -0.9799658 -0.08375791
vn 0.1679393 0.9777176 -0.1259555
vn -0.6604071 -0.3302762 0.6743738
vn 0 0 1
vn -0.01164134 -0.7330877 0.6800345
vn 0 -0.9997997 0.02001728
vn 0.1679393 0.9777176 -0.1259555
vn -0.05144231 0.9949196 -0.08653694
vn -0.3025013 -0.7281741 0.6150248
vn -0.01164134 -0.7330877 0.6800345
g whistle_0
f 34/34/34 125/125/125 126/126/126
f 32/32/32 125/125/125 127/127/127
f 32/32/32 31/31/31 11/11/11
f 37/37/37 78/78/78 33/33/33
f 51/51/51 129/129/129 130/130/130
f 83/83/83 82/82/82 84/84/84
f 131/131/131 121/121/121 132/132/132
f 134/134/134 133/133/133 11/11/11
f 128/128/128 21/21/21 135/135/135
f 136/136/136 122/122/122 89/89/89
f 123/123/123 137/137/137 138/138/138
f 139/139/139 124/124/124 140/140/140
f 3/3/3 1/1/1 4/4/4
f 3/3/3 2/2/2 1/1/1
f 12/12/12 21/21/21 11/11/11
f 12/12/12 22/22/22 21/21/21
f 23/23/23 22/22/22 12/12/12
f 13/13/13 23/23/23 12/12/12
f 13/13/13 24/24/24 23/23/23
f 14/14/14 24/24/24 13/13/13
f 28/28/28 74/74/74 76/76/76
f 75/75/75 74/74/74 28/28/28
f 75/75/75 49/49/49 74/74/74
f 50/50/50 49/49/49 75/75/75
f 50/50/50 9/9/9 49/49/49
f 19/19/19 9/9/9 50/50/50
f 19/19/19 8/8/8 9/9/9
f 18/18/18 8/8/8 19/19/19
f 18/18/18 7/7/7 8/8/8
f 17/17/17 7/7/7 18/18/18
f 17/17/17 6/6/6 7/7/7
f 16/16/16 6/6/6 17/17/17
f 16/16/16 5/5/5 6/6/6
f 15/15/15 5/5/5 16/16/16
f 15/15/15 52/52/52 5/5/5
f 53/53/53 52/52/52 15/15/15
f 10/10/10 29/29/29 27/27/27
f 10/10/10 60/60/60 29/29/29
f 25/25/25 60/60/60 10/10/10
f 25/25/25 61/61/61 60/60/60
f 62/62/62 61/61/61 25/25/25
f 26/26/26 71/71/71 72/72/72
f 26/26/26 70/70/70 71/71/71
f 20/20/20 70/70/70 26/26/26
f 20/20/20 30/30/30 70/70/70
f 77/77/77 30/30/30 20/20/20
f 41/41/41 39/39/39 40/40/40
f 41/41/41 42/42/42 39/39/39
f 36/36/36 32/32/32 128/128/128
f 36/36/36 35/35/35 32/32/32
f 38/38/38 79/79/79 80/80/80
f 38/38/38 81/81/81 79/79/79
f 86/86/86 85/85/85 87/87/87
f 86/86/86 88/88/88 85/85/85
f 90/90/90 89/89/89 91/91/91
f 90/90/90 92/92/92 89/89/89
f 94/94/94 93/93/93 95/95/95
f 94/94/94 96/96/96 93/93/93
f 98/98/98 97/97/97 99/99/99
f 98/98/98 100/100/100 97/97/97
f 48/48/48 105/105/105 106/106/106
f 48/48/48 47/47/47 105/105/105
f 108/108/108 107/107/107 109/109/109
f 108/108/108 110/110/110 107/107/107
f 112/112/112 111/111/111 113/113/113
f 112/112/112 114/114/114 111/111/111
f 116/116/116 115/115/115 117/117/117
f 116/116/116 118/118/118 115/115/115
f 119/119/119 120/120/120 21/21/21
f 119/119/119 133/133/133 120/120/120
f 25/25/25 55/55/55 63/63/63
f 25/25/25 54/54/54 55/55/55
f 56/56/56 54/54/54 25/25/25
f 25/25/25 57/57/57 56/56/56
f 25/25/25 58/58/58 57/57/57
f 59/59/59 58/58/58 25/25/25
f 25/25/25 10/10/10 59/59/59
f 25/25/25 63/63/63 62/62/62
f 26/26/26 65/65/65 66/66/66
f 26/26/26 64/64/64 65/65/65
f 73/73/73 64/64/64 26/26/26
f 26/26/26 68/68/68 69/69/69
f 26/26/26 67/67/67 68/68/68
f 66/66/66 67/67/67 26/26/26
f 26/26/26 72/72/72 73/73/73
f 44/44/44 102/102/102 103/103/103
f 44/44/44 101/101/101 102/102/102
f 43/43/43 101/101/101 44/44/44
f 43/43/43 46/46/46 101/101/101
f 46/46/46 104/104/104 101/101/101
f 46/46/46 103/103/103 104/104/104
f 45/45/45 103/103/103 46/46/46
f 45/45/45 44/44/44 103/103/103
f 20/20/20 26/26/26 69/69/69
